G04 #@! TF.GenerationSoftware,KiCad,Pcbnew,7.0.8*
G04 #@! TF.CreationDate,2023-11-16T17:33:30+00:00*
G04 #@! TF.ProjectId,ActionServer,41637469-6f6e-4536-9572-7665722e6b69,rev?*
G04 #@! TF.SameCoordinates,Original*
G04 #@! TF.FileFunction,Soldermask,Top*
G04 #@! TF.FilePolarity,Negative*
%FSLAX46Y46*%
G04 Gerber Fmt 4.6, Leading zero omitted, Abs format (unit mm)*
G04 Created by KiCad (PCBNEW 7.0.8) date 2023-11-16 17:33:30*
%MOMM*%
%LPD*%
G01*
G04 APERTURE LIST*
G04 Aperture macros list*
%AMRoundRect*
0 Rectangle with rounded corners*
0 $1 Rounding radius*
0 $2 $3 $4 $5 $6 $7 $8 $9 X,Y pos of 4 corners*
0 Add a 4 corners polygon primitive as box body*
4,1,4,$2,$3,$4,$5,$6,$7,$8,$9,$2,$3,0*
0 Add four circle primitives for the rounded corners*
1,1,$1+$1,$2,$3*
1,1,$1+$1,$4,$5*
1,1,$1+$1,$6,$7*
1,1,$1+$1,$8,$9*
0 Add four rect primitives between the rounded corners*
20,1,$1+$1,$2,$3,$4,$5,0*
20,1,$1+$1,$4,$5,$6,$7,0*
20,1,$1+$1,$6,$7,$8,$9,0*
20,1,$1+$1,$8,$9,$2,$3,0*%
G04 Aperture macros list end*
%ADD10R,1.700000X1.700000*%
%ADD11O,1.700000X1.700000*%
%ADD12RoundRect,0.250000X-0.450000X0.262500X-0.450000X-0.262500X0.450000X-0.262500X0.450000X0.262500X0*%
%ADD13C,2.700000*%
%ADD14RoundRect,0.150000X-0.150000X0.825000X-0.150000X-0.825000X0.150000X-0.825000X0.150000X0.825000X0*%
G04 APERTURE END LIST*
D10*
X115738000Y-85457000D03*
D11*
X113198000Y-85457000D03*
X110658000Y-85457000D03*
X108118000Y-85457000D03*
D12*
X144704000Y-56058000D03*
X144704000Y-57883000D03*
D13*
X161500000Y-47500000D03*
D12*
X141148000Y-56011000D03*
X141148000Y-57836000D03*
X129582177Y-56011000D03*
X129582177Y-57836000D03*
D10*
X145202000Y-85973000D03*
D11*
X142662000Y-85973000D03*
X140122000Y-85973000D03*
X137582000Y-85973000D03*
D12*
X110435162Y-56011000D03*
X110435162Y-57836000D03*
X118093968Y-56011000D03*
X118093968Y-57836000D03*
D13*
X103500000Y-96500000D03*
D14*
X149911000Y-68250000D03*
X148641000Y-68250000D03*
X147371000Y-68250000D03*
X146101000Y-68250000D03*
X144831000Y-68250000D03*
X143561000Y-68250000D03*
X142291000Y-68250000D03*
X141021000Y-68250000D03*
X141021000Y-73200000D03*
X142291000Y-73200000D03*
X143561000Y-73200000D03*
X144831000Y-73200000D03*
X146101000Y-73200000D03*
X147371000Y-73200000D03*
X148641000Y-73200000D03*
X149911000Y-73200000D03*
D13*
X103500000Y-47500000D03*
D12*
X114264565Y-56011000D03*
X114264565Y-57836000D03*
X152558595Y-56011000D03*
X152558595Y-57836000D03*
D10*
X158420000Y-86030000D03*
D11*
X155880000Y-86030000D03*
X153340000Y-86030000D03*
X150800000Y-86030000D03*
D12*
X121923371Y-56011000D03*
X121923371Y-57836000D03*
D14*
X121590000Y-67742000D03*
X120320000Y-67742000D03*
X119050000Y-67742000D03*
X117780000Y-67742000D03*
X116510000Y-67742000D03*
X115240000Y-67742000D03*
X113970000Y-67742000D03*
X112700000Y-67742000D03*
X112700000Y-72692000D03*
X113970000Y-72692000D03*
X115240000Y-72692000D03*
X116510000Y-72692000D03*
X117780000Y-72692000D03*
X119050000Y-72692000D03*
X120320000Y-72692000D03*
X121590000Y-72692000D03*
D12*
X125752774Y-56011000D03*
X125752774Y-57836000D03*
D13*
X161500000Y-96500000D03*
D12*
X133411580Y-56011000D03*
X133411580Y-57836000D03*
X137240983Y-56011000D03*
X137240983Y-57836000D03*
D11*
X122860000Y-85457000D03*
X125400000Y-85457000D03*
X127940000Y-85457000D03*
D10*
X130480000Y-85457000D03*
D12*
X156388000Y-56011000D03*
X156388000Y-57836000D03*
D10*
X108370000Y-48770000D03*
D11*
X108370000Y-46230000D03*
X110910000Y-48770000D03*
X110910000Y-46230000D03*
X113450000Y-48770000D03*
X113450000Y-46230000D03*
X115990000Y-48770000D03*
X115990000Y-46230000D03*
X118530000Y-48770000D03*
X118530000Y-46230000D03*
X121070000Y-48770000D03*
X121070000Y-46230000D03*
X123610000Y-48770000D03*
X123610000Y-46230000D03*
X126150000Y-48770000D03*
X126150000Y-46230000D03*
X128690000Y-48770000D03*
X128690000Y-46230000D03*
X131230000Y-48770000D03*
X131230000Y-46230000D03*
X133770000Y-48770000D03*
X133770000Y-46230000D03*
X136310000Y-48770000D03*
X136310000Y-46230000D03*
X138850000Y-48770000D03*
X138850000Y-46230000D03*
X141390000Y-48770000D03*
X141390000Y-46230000D03*
X143930000Y-48770000D03*
X143930000Y-46230000D03*
X146470000Y-48770000D03*
X146470000Y-46230000D03*
X149010000Y-48770000D03*
X149010000Y-46230000D03*
X151550000Y-48770000D03*
X151550000Y-46230000D03*
X154090000Y-48770000D03*
X154090000Y-46230000D03*
X156630000Y-48770000D03*
X156630000Y-46230000D03*
M02*
