G04 #@! TF.GenerationSoftware,KiCad,Pcbnew,7.0.8*
G04 #@! TF.CreationDate,2023-11-16T11:08:23+00:00*
G04 #@! TF.ProjectId,ActionServer,41637469-6f6e-4536-9572-7665722e6b69,rev?*
G04 #@! TF.SameCoordinates,Original*
G04 #@! TF.FileFunction,Copper,L2,Bot*
G04 #@! TF.FilePolarity,Positive*
%FSLAX46Y46*%
G04 Gerber Fmt 4.6, Leading zero omitted, Abs format (unit mm)*
G04 Created by KiCad (PCBNEW 7.0.8) date 2023-11-16 11:08:23*
%MOMM*%
%LPD*%
G01*
G04 APERTURE LIST*
G04 Aperture macros list*
%AMRoundRect*
0 Rectangle with rounded corners*
0 $1 Rounding radius*
0 $2 $3 $4 $5 $6 $7 $8 $9 X,Y pos of 4 corners*
0 Add a 4 corners polygon primitive as box body*
4,1,4,$2,$3,$4,$5,$6,$7,$8,$9,$2,$3,0*
0 Add four circle primitives for the rounded corners*
1,1,$1+$1,$2,$3*
1,1,$1+$1,$4,$5*
1,1,$1+$1,$6,$7*
1,1,$1+$1,$8,$9*
0 Add four rect primitives between the rounded corners*
20,1,$1+$1,$2,$3,$4,$5,0*
20,1,$1+$1,$4,$5,$6,$7,0*
20,1,$1+$1,$6,$7,$8,$9,0*
20,1,$1+$1,$8,$9,$2,$3,0*%
G04 Aperture macros list end*
G04 #@! TA.AperFunction,ComponentPad*
%ADD10R,1.700000X1.700000*%
G04 #@! TD*
G04 #@! TA.AperFunction,ComponentPad*
%ADD11O,1.700000X1.700000*%
G04 #@! TD*
G04 #@! TA.AperFunction,ViaPad*
%ADD12C,0.900000*%
G04 #@! TD*
G04 #@! TA.AperFunction,Conductor*
%ADD13C,0.200000*%
G04 #@! TD*
G04 #@! TA.AperFunction,SMDPad,CuDef*
%ADD14RoundRect,0.250000X-0.450000X0.262500X-0.450000X-0.262500X0.450000X-0.262500X0.450000X0.262500X0*%
G04 #@! TD*
G04 #@! TA.AperFunction,SMDPad,CuDef*
%ADD15RoundRect,0.150000X-0.150000X0.825000X-0.150000X-0.825000X0.150000X-0.825000X0.150000X0.825000X0*%
G04 #@! TD*
%ADD16RoundRect,0.250000X-0.450000X0.262500X-0.450000X-0.262500X0.450000X-0.262500X0.450000X0.262500X0*%
%ADD17RoundRect,0.150000X-0.150000X0.825000X-0.150000X-0.825000X0.150000X-0.825000X0.150000X0.825000X0*%
%ADD18C,0.150000*%
%ADD19C,0.120000*%
%ADD20R,1.700000X1.700000*%
%ADD21O,1.700000X1.700000*%
%ADD22C,2.700000*%
G04 #@! TA.AperFunction,Profile*
%ADD23C,0.100000*%
G04 #@! TD*
G04 APERTURE END LIST*
D10*
X115738000Y-85457000D03*
D11*
X113198000Y-85457000D03*
X110658000Y-85457000D03*
X108118000Y-85457000D03*
D10*
X145202000Y-85973000D03*
D11*
X142662000Y-85973000D03*
X140122000Y-85973000D03*
X137582000Y-85973000D03*
D10*
X158420000Y-86030000D03*
D11*
X155880000Y-86030000D03*
X153340000Y-86030000D03*
X150800000Y-86030000D03*
D10*
X128194000Y-85457000D03*
D11*
X125654000Y-85457000D03*
X123114000Y-85457000D03*
X120574000Y-85457000D03*
D10*
X108370000Y-48770000D03*
D11*
X108370000Y-46230000D03*
X110910000Y-48770000D03*
X110910000Y-46230000D03*
X113450000Y-48770000D03*
X113450000Y-46230000D03*
X115990000Y-48770000D03*
X115990000Y-46230000D03*
X118530000Y-48770000D03*
X118530000Y-46230000D03*
X121070000Y-48770000D03*
X121070000Y-46230000D03*
X123610000Y-48770000D03*
X123610000Y-46230000D03*
X126150000Y-48770000D03*
X126150000Y-46230000D03*
X128690000Y-48770000D03*
X128690000Y-46230000D03*
X131230000Y-48770000D03*
X131230000Y-46230000D03*
X133770000Y-48770000D03*
X133770000Y-46230000D03*
X136310000Y-48770000D03*
X136310000Y-46230000D03*
X138850000Y-48770000D03*
X138850000Y-46230000D03*
X141390000Y-48770000D03*
X141390000Y-46230000D03*
X143930000Y-48770000D03*
X143930000Y-46230000D03*
X146470000Y-48770000D03*
X146470000Y-46230000D03*
X149010000Y-48770000D03*
X149010000Y-46230000D03*
X151550000Y-48770000D03*
X151550000Y-46230000D03*
X154090000Y-48770000D03*
X154090000Y-46230000D03*
X156630000Y-48770000D03*
X156630000Y-46230000D03*
D12*
X111176000Y-67423000D03*
X140386000Y-66472000D03*
X125908000Y-55042000D03*
X129972000Y-52248000D03*
X120320000Y-65456000D03*
X112700000Y-59106000D03*
X124892000Y-60884000D03*
X119050000Y-69520000D03*
X114986000Y-59868000D03*
X118542000Y-59868000D03*
X128702000Y-63424000D03*
X128702000Y-60884000D03*
X140132000Y-52756000D03*
X149784000Y-61646000D03*
X143180000Y-61646000D03*
X137338000Y-53264000D03*
X138608000Y-59868000D03*
X148641000Y-64567000D03*
D13*
X125908000Y-55042000D02*
X126150000Y-54800000D01*
X126150000Y-54800000D02*
X126150000Y-48770000D01*
X129972000Y-50028000D02*
X131230000Y-48770000D01*
X129972000Y-52248000D02*
X129972000Y-50028000D01*
X112827000Y-64567000D02*
X112827000Y-59233000D01*
X112827000Y-59233000D02*
X112700000Y-59106000D01*
X120320000Y-65456000D02*
X113716000Y-65456000D01*
X113716000Y-65456000D02*
X112827000Y-64567000D01*
X124892000Y-64694000D02*
X124892000Y-69012000D01*
X124892000Y-64694000D02*
X124892000Y-60884000D01*
X124892000Y-69012000D02*
X124384000Y-69520000D01*
X124384000Y-69520000D02*
X119050000Y-69520000D01*
X114986000Y-59868000D02*
X118542000Y-59868000D01*
X128702000Y-63424000D02*
X128702000Y-60884000D01*
X139370000Y-44882000D02*
X137658000Y-44882000D01*
X137658000Y-44882000D02*
X136310000Y-46230000D01*
X140132000Y-52756000D02*
X140132000Y-45644000D01*
X140132000Y-45644000D02*
X139370000Y-44882000D01*
X149784000Y-61646000D02*
X143180000Y-61646000D01*
X137592000Y-47488000D02*
X138850000Y-46230000D01*
X137592000Y-53010000D02*
X137592000Y-47488000D01*
X137338000Y-53264000D02*
X137592000Y-53010000D01*
X148641000Y-64567000D02*
X143307000Y-64567000D01*
X143307000Y-64567000D02*
X138608000Y-59868000D01*
G04 #@! TA.AperFunction,Conductor*
G36*
X162001735Y-44050598D02*
G01*
X162156276Y-44059276D01*
X162326771Y-44068851D01*
X162333661Y-44069627D01*
X162606033Y-44115905D01*
X162652887Y-44123866D01*
X162659671Y-44125414D01*
X162970812Y-44215052D01*
X162977376Y-44217349D01*
X163276531Y-44341262D01*
X163282779Y-44344272D01*
X163452594Y-44438125D01*
X163566184Y-44500904D01*
X163572062Y-44504597D01*
X163836148Y-44691977D01*
X163841571Y-44696301D01*
X163861322Y-44713951D01*
X164083012Y-44912067D01*
X164087932Y-44916987D01*
X164155614Y-44992722D01*
X164303696Y-45158426D01*
X164308024Y-45163853D01*
X164495398Y-45427932D01*
X164499095Y-45433815D01*
X164655723Y-45717211D01*
X164658740Y-45723476D01*
X164661733Y-45730701D01*
X164782649Y-46022620D01*
X164784947Y-46029187D01*
X164874585Y-46340328D01*
X164876133Y-46347112D01*
X164930370Y-46666324D01*
X164931149Y-46673238D01*
X164949402Y-46998264D01*
X164949500Y-47001741D01*
X164949500Y-96998258D01*
X164949402Y-97001735D01*
X164931149Y-97326761D01*
X164930370Y-97333675D01*
X164876133Y-97652887D01*
X164874585Y-97659671D01*
X164784947Y-97970812D01*
X164782649Y-97977379D01*
X164658742Y-98276519D01*
X164655723Y-98282788D01*
X164499095Y-98566184D01*
X164495393Y-98572076D01*
X164308029Y-98836140D01*
X164303691Y-98841580D01*
X164087932Y-99083012D01*
X164083012Y-99087932D01*
X163841580Y-99303691D01*
X163836140Y-99308029D01*
X163572076Y-99495393D01*
X163566184Y-99499095D01*
X163282788Y-99655723D01*
X163276519Y-99658742D01*
X162977379Y-99782649D01*
X162970812Y-99784947D01*
X162659671Y-99874585D01*
X162652887Y-99876133D01*
X162333675Y-99930370D01*
X162326761Y-99931149D01*
X162001735Y-99949402D01*
X161998258Y-99949500D01*
X103001742Y-99949500D01*
X102998265Y-99949402D01*
X102673238Y-99931149D01*
X102666324Y-99930370D01*
X102347112Y-99876133D01*
X102340328Y-99874585D01*
X102029187Y-99784947D01*
X102022620Y-99782649D01*
X101832992Y-99704103D01*
X101723476Y-99658740D01*
X101717211Y-99655723D01*
X101433815Y-99499095D01*
X101427932Y-99495398D01*
X101163853Y-99308024D01*
X101158426Y-99303696D01*
X100997618Y-99159989D01*
X100916987Y-99087932D01*
X100912067Y-99083012D01*
X100820064Y-98980061D01*
X100696301Y-98841571D01*
X100691977Y-98836148D01*
X100504597Y-98572062D01*
X100500904Y-98566184D01*
X100401761Y-98386798D01*
X100344272Y-98282779D01*
X100341262Y-98276531D01*
X100217349Y-97977376D01*
X100215052Y-97970812D01*
X100125414Y-97659671D01*
X100123866Y-97652887D01*
X100094127Y-97477858D01*
X100069627Y-97333661D01*
X100068851Y-97326771D01*
X100059276Y-97156276D01*
X100050598Y-97001735D01*
X100050500Y-96998258D01*
X100050500Y-85457000D01*
X107062417Y-85457000D01*
X107082699Y-85662932D01*
X107082700Y-85662934D01*
X107142768Y-85860954D01*
X107240315Y-86043450D01*
X107240317Y-86043452D01*
X107371589Y-86203410D01*
X107468209Y-86282702D01*
X107531550Y-86334685D01*
X107714046Y-86432232D01*
X107912066Y-86492300D01*
X107912065Y-86492300D01*
X107930529Y-86494118D01*
X108118000Y-86512583D01*
X108323934Y-86492300D01*
X108521954Y-86432232D01*
X108704450Y-86334685D01*
X108864410Y-86203410D01*
X108995685Y-86043450D01*
X109093232Y-85860954D01*
X109153300Y-85662934D01*
X109173583Y-85457000D01*
X109602417Y-85457000D01*
X109622699Y-85662932D01*
X109622700Y-85662934D01*
X109682768Y-85860954D01*
X109780315Y-86043450D01*
X109780317Y-86043452D01*
X109911589Y-86203410D01*
X110008209Y-86282702D01*
X110071550Y-86334685D01*
X110254046Y-86432232D01*
X110452066Y-86492300D01*
X110452065Y-86492300D01*
X110470529Y-86494118D01*
X110658000Y-86512583D01*
X110863934Y-86492300D01*
X111061954Y-86432232D01*
X111244450Y-86334685D01*
X111404410Y-86203410D01*
X111535685Y-86043450D01*
X111633232Y-85860954D01*
X111693300Y-85662934D01*
X111713583Y-85457000D01*
X112142417Y-85457000D01*
X112162699Y-85662932D01*
X112162700Y-85662934D01*
X112222768Y-85860954D01*
X112320315Y-86043450D01*
X112320317Y-86043452D01*
X112451589Y-86203410D01*
X112548209Y-86282702D01*
X112611550Y-86334685D01*
X112794046Y-86432232D01*
X112992066Y-86492300D01*
X112992065Y-86492300D01*
X113010529Y-86494118D01*
X113198000Y-86512583D01*
X113403934Y-86492300D01*
X113601954Y-86432232D01*
X113784450Y-86334685D01*
X113794116Y-86326752D01*
X114687500Y-86326752D01*
X114699131Y-86385229D01*
X114699132Y-86385230D01*
X114743447Y-86451552D01*
X114809769Y-86495867D01*
X114809770Y-86495868D01*
X114868247Y-86507499D01*
X114868250Y-86507500D01*
X114868252Y-86507500D01*
X116607750Y-86507500D01*
X116607751Y-86507499D01*
X116622568Y-86504552D01*
X116666229Y-86495868D01*
X116666229Y-86495867D01*
X116666231Y-86495867D01*
X116732552Y-86451552D01*
X116776867Y-86385231D01*
X116776867Y-86385229D01*
X116776868Y-86385229D01*
X116788499Y-86326752D01*
X116788500Y-86326750D01*
X116788500Y-85457000D01*
X119518417Y-85457000D01*
X119538699Y-85662932D01*
X119538700Y-85662934D01*
X119598768Y-85860954D01*
X119696315Y-86043450D01*
X119696317Y-86043452D01*
X119827589Y-86203410D01*
X119924209Y-86282702D01*
X119987550Y-86334685D01*
X120170046Y-86432232D01*
X120368066Y-86492300D01*
X120368065Y-86492300D01*
X120386529Y-86494118D01*
X120574000Y-86512583D01*
X120779934Y-86492300D01*
X120977954Y-86432232D01*
X121160450Y-86334685D01*
X121320410Y-86203410D01*
X121451685Y-86043450D01*
X121549232Y-85860954D01*
X121609300Y-85662934D01*
X121629583Y-85457000D01*
X122058417Y-85457000D01*
X122078699Y-85662932D01*
X122078700Y-85662934D01*
X122138768Y-85860954D01*
X122236315Y-86043450D01*
X122236317Y-86043452D01*
X122367589Y-86203410D01*
X122464209Y-86282702D01*
X122527550Y-86334685D01*
X122710046Y-86432232D01*
X122908066Y-86492300D01*
X122908065Y-86492300D01*
X122926529Y-86494118D01*
X123114000Y-86512583D01*
X123319934Y-86492300D01*
X123517954Y-86432232D01*
X123700450Y-86334685D01*
X123860410Y-86203410D01*
X123991685Y-86043450D01*
X124089232Y-85860954D01*
X124149300Y-85662934D01*
X124169583Y-85457000D01*
X124598417Y-85457000D01*
X124618699Y-85662932D01*
X124618700Y-85662934D01*
X124678768Y-85860954D01*
X124776315Y-86043450D01*
X124776317Y-86043452D01*
X124907589Y-86203410D01*
X125004209Y-86282702D01*
X125067550Y-86334685D01*
X125250046Y-86432232D01*
X125448066Y-86492300D01*
X125448065Y-86492300D01*
X125466529Y-86494118D01*
X125654000Y-86512583D01*
X125859934Y-86492300D01*
X126057954Y-86432232D01*
X126240450Y-86334685D01*
X126250116Y-86326752D01*
X127143500Y-86326752D01*
X127155131Y-86385229D01*
X127155132Y-86385230D01*
X127199447Y-86451552D01*
X127265769Y-86495867D01*
X127265770Y-86495868D01*
X127324247Y-86507499D01*
X127324250Y-86507500D01*
X127324252Y-86507500D01*
X129063750Y-86507500D01*
X129063751Y-86507499D01*
X129078568Y-86504552D01*
X129122229Y-86495868D01*
X129122229Y-86495867D01*
X129122231Y-86495867D01*
X129188552Y-86451552D01*
X129232867Y-86385231D01*
X129232867Y-86385229D01*
X129232868Y-86385229D01*
X129244499Y-86326752D01*
X129244500Y-86326750D01*
X129244500Y-85973000D01*
X136526417Y-85973000D01*
X136546699Y-86178932D01*
X136576734Y-86277944D01*
X136606768Y-86376954D01*
X136704315Y-86559450D01*
X136704317Y-86559452D01*
X136835589Y-86719410D01*
X136905045Y-86776410D01*
X136995550Y-86850685D01*
X137178046Y-86948232D01*
X137376066Y-87008300D01*
X137376065Y-87008300D01*
X137394529Y-87010118D01*
X137582000Y-87028583D01*
X137787934Y-87008300D01*
X137985954Y-86948232D01*
X138168450Y-86850685D01*
X138328410Y-86719410D01*
X138459685Y-86559450D01*
X138557232Y-86376954D01*
X138617300Y-86178934D01*
X138637583Y-85973000D01*
X139066417Y-85973000D01*
X139086699Y-86178932D01*
X139116734Y-86277944D01*
X139146768Y-86376954D01*
X139244315Y-86559450D01*
X139244317Y-86559452D01*
X139375589Y-86719410D01*
X139445045Y-86776410D01*
X139535550Y-86850685D01*
X139718046Y-86948232D01*
X139916066Y-87008300D01*
X139916065Y-87008300D01*
X139934529Y-87010118D01*
X140122000Y-87028583D01*
X140327934Y-87008300D01*
X140525954Y-86948232D01*
X140708450Y-86850685D01*
X140868410Y-86719410D01*
X140999685Y-86559450D01*
X141097232Y-86376954D01*
X141157300Y-86178934D01*
X141177583Y-85973000D01*
X141606417Y-85973000D01*
X141626699Y-86178932D01*
X141656734Y-86277944D01*
X141686768Y-86376954D01*
X141784315Y-86559450D01*
X141784317Y-86559452D01*
X141915589Y-86719410D01*
X141985045Y-86776410D01*
X142075550Y-86850685D01*
X142258046Y-86948232D01*
X142456066Y-87008300D01*
X142456065Y-87008300D01*
X142474529Y-87010118D01*
X142662000Y-87028583D01*
X142867934Y-87008300D01*
X143065954Y-86948232D01*
X143248450Y-86850685D01*
X143258116Y-86842752D01*
X144151500Y-86842752D01*
X144163131Y-86901229D01*
X144163132Y-86901230D01*
X144207447Y-86967552D01*
X144273769Y-87011867D01*
X144273770Y-87011868D01*
X144332247Y-87023499D01*
X144332250Y-87023500D01*
X144332252Y-87023500D01*
X146071750Y-87023500D01*
X146071751Y-87023499D01*
X146086568Y-87020552D01*
X146130229Y-87011868D01*
X146130229Y-87011867D01*
X146130231Y-87011867D01*
X146196552Y-86967552D01*
X146240867Y-86901231D01*
X146240867Y-86901229D01*
X146240868Y-86901229D01*
X146252499Y-86842752D01*
X146252500Y-86842750D01*
X146252500Y-86030000D01*
X149744417Y-86030000D01*
X149764699Y-86235932D01*
X149764700Y-86235934D01*
X149824768Y-86433954D01*
X149922315Y-86616450D01*
X149922317Y-86616452D01*
X150053589Y-86776410D01*
X150134426Y-86842750D01*
X150213550Y-86907685D01*
X150396046Y-87005232D01*
X150594066Y-87065300D01*
X150594065Y-87065300D01*
X150612529Y-87067118D01*
X150800000Y-87085583D01*
X151005934Y-87065300D01*
X151203954Y-87005232D01*
X151386450Y-86907685D01*
X151546410Y-86776410D01*
X151677685Y-86616450D01*
X151775232Y-86433954D01*
X151835300Y-86235934D01*
X151855583Y-86030000D01*
X152284417Y-86030000D01*
X152304699Y-86235932D01*
X152304700Y-86235934D01*
X152364768Y-86433954D01*
X152462315Y-86616450D01*
X152462317Y-86616452D01*
X152593589Y-86776410D01*
X152674426Y-86842750D01*
X152753550Y-86907685D01*
X152936046Y-87005232D01*
X153134066Y-87065300D01*
X153134065Y-87065300D01*
X153152529Y-87067118D01*
X153340000Y-87085583D01*
X153545934Y-87065300D01*
X153743954Y-87005232D01*
X153926450Y-86907685D01*
X154086410Y-86776410D01*
X154217685Y-86616450D01*
X154315232Y-86433954D01*
X154375300Y-86235934D01*
X154395583Y-86030000D01*
X154824417Y-86030000D01*
X154844699Y-86235932D01*
X154844700Y-86235934D01*
X154904768Y-86433954D01*
X155002315Y-86616450D01*
X155002317Y-86616452D01*
X155133589Y-86776410D01*
X155214426Y-86842750D01*
X155293550Y-86907685D01*
X155476046Y-87005232D01*
X155674066Y-87065300D01*
X155674065Y-87065300D01*
X155692529Y-87067118D01*
X155880000Y-87085583D01*
X156085934Y-87065300D01*
X156283954Y-87005232D01*
X156466450Y-86907685D01*
X156476116Y-86899752D01*
X157369500Y-86899752D01*
X157381131Y-86958229D01*
X157381132Y-86958230D01*
X157425447Y-87024552D01*
X157491769Y-87068867D01*
X157491770Y-87068868D01*
X157550247Y-87080499D01*
X157550250Y-87080500D01*
X157550252Y-87080500D01*
X159289750Y-87080500D01*
X159289751Y-87080499D01*
X159304568Y-87077552D01*
X159348229Y-87068868D01*
X159348229Y-87068867D01*
X159348231Y-87068867D01*
X159414552Y-87024552D01*
X159458867Y-86958231D01*
X159458867Y-86958229D01*
X159458868Y-86958229D01*
X159470499Y-86899752D01*
X159470500Y-86899750D01*
X159470500Y-85160249D01*
X159470499Y-85160247D01*
X159458868Y-85101770D01*
X159458867Y-85101769D01*
X159414552Y-85035447D01*
X159348230Y-84991132D01*
X159348229Y-84991131D01*
X159289752Y-84979500D01*
X159289748Y-84979500D01*
X157550252Y-84979500D01*
X157550247Y-84979500D01*
X157491770Y-84991131D01*
X157491769Y-84991132D01*
X157425447Y-85035447D01*
X157381132Y-85101769D01*
X157381131Y-85101770D01*
X157369500Y-85160247D01*
X157369500Y-86899752D01*
X156476116Y-86899752D01*
X156626410Y-86776410D01*
X156757685Y-86616450D01*
X156855232Y-86433954D01*
X156915300Y-86235934D01*
X156935583Y-86030000D01*
X156915300Y-85824066D01*
X156855232Y-85626046D01*
X156757685Y-85443550D01*
X156705702Y-85380209D01*
X156626410Y-85283589D01*
X156476121Y-85160252D01*
X156466450Y-85152315D01*
X156283954Y-85054768D01*
X156085934Y-84994700D01*
X156085932Y-84994699D01*
X156085934Y-84994699D01*
X155880000Y-84974417D01*
X155674067Y-84994699D01*
X155476043Y-85054769D01*
X155365898Y-85113643D01*
X155293550Y-85152315D01*
X155293548Y-85152316D01*
X155293547Y-85152317D01*
X155133589Y-85283589D01*
X155002317Y-85443547D01*
X154904769Y-85626043D01*
X154844699Y-85824067D01*
X154824417Y-86030000D01*
X154395583Y-86030000D01*
X154375300Y-85824066D01*
X154315232Y-85626046D01*
X154217685Y-85443550D01*
X154165702Y-85380209D01*
X154086410Y-85283589D01*
X153936121Y-85160252D01*
X153926450Y-85152315D01*
X153743954Y-85054768D01*
X153545934Y-84994700D01*
X153545932Y-84994699D01*
X153545934Y-84994699D01*
X153340000Y-84974417D01*
X153134067Y-84994699D01*
X152936043Y-85054769D01*
X152825898Y-85113643D01*
X152753550Y-85152315D01*
X152753548Y-85152316D01*
X152753547Y-85152317D01*
X152593589Y-85283589D01*
X152462317Y-85443547D01*
X152364769Y-85626043D01*
X152304699Y-85824067D01*
X152284417Y-86030000D01*
X151855583Y-86030000D01*
X151835300Y-85824066D01*
X151775232Y-85626046D01*
X151677685Y-85443550D01*
X151625702Y-85380209D01*
X151546410Y-85283589D01*
X151396121Y-85160252D01*
X151386450Y-85152315D01*
X151203954Y-85054768D01*
X151005934Y-84994700D01*
X151005932Y-84994699D01*
X151005934Y-84994699D01*
X150800000Y-84974417D01*
X150594067Y-84994699D01*
X150396043Y-85054769D01*
X150285898Y-85113643D01*
X150213550Y-85152315D01*
X150213548Y-85152316D01*
X150213547Y-85152317D01*
X150053589Y-85283589D01*
X149922317Y-85443547D01*
X149824769Y-85626043D01*
X149764699Y-85824067D01*
X149744417Y-86030000D01*
X146252500Y-86030000D01*
X146252500Y-85103249D01*
X146252499Y-85103247D01*
X146240868Y-85044770D01*
X146240867Y-85044769D01*
X146196552Y-84978447D01*
X146130230Y-84934132D01*
X146130229Y-84934131D01*
X146071752Y-84922500D01*
X146071748Y-84922500D01*
X144332252Y-84922500D01*
X144332247Y-84922500D01*
X144273770Y-84934131D01*
X144273769Y-84934132D01*
X144207447Y-84978447D01*
X144163132Y-85044769D01*
X144163131Y-85044770D01*
X144151500Y-85103247D01*
X144151500Y-86842752D01*
X143258116Y-86842752D01*
X143408410Y-86719410D01*
X143539685Y-86559450D01*
X143637232Y-86376954D01*
X143697300Y-86178934D01*
X143717583Y-85973000D01*
X143697300Y-85767066D01*
X143637232Y-85569046D01*
X143539685Y-85386550D01*
X143487702Y-85323209D01*
X143408410Y-85226589D01*
X143258121Y-85103252D01*
X143248450Y-85095315D01*
X143065954Y-84997768D01*
X142867934Y-84937700D01*
X142867932Y-84937699D01*
X142867934Y-84937699D01*
X142662000Y-84917417D01*
X142456067Y-84937699D01*
X142258043Y-84997769D01*
X142187554Y-85035447D01*
X142075550Y-85095315D01*
X142075548Y-85095316D01*
X142075547Y-85095317D01*
X141915589Y-85226589D01*
X141784317Y-85386547D01*
X141686769Y-85569043D01*
X141626699Y-85767067D01*
X141606417Y-85973000D01*
X141177583Y-85973000D01*
X141157300Y-85767066D01*
X141097232Y-85569046D01*
X140999685Y-85386550D01*
X140947702Y-85323209D01*
X140868410Y-85226589D01*
X140718121Y-85103252D01*
X140708450Y-85095315D01*
X140525954Y-84997768D01*
X140327934Y-84937700D01*
X140327932Y-84937699D01*
X140327934Y-84937699D01*
X140122000Y-84917417D01*
X139916067Y-84937699D01*
X139718043Y-84997769D01*
X139647554Y-85035447D01*
X139535550Y-85095315D01*
X139535548Y-85095316D01*
X139535547Y-85095317D01*
X139375589Y-85226589D01*
X139244317Y-85386547D01*
X139146769Y-85569043D01*
X139086699Y-85767067D01*
X139066417Y-85973000D01*
X138637583Y-85973000D01*
X138617300Y-85767066D01*
X138557232Y-85569046D01*
X138459685Y-85386550D01*
X138407702Y-85323209D01*
X138328410Y-85226589D01*
X138178121Y-85103252D01*
X138168450Y-85095315D01*
X137985954Y-84997768D01*
X137787934Y-84937700D01*
X137787932Y-84937699D01*
X137787934Y-84937699D01*
X137582000Y-84917417D01*
X137376067Y-84937699D01*
X137178043Y-84997769D01*
X137107554Y-85035447D01*
X136995550Y-85095315D01*
X136995548Y-85095316D01*
X136995547Y-85095317D01*
X136835589Y-85226589D01*
X136704317Y-85386547D01*
X136606769Y-85569043D01*
X136546699Y-85767067D01*
X136526417Y-85973000D01*
X129244500Y-85973000D01*
X129244500Y-84587249D01*
X129244499Y-84587247D01*
X129232868Y-84528770D01*
X129232867Y-84528769D01*
X129188552Y-84462447D01*
X129122230Y-84418132D01*
X129122229Y-84418131D01*
X129063752Y-84406500D01*
X129063748Y-84406500D01*
X127324252Y-84406500D01*
X127324247Y-84406500D01*
X127265770Y-84418131D01*
X127265769Y-84418132D01*
X127199447Y-84462447D01*
X127155132Y-84528769D01*
X127155131Y-84528770D01*
X127143500Y-84587247D01*
X127143500Y-86326752D01*
X126250116Y-86326752D01*
X126400410Y-86203410D01*
X126531685Y-86043450D01*
X126629232Y-85860954D01*
X126689300Y-85662934D01*
X126709583Y-85457000D01*
X126689300Y-85251066D01*
X126629232Y-85053046D01*
X126531685Y-84870550D01*
X126479702Y-84807209D01*
X126400410Y-84710589D01*
X126250121Y-84587252D01*
X126240450Y-84579315D01*
X126057954Y-84481768D01*
X125859934Y-84421700D01*
X125859932Y-84421699D01*
X125859934Y-84421699D01*
X125654000Y-84401417D01*
X125448067Y-84421699D01*
X125250043Y-84481769D01*
X125162114Y-84528769D01*
X125067550Y-84579315D01*
X125067548Y-84579316D01*
X125067547Y-84579317D01*
X124907589Y-84710589D01*
X124776317Y-84870547D01*
X124678769Y-85053043D01*
X124618699Y-85251067D01*
X124598417Y-85457000D01*
X124169583Y-85457000D01*
X124149300Y-85251066D01*
X124089232Y-85053046D01*
X123991685Y-84870550D01*
X123939702Y-84807209D01*
X123860410Y-84710589D01*
X123710121Y-84587252D01*
X123700450Y-84579315D01*
X123517954Y-84481768D01*
X123319934Y-84421700D01*
X123319932Y-84421699D01*
X123319934Y-84421699D01*
X123114000Y-84401417D01*
X122908067Y-84421699D01*
X122710043Y-84481769D01*
X122622114Y-84528769D01*
X122527550Y-84579315D01*
X122527548Y-84579316D01*
X122527547Y-84579317D01*
X122367589Y-84710589D01*
X122236317Y-84870547D01*
X122138769Y-85053043D01*
X122078699Y-85251067D01*
X122058417Y-85457000D01*
X121629583Y-85457000D01*
X121609300Y-85251066D01*
X121549232Y-85053046D01*
X121451685Y-84870550D01*
X121399702Y-84807209D01*
X121320410Y-84710589D01*
X121170121Y-84587252D01*
X121160450Y-84579315D01*
X120977954Y-84481768D01*
X120779934Y-84421700D01*
X120779932Y-84421699D01*
X120779934Y-84421699D01*
X120574000Y-84401417D01*
X120368067Y-84421699D01*
X120170043Y-84481769D01*
X120082114Y-84528769D01*
X119987550Y-84579315D01*
X119987548Y-84579316D01*
X119987547Y-84579317D01*
X119827589Y-84710589D01*
X119696317Y-84870547D01*
X119598769Y-85053043D01*
X119538699Y-85251067D01*
X119518417Y-85457000D01*
X116788500Y-85457000D01*
X116788500Y-84587249D01*
X116788499Y-84587247D01*
X116776868Y-84528770D01*
X116776867Y-84528769D01*
X116732552Y-84462447D01*
X116666230Y-84418132D01*
X116666229Y-84418131D01*
X116607752Y-84406500D01*
X116607748Y-84406500D01*
X114868252Y-84406500D01*
X114868247Y-84406500D01*
X114809770Y-84418131D01*
X114809769Y-84418132D01*
X114743447Y-84462447D01*
X114699132Y-84528769D01*
X114699131Y-84528770D01*
X114687500Y-84587247D01*
X114687500Y-86326752D01*
X113794116Y-86326752D01*
X113944410Y-86203410D01*
X114075685Y-86043450D01*
X114173232Y-85860954D01*
X114233300Y-85662934D01*
X114253583Y-85457000D01*
X114233300Y-85251066D01*
X114173232Y-85053046D01*
X114075685Y-84870550D01*
X114023702Y-84807209D01*
X113944410Y-84710589D01*
X113794121Y-84587252D01*
X113784450Y-84579315D01*
X113601954Y-84481768D01*
X113403934Y-84421700D01*
X113403932Y-84421699D01*
X113403934Y-84421699D01*
X113198000Y-84401417D01*
X112992067Y-84421699D01*
X112794043Y-84481769D01*
X112706114Y-84528769D01*
X112611550Y-84579315D01*
X112611548Y-84579316D01*
X112611547Y-84579317D01*
X112451589Y-84710589D01*
X112320317Y-84870547D01*
X112222769Y-85053043D01*
X112162699Y-85251067D01*
X112142417Y-85457000D01*
X111713583Y-85457000D01*
X111693300Y-85251066D01*
X111633232Y-85053046D01*
X111535685Y-84870550D01*
X111483702Y-84807209D01*
X111404410Y-84710589D01*
X111254121Y-84587252D01*
X111244450Y-84579315D01*
X111061954Y-84481768D01*
X110863934Y-84421700D01*
X110863932Y-84421699D01*
X110863934Y-84421699D01*
X110658000Y-84401417D01*
X110452067Y-84421699D01*
X110254043Y-84481769D01*
X110166114Y-84528769D01*
X110071550Y-84579315D01*
X110071548Y-84579316D01*
X110071547Y-84579317D01*
X109911589Y-84710589D01*
X109780317Y-84870547D01*
X109682769Y-85053043D01*
X109622699Y-85251067D01*
X109602417Y-85457000D01*
X109173583Y-85457000D01*
X109153300Y-85251066D01*
X109093232Y-85053046D01*
X108995685Y-84870550D01*
X108943702Y-84807209D01*
X108864410Y-84710589D01*
X108714121Y-84587252D01*
X108704450Y-84579315D01*
X108521954Y-84481768D01*
X108323934Y-84421700D01*
X108323932Y-84421699D01*
X108323934Y-84421699D01*
X108118000Y-84401417D01*
X107912067Y-84421699D01*
X107714043Y-84481769D01*
X107626114Y-84528769D01*
X107531550Y-84579315D01*
X107531548Y-84579316D01*
X107531547Y-84579317D01*
X107371589Y-84710589D01*
X107240317Y-84870547D01*
X107142769Y-85053043D01*
X107082699Y-85251067D01*
X107062417Y-85457000D01*
X100050500Y-85457000D01*
X100050500Y-69520000D01*
X118394722Y-69520000D01*
X118413762Y-69676818D01*
X118455349Y-69786472D01*
X118469780Y-69824523D01*
X118559517Y-69954530D01*
X118677760Y-70059283D01*
X118677762Y-70059284D01*
X118817634Y-70132696D01*
X118971014Y-70170500D01*
X118971015Y-70170500D01*
X119128985Y-70170500D01*
X119282365Y-70132696D01*
X119422240Y-70059283D01*
X119540483Y-69954530D01*
X119596027Y-69874059D01*
X119650310Y-69830070D01*
X119698077Y-69820500D01*
X124321159Y-69820500D01*
X124329733Y-69821095D01*
X124341761Y-69822772D01*
X124341761Y-69822771D01*
X124341765Y-69822773D01*
X124384920Y-69820778D01*
X124389510Y-69820566D01*
X124392373Y-69820500D01*
X124411843Y-69820500D01*
X124411844Y-69820500D01*
X124414469Y-69820009D01*
X124423021Y-69819016D01*
X124424245Y-69818959D01*
X124453992Y-69817585D01*
X124460322Y-69814789D01*
X124487629Y-69806332D01*
X124494433Y-69805061D01*
X124520797Y-69788736D01*
X124528392Y-69784733D01*
X124556765Y-69772206D01*
X124561661Y-69767309D01*
X124584069Y-69749561D01*
X124589952Y-69745919D01*
X124608649Y-69721158D01*
X124614266Y-69714703D01*
X125060059Y-69268910D01*
X125066532Y-69263279D01*
X125076224Y-69255959D01*
X125076228Y-69255958D01*
X125108459Y-69220600D01*
X125110367Y-69218602D01*
X125124174Y-69204797D01*
X125125684Y-69202592D01*
X125131023Y-69195851D01*
X125142573Y-69183181D01*
X125151916Y-69172933D01*
X125154416Y-69166478D01*
X125167749Y-69141182D01*
X125171656Y-69135481D01*
X125178757Y-69105285D01*
X125181292Y-69097101D01*
X125192500Y-69068173D01*
X125192500Y-69061248D01*
X125195795Y-69032855D01*
X125197378Y-69026123D01*
X125197379Y-69026119D01*
X125193095Y-68995409D01*
X125192500Y-68986834D01*
X125192500Y-63424000D01*
X128046722Y-63424000D01*
X128065762Y-63580818D01*
X128121780Y-63728523D01*
X128211517Y-63858530D01*
X128329760Y-63963283D01*
X128329762Y-63963284D01*
X128469634Y-64036696D01*
X128623014Y-64074500D01*
X128623015Y-64074500D01*
X128780985Y-64074500D01*
X128934365Y-64036696D01*
X128951477Y-64027715D01*
X129074240Y-63963283D01*
X129192483Y-63858530D01*
X129282220Y-63728523D01*
X129338237Y-63580818D01*
X129357278Y-63424000D01*
X129338237Y-63267182D01*
X129282220Y-63119477D01*
X129192483Y-62989470D01*
X129074240Y-62884717D01*
X129068869Y-62881898D01*
X129018659Y-62833311D01*
X129002500Y-62772104D01*
X129002500Y-61535895D01*
X129022185Y-61468856D01*
X129068880Y-61426096D01*
X129074234Y-61423286D01*
X129074233Y-61423286D01*
X129074240Y-61423283D01*
X129192483Y-61318530D01*
X129282220Y-61188523D01*
X129338237Y-61040818D01*
X129357278Y-60884000D01*
X129338237Y-60727182D01*
X129282220Y-60579477D01*
X129192483Y-60449470D01*
X129074240Y-60344717D01*
X129074238Y-60344716D01*
X129074237Y-60344715D01*
X128934365Y-60271303D01*
X128780986Y-60233500D01*
X128780985Y-60233500D01*
X128623015Y-60233500D01*
X128623014Y-60233500D01*
X128469634Y-60271303D01*
X128329762Y-60344715D01*
X128211516Y-60449471D01*
X128121781Y-60579475D01*
X128121780Y-60579476D01*
X128065762Y-60727181D01*
X128046722Y-60883999D01*
X128046722Y-60884000D01*
X128065762Y-61040818D01*
X128121780Y-61188523D01*
X128121781Y-61188524D01*
X128211517Y-61318531D01*
X128307790Y-61403820D01*
X128329760Y-61423283D01*
X128329763Y-61423284D01*
X128329765Y-61423286D01*
X128335120Y-61426096D01*
X128385335Y-61474678D01*
X128401500Y-61535895D01*
X128401500Y-62772104D01*
X128381815Y-62839143D01*
X128335131Y-62881898D01*
X128329761Y-62884716D01*
X128329760Y-62884717D01*
X128211516Y-62989471D01*
X128121781Y-63119475D01*
X128121780Y-63119476D01*
X128065762Y-63267181D01*
X128046722Y-63423999D01*
X128046722Y-63424000D01*
X125192500Y-63424000D01*
X125192500Y-61535895D01*
X125212185Y-61468856D01*
X125258880Y-61426096D01*
X125264234Y-61423286D01*
X125264233Y-61423286D01*
X125264240Y-61423283D01*
X125382483Y-61318530D01*
X125472220Y-61188523D01*
X125528237Y-61040818D01*
X125547278Y-60884000D01*
X125528237Y-60727182D01*
X125472220Y-60579477D01*
X125382483Y-60449470D01*
X125264240Y-60344717D01*
X125264238Y-60344716D01*
X125264237Y-60344715D01*
X125124365Y-60271303D01*
X124970986Y-60233500D01*
X124970985Y-60233500D01*
X124813015Y-60233500D01*
X124813014Y-60233500D01*
X124659634Y-60271303D01*
X124519762Y-60344715D01*
X124401516Y-60449471D01*
X124311781Y-60579475D01*
X124311780Y-60579476D01*
X124255762Y-60727181D01*
X124236722Y-60883999D01*
X124236722Y-60884000D01*
X124255762Y-61040818D01*
X124311780Y-61188523D01*
X124311781Y-61188524D01*
X124401517Y-61318531D01*
X124497790Y-61403820D01*
X124519760Y-61423283D01*
X124519763Y-61423284D01*
X124519765Y-61423286D01*
X124525120Y-61426096D01*
X124575335Y-61474678D01*
X124591500Y-61535895D01*
X124591500Y-68836166D01*
X124571815Y-68903205D01*
X124555181Y-68923847D01*
X124295848Y-69183181D01*
X124234525Y-69216666D01*
X124208167Y-69219500D01*
X119698077Y-69219500D01*
X119631038Y-69199815D01*
X119596027Y-69165940D01*
X119575003Y-69135481D01*
X119540483Y-69085470D01*
X119422240Y-68980717D01*
X119422238Y-68980716D01*
X119422237Y-68980715D01*
X119282365Y-68907303D01*
X119128986Y-68869500D01*
X119128985Y-68869500D01*
X118971015Y-68869500D01*
X118971014Y-68869500D01*
X118817634Y-68907303D01*
X118677762Y-68980715D01*
X118677760Y-68980717D01*
X118579042Y-69068173D01*
X118559516Y-69085471D01*
X118469781Y-69215475D01*
X118469780Y-69215476D01*
X118413762Y-69363181D01*
X118394722Y-69519999D01*
X118394722Y-69520000D01*
X100050500Y-69520000D01*
X100050500Y-59106000D01*
X112044722Y-59106000D01*
X112063762Y-59262818D01*
X112088754Y-59328715D01*
X112119780Y-59410523D01*
X112209517Y-59540530D01*
X112327760Y-59645283D01*
X112460128Y-59714756D01*
X112510338Y-59763338D01*
X112526500Y-59824550D01*
X112526500Y-64504158D01*
X112525905Y-64512732D01*
X112524227Y-64524763D01*
X112526434Y-64572509D01*
X112526500Y-64575372D01*
X112526500Y-64594845D01*
X112526993Y-64597482D01*
X112527982Y-64606015D01*
X112529415Y-64636991D01*
X112529416Y-64636997D01*
X112532214Y-64643334D01*
X112540664Y-64670620D01*
X112541937Y-64677429D01*
X112541937Y-64677430D01*
X112558260Y-64703793D01*
X112562263Y-64711386D01*
X112574794Y-64739765D01*
X112574795Y-64739766D01*
X112574796Y-64739768D01*
X112579689Y-64744661D01*
X112597435Y-64767065D01*
X112601077Y-64772948D01*
X112601080Y-64772951D01*
X112625826Y-64791639D01*
X112632311Y-64797282D01*
X113459078Y-65624049D01*
X113464721Y-65630533D01*
X113472041Y-65640226D01*
X113472042Y-65640228D01*
X113496659Y-65662669D01*
X113507375Y-65672439D01*
X113509423Y-65674394D01*
X113523203Y-65688174D01*
X113525413Y-65689688D01*
X113532143Y-65695018D01*
X113542370Y-65704341D01*
X113555065Y-65715915D01*
X113555066Y-65715915D01*
X113555067Y-65715916D01*
X113561521Y-65718416D01*
X113586806Y-65731744D01*
X113590619Y-65734355D01*
X113592519Y-65735657D01*
X113622710Y-65742757D01*
X113630905Y-65745295D01*
X113659827Y-65756500D01*
X113666752Y-65756500D01*
X113695140Y-65759793D01*
X113701881Y-65761379D01*
X113732591Y-65757094D01*
X113741166Y-65756500D01*
X119671923Y-65756500D01*
X119738962Y-65776185D01*
X119773972Y-65810059D01*
X119829517Y-65890530D01*
X119947760Y-65995283D01*
X119947762Y-65995284D01*
X120087634Y-66068696D01*
X120241014Y-66106500D01*
X120241015Y-66106500D01*
X120398985Y-66106500D01*
X120552365Y-66068696D01*
X120692240Y-65995283D01*
X120810483Y-65890530D01*
X120900220Y-65760523D01*
X120956237Y-65612818D01*
X120975278Y-65456000D01*
X120956237Y-65299182D01*
X120900220Y-65151477D01*
X120810483Y-65021470D01*
X120692240Y-64916717D01*
X120692238Y-64916716D01*
X120692237Y-64916715D01*
X120552365Y-64843303D01*
X120398986Y-64805500D01*
X120398985Y-64805500D01*
X120241015Y-64805500D01*
X120241014Y-64805500D01*
X120087634Y-64843303D01*
X119947762Y-64916715D01*
X119829516Y-65021471D01*
X119773973Y-65101940D01*
X119719690Y-65145930D01*
X119671923Y-65155500D01*
X113891833Y-65155500D01*
X113824794Y-65135815D01*
X113804152Y-65119181D01*
X113163819Y-64478848D01*
X113130334Y-64417525D01*
X113127500Y-64391167D01*
X113127500Y-59868000D01*
X114330722Y-59868000D01*
X114349762Y-60024818D01*
X114404254Y-60168500D01*
X114405780Y-60172523D01*
X114495517Y-60302530D01*
X114613760Y-60407283D01*
X114613762Y-60407284D01*
X114753634Y-60480696D01*
X114907014Y-60518500D01*
X114907015Y-60518500D01*
X115064985Y-60518500D01*
X115218365Y-60480696D01*
X115358240Y-60407283D01*
X115476483Y-60302530D01*
X115532027Y-60222059D01*
X115586310Y-60178070D01*
X115634077Y-60168500D01*
X117893923Y-60168500D01*
X117960962Y-60188185D01*
X117995972Y-60222059D01*
X118051517Y-60302530D01*
X118169760Y-60407283D01*
X118169762Y-60407284D01*
X118309634Y-60480696D01*
X118463014Y-60518500D01*
X118463015Y-60518500D01*
X118620985Y-60518500D01*
X118774365Y-60480696D01*
X118914240Y-60407283D01*
X119032483Y-60302530D01*
X119122220Y-60172523D01*
X119178237Y-60024818D01*
X119197278Y-59868000D01*
X137952722Y-59868000D01*
X137971762Y-60024818D01*
X138026254Y-60168500D01*
X138027780Y-60172523D01*
X138117517Y-60302530D01*
X138235760Y-60407283D01*
X138235762Y-60407284D01*
X138375634Y-60480696D01*
X138529014Y-60518500D01*
X138529015Y-60518500D01*
X138686984Y-60518500D01*
X138686985Y-60518500D01*
X138736647Y-60506259D01*
X138806449Y-60509328D01*
X138854004Y-60538975D01*
X143050081Y-64735053D01*
X143055723Y-64741537D01*
X143063039Y-64751224D01*
X143063040Y-64751225D01*
X143063042Y-64751228D01*
X143086868Y-64772948D01*
X143098364Y-64783429D01*
X143100412Y-64785384D01*
X143114203Y-64799175D01*
X143115663Y-64800175D01*
X143116419Y-64800693D01*
X143123158Y-64806031D01*
X143146063Y-64826913D01*
X143146065Y-64826914D01*
X143146067Y-64826916D01*
X143152523Y-64829417D01*
X143177807Y-64842743D01*
X143183520Y-64846657D01*
X143198214Y-64850112D01*
X143213698Y-64853755D01*
X143221911Y-64856298D01*
X143250826Y-64867500D01*
X143250827Y-64867500D01*
X143257753Y-64867500D01*
X143286141Y-64870793D01*
X143292882Y-64872379D01*
X143323594Y-64868094D01*
X143332168Y-64867500D01*
X147992923Y-64867500D01*
X148059962Y-64887185D01*
X148094972Y-64921059D01*
X148150517Y-65001530D01*
X148268760Y-65106283D01*
X148268762Y-65106284D01*
X148408634Y-65179696D01*
X148562014Y-65217500D01*
X148562015Y-65217500D01*
X148719985Y-65217500D01*
X148873365Y-65179696D01*
X148927135Y-65151475D01*
X149013240Y-65106283D01*
X149131483Y-65001530D01*
X149221220Y-64871523D01*
X149277237Y-64723818D01*
X149296278Y-64567000D01*
X149285575Y-64478848D01*
X149277237Y-64410181D01*
X149255992Y-64354164D01*
X149221220Y-64262477D01*
X149131483Y-64132470D01*
X149013240Y-64027717D01*
X149013238Y-64027716D01*
X149013237Y-64027715D01*
X148873365Y-63954303D01*
X148719986Y-63916500D01*
X148719985Y-63916500D01*
X148562015Y-63916500D01*
X148562014Y-63916500D01*
X148408634Y-63954303D01*
X148268762Y-64027715D01*
X148150516Y-64132471D01*
X148094973Y-64212940D01*
X148040690Y-64256930D01*
X147992923Y-64266500D01*
X143482833Y-64266500D01*
X143415794Y-64246815D01*
X143395152Y-64230181D01*
X140810971Y-61646000D01*
X142524722Y-61646000D01*
X142543762Y-61802818D01*
X142598254Y-61946500D01*
X142599780Y-61950523D01*
X142689517Y-62080530D01*
X142807760Y-62185283D01*
X142807762Y-62185284D01*
X142947634Y-62258696D01*
X143101014Y-62296500D01*
X143101015Y-62296500D01*
X143258985Y-62296500D01*
X143412365Y-62258696D01*
X143552240Y-62185283D01*
X143670483Y-62080530D01*
X143726027Y-62000059D01*
X143780310Y-61956070D01*
X143828077Y-61946500D01*
X149135923Y-61946500D01*
X149202962Y-61966185D01*
X149237972Y-62000059D01*
X149293517Y-62080530D01*
X149411760Y-62185283D01*
X149411762Y-62185284D01*
X149551634Y-62258696D01*
X149705014Y-62296500D01*
X149705015Y-62296500D01*
X149862985Y-62296500D01*
X150016365Y-62258696D01*
X150156240Y-62185283D01*
X150274483Y-62080530D01*
X150364220Y-61950523D01*
X150420237Y-61802818D01*
X150439278Y-61646000D01*
X150420237Y-61489182D01*
X150414736Y-61474678D01*
X150395244Y-61423281D01*
X150364220Y-61341477D01*
X150274483Y-61211470D01*
X150156240Y-61106717D01*
X150156238Y-61106716D01*
X150156237Y-61106715D01*
X150016365Y-61033303D01*
X149862986Y-60995500D01*
X149862985Y-60995500D01*
X149705015Y-60995500D01*
X149705014Y-60995500D01*
X149551634Y-61033303D01*
X149411762Y-61106715D01*
X149293516Y-61211471D01*
X149237973Y-61291940D01*
X149183690Y-61335930D01*
X149135923Y-61345500D01*
X143828077Y-61345500D01*
X143761038Y-61325815D01*
X143726027Y-61291940D01*
X143670483Y-61211470D01*
X143552240Y-61106717D01*
X143552238Y-61106716D01*
X143552237Y-61106715D01*
X143412365Y-61033303D01*
X143258986Y-60995500D01*
X143258985Y-60995500D01*
X143101015Y-60995500D01*
X143101014Y-60995500D01*
X142947634Y-61033303D01*
X142807762Y-61106715D01*
X142689516Y-61211471D01*
X142599781Y-61341475D01*
X142599780Y-61341476D01*
X142543762Y-61489181D01*
X142524722Y-61645999D01*
X142524722Y-61646000D01*
X140810971Y-61646000D01*
X139281034Y-60116063D01*
X139247549Y-60054740D01*
X139245619Y-60013436D01*
X139263278Y-59868000D01*
X139263278Y-59867999D01*
X139244237Y-59711181D01*
X139196419Y-59585096D01*
X139188220Y-59563477D01*
X139098483Y-59433470D01*
X138980240Y-59328717D01*
X138980238Y-59328716D01*
X138980237Y-59328715D01*
X138840365Y-59255303D01*
X138686986Y-59217500D01*
X138686985Y-59217500D01*
X138529015Y-59217500D01*
X138529014Y-59217500D01*
X138375634Y-59255303D01*
X138235762Y-59328715D01*
X138117516Y-59433471D01*
X138027781Y-59563475D01*
X138027780Y-59563476D01*
X137971762Y-59711181D01*
X137952722Y-59867999D01*
X137952722Y-59868000D01*
X119197278Y-59868000D01*
X119178237Y-59711182D01*
X119122220Y-59563477D01*
X119032483Y-59433470D01*
X118914240Y-59328717D01*
X118914238Y-59328716D01*
X118914237Y-59328715D01*
X118774365Y-59255303D01*
X118620986Y-59217500D01*
X118620985Y-59217500D01*
X118463015Y-59217500D01*
X118463014Y-59217500D01*
X118309634Y-59255303D01*
X118169762Y-59328715D01*
X118051516Y-59433471D01*
X117995973Y-59513940D01*
X117941690Y-59557930D01*
X117893923Y-59567500D01*
X115634077Y-59567500D01*
X115567038Y-59547815D01*
X115532027Y-59513940D01*
X115476483Y-59433470D01*
X115358240Y-59328717D01*
X115358238Y-59328716D01*
X115358237Y-59328715D01*
X115218365Y-59255303D01*
X115064986Y-59217500D01*
X115064985Y-59217500D01*
X114907015Y-59217500D01*
X114907014Y-59217500D01*
X114753634Y-59255303D01*
X114613762Y-59328715D01*
X114495516Y-59433471D01*
X114405781Y-59563475D01*
X114405780Y-59563476D01*
X114349762Y-59711181D01*
X114330722Y-59867999D01*
X114330722Y-59868000D01*
X113127500Y-59868000D01*
X113127500Y-59652135D01*
X113147185Y-59585096D01*
X113169275Y-59559318D01*
X113170842Y-59557930D01*
X113190483Y-59540530D01*
X113280220Y-59410523D01*
X113336237Y-59262818D01*
X113355278Y-59106000D01*
X113336237Y-58949182D01*
X113280220Y-58801477D01*
X113190483Y-58671470D01*
X113072240Y-58566717D01*
X113072238Y-58566716D01*
X113072237Y-58566715D01*
X112932365Y-58493303D01*
X112778986Y-58455500D01*
X112778985Y-58455500D01*
X112621015Y-58455500D01*
X112621014Y-58455500D01*
X112467634Y-58493303D01*
X112327762Y-58566715D01*
X112209516Y-58671471D01*
X112119781Y-58801475D01*
X112119780Y-58801476D01*
X112063762Y-58949181D01*
X112044722Y-59105999D01*
X112044722Y-59106000D01*
X100050500Y-59106000D01*
X100050500Y-49639752D01*
X107319500Y-49639752D01*
X107331131Y-49698229D01*
X107331132Y-49698230D01*
X107375447Y-49764552D01*
X107441769Y-49808867D01*
X107441770Y-49808868D01*
X107500247Y-49820499D01*
X107500250Y-49820500D01*
X107500252Y-49820500D01*
X109239750Y-49820500D01*
X109239751Y-49820499D01*
X109254568Y-49817552D01*
X109298229Y-49808868D01*
X109298229Y-49808867D01*
X109298231Y-49808867D01*
X109364552Y-49764552D01*
X109408867Y-49698231D01*
X109408867Y-49698229D01*
X109408868Y-49698229D01*
X109420499Y-49639752D01*
X109420500Y-49639750D01*
X109420500Y-48770000D01*
X109854417Y-48770000D01*
X109874699Y-48975932D01*
X109874700Y-48975934D01*
X109934768Y-49173954D01*
X110032315Y-49356450D01*
X110032317Y-49356452D01*
X110163589Y-49516410D01*
X110211320Y-49555581D01*
X110323550Y-49647685D01*
X110506046Y-49745232D01*
X110704066Y-49805300D01*
X110704065Y-49805300D01*
X110722529Y-49807118D01*
X110910000Y-49825583D01*
X111115934Y-49805300D01*
X111313954Y-49745232D01*
X111496450Y-49647685D01*
X111656410Y-49516410D01*
X111787685Y-49356450D01*
X111885232Y-49173954D01*
X111945300Y-48975934D01*
X111965583Y-48770000D01*
X112394417Y-48770000D01*
X112414699Y-48975932D01*
X112414700Y-48975934D01*
X112474768Y-49173954D01*
X112572315Y-49356450D01*
X112572317Y-49356452D01*
X112703589Y-49516410D01*
X112751320Y-49555581D01*
X112863550Y-49647685D01*
X113046046Y-49745232D01*
X113244066Y-49805300D01*
X113244065Y-49805300D01*
X113262529Y-49807118D01*
X113450000Y-49825583D01*
X113655934Y-49805300D01*
X113853954Y-49745232D01*
X114036450Y-49647685D01*
X114196410Y-49516410D01*
X114327685Y-49356450D01*
X114425232Y-49173954D01*
X114485300Y-48975934D01*
X114505583Y-48770000D01*
X114934417Y-48770000D01*
X114954699Y-48975932D01*
X114954700Y-48975934D01*
X115014768Y-49173954D01*
X115112315Y-49356450D01*
X115112317Y-49356452D01*
X115243589Y-49516410D01*
X115291320Y-49555581D01*
X115403550Y-49647685D01*
X115586046Y-49745232D01*
X115784066Y-49805300D01*
X115784065Y-49805300D01*
X115802529Y-49807118D01*
X115990000Y-49825583D01*
X116195934Y-49805300D01*
X116393954Y-49745232D01*
X116576450Y-49647685D01*
X116736410Y-49516410D01*
X116867685Y-49356450D01*
X116965232Y-49173954D01*
X117025300Y-48975934D01*
X117045583Y-48770000D01*
X117474417Y-48770000D01*
X117494699Y-48975932D01*
X117494700Y-48975934D01*
X117554768Y-49173954D01*
X117652315Y-49356450D01*
X117652317Y-49356452D01*
X117783589Y-49516410D01*
X117831320Y-49555581D01*
X117943550Y-49647685D01*
X118126046Y-49745232D01*
X118324066Y-49805300D01*
X118324065Y-49805300D01*
X118342529Y-49807118D01*
X118530000Y-49825583D01*
X118735934Y-49805300D01*
X118933954Y-49745232D01*
X119116450Y-49647685D01*
X119276410Y-49516410D01*
X119407685Y-49356450D01*
X119505232Y-49173954D01*
X119565300Y-48975934D01*
X119585583Y-48770000D01*
X120014417Y-48770000D01*
X120034699Y-48975932D01*
X120034700Y-48975934D01*
X120094768Y-49173954D01*
X120192315Y-49356450D01*
X120192317Y-49356452D01*
X120323589Y-49516410D01*
X120371320Y-49555581D01*
X120483550Y-49647685D01*
X120666046Y-49745232D01*
X120864066Y-49805300D01*
X120864065Y-49805300D01*
X120882529Y-49807118D01*
X121070000Y-49825583D01*
X121275934Y-49805300D01*
X121473954Y-49745232D01*
X121656450Y-49647685D01*
X121816410Y-49516410D01*
X121947685Y-49356450D01*
X122045232Y-49173954D01*
X122105300Y-48975934D01*
X122125583Y-48770000D01*
X122554417Y-48770000D01*
X122574699Y-48975932D01*
X122574700Y-48975934D01*
X122634768Y-49173954D01*
X122732315Y-49356450D01*
X122732317Y-49356452D01*
X122863589Y-49516410D01*
X122911320Y-49555581D01*
X123023550Y-49647685D01*
X123206046Y-49745232D01*
X123404066Y-49805300D01*
X123404065Y-49805300D01*
X123422529Y-49807118D01*
X123610000Y-49825583D01*
X123815934Y-49805300D01*
X124013954Y-49745232D01*
X124196450Y-49647685D01*
X124356410Y-49516410D01*
X124487685Y-49356450D01*
X124585232Y-49173954D01*
X124645300Y-48975934D01*
X124665583Y-48770000D01*
X125094417Y-48770000D01*
X125114699Y-48975932D01*
X125114700Y-48975934D01*
X125174768Y-49173954D01*
X125272315Y-49356450D01*
X125272317Y-49356452D01*
X125403589Y-49516410D01*
X125451320Y-49555581D01*
X125563550Y-49647685D01*
X125746046Y-49745232D01*
X125761496Y-49749918D01*
X125819932Y-49788212D01*
X125848390Y-49852024D01*
X125849500Y-49868578D01*
X125849500Y-54289302D01*
X125829815Y-54356341D01*
X125777011Y-54402096D01*
X125755175Y-54409699D01*
X125675633Y-54429304D01*
X125535762Y-54502715D01*
X125417516Y-54607471D01*
X125327781Y-54737475D01*
X125327780Y-54737476D01*
X125271762Y-54885181D01*
X125252722Y-55041999D01*
X125252722Y-55042000D01*
X125271762Y-55198818D01*
X125327780Y-55346523D01*
X125417517Y-55476530D01*
X125535760Y-55581283D01*
X125535762Y-55581284D01*
X125675634Y-55654696D01*
X125829014Y-55692500D01*
X125829015Y-55692500D01*
X125986985Y-55692500D01*
X126140365Y-55654696D01*
X126280240Y-55581283D01*
X126398483Y-55476530D01*
X126488220Y-55346523D01*
X126544237Y-55198818D01*
X126563278Y-55042000D01*
X126544237Y-54885182D01*
X126488220Y-54737477D01*
X126482702Y-54729482D01*
X126472448Y-54714626D01*
X126450567Y-54648270D01*
X126450500Y-54644189D01*
X126450500Y-52248000D01*
X129316722Y-52248000D01*
X129335762Y-52404818D01*
X129353458Y-52451477D01*
X129391780Y-52552523D01*
X129481517Y-52682530D01*
X129599760Y-52787283D01*
X129599762Y-52787284D01*
X129739634Y-52860696D01*
X129893014Y-52898500D01*
X129893015Y-52898500D01*
X130050985Y-52898500D01*
X130204365Y-52860696D01*
X130344240Y-52787283D01*
X130462483Y-52682530D01*
X130552220Y-52552523D01*
X130608237Y-52404818D01*
X130627278Y-52248000D01*
X130623480Y-52216716D01*
X130608237Y-52091181D01*
X130586992Y-52035164D01*
X130552220Y-51943477D01*
X130462483Y-51813470D01*
X130344240Y-51708717D01*
X130338869Y-51705898D01*
X130288659Y-51657311D01*
X130272500Y-51596104D01*
X130272500Y-50203833D01*
X130292185Y-50136794D01*
X130308819Y-50116152D01*
X130486080Y-49938891D01*
X130665674Y-49759296D01*
X130726995Y-49725813D01*
X130796686Y-49730797D01*
X130811806Y-49737620D01*
X130826046Y-49745232D01*
X131024066Y-49805300D01*
X131024065Y-49805300D01*
X131042529Y-49807118D01*
X131230000Y-49825583D01*
X131435934Y-49805300D01*
X131633954Y-49745232D01*
X131816450Y-49647685D01*
X131976410Y-49516410D01*
X132107685Y-49356450D01*
X132205232Y-49173954D01*
X132265300Y-48975934D01*
X132285583Y-48770000D01*
X132714417Y-48770000D01*
X132734699Y-48975932D01*
X132734700Y-48975934D01*
X132794768Y-49173954D01*
X132892315Y-49356450D01*
X132892317Y-49356452D01*
X133023589Y-49516410D01*
X133071320Y-49555581D01*
X133183550Y-49647685D01*
X133366046Y-49745232D01*
X133564066Y-49805300D01*
X133564065Y-49805300D01*
X133582529Y-49807118D01*
X133770000Y-49825583D01*
X133975934Y-49805300D01*
X134173954Y-49745232D01*
X134356450Y-49647685D01*
X134516410Y-49516410D01*
X134647685Y-49356450D01*
X134745232Y-49173954D01*
X134805300Y-48975934D01*
X134825583Y-48770000D01*
X135254417Y-48770000D01*
X135274699Y-48975932D01*
X135274700Y-48975934D01*
X135334768Y-49173954D01*
X135432315Y-49356450D01*
X135432317Y-49356452D01*
X135563589Y-49516410D01*
X135611320Y-49555581D01*
X135723550Y-49647685D01*
X135906046Y-49745232D01*
X136104066Y-49805300D01*
X136104065Y-49805300D01*
X136122529Y-49807118D01*
X136310000Y-49825583D01*
X136515934Y-49805300D01*
X136713954Y-49745232D01*
X136896450Y-49647685D01*
X137056410Y-49516410D01*
X137056662Y-49516103D01*
X137071646Y-49497845D01*
X137129392Y-49458510D01*
X137199236Y-49456639D01*
X137259005Y-49492826D01*
X137289721Y-49555581D01*
X137291500Y-49576509D01*
X137291500Y-52508344D01*
X137271815Y-52575383D01*
X137219011Y-52621138D01*
X137197176Y-52628741D01*
X137105632Y-52651304D01*
X136965762Y-52724715D01*
X136847516Y-52829471D01*
X136757781Y-52959475D01*
X136757780Y-52959476D01*
X136701762Y-53107181D01*
X136682722Y-53263999D01*
X136682722Y-53264000D01*
X136701762Y-53420818D01*
X136757780Y-53568523D01*
X136847517Y-53698530D01*
X136965760Y-53803283D01*
X136965762Y-53803284D01*
X137105634Y-53876696D01*
X137259014Y-53914500D01*
X137259015Y-53914500D01*
X137416985Y-53914500D01*
X137570365Y-53876696D01*
X137710240Y-53803283D01*
X137828483Y-53698530D01*
X137918220Y-53568523D01*
X137974237Y-53420818D01*
X137993278Y-53264000D01*
X137974237Y-53107182D01*
X137918220Y-52959477D01*
X137914450Y-52954015D01*
X137892567Y-52887660D01*
X137892500Y-52883575D01*
X137892500Y-49604683D01*
X137912185Y-49537644D01*
X137964989Y-49491889D01*
X138034147Y-49481945D01*
X138097703Y-49510970D01*
X138103216Y-49516103D01*
X138103589Y-49516409D01*
X138103590Y-49516410D01*
X138263550Y-49647685D01*
X138446046Y-49745232D01*
X138644066Y-49805300D01*
X138644065Y-49805300D01*
X138662529Y-49807118D01*
X138850000Y-49825583D01*
X139055934Y-49805300D01*
X139253954Y-49745232D01*
X139436450Y-49647685D01*
X139596410Y-49516410D01*
X139596662Y-49516103D01*
X139611646Y-49497845D01*
X139669392Y-49458510D01*
X139739236Y-49456639D01*
X139799005Y-49492826D01*
X139829721Y-49555581D01*
X139831500Y-49576509D01*
X139831500Y-52104104D01*
X139811815Y-52171143D01*
X139765131Y-52213898D01*
X139759761Y-52216716D01*
X139759760Y-52216717D01*
X139641516Y-52321471D01*
X139551781Y-52451475D01*
X139551780Y-52451476D01*
X139495762Y-52599181D01*
X139476722Y-52755999D01*
X139476722Y-52756000D01*
X139495762Y-52912818D01*
X139513458Y-52959477D01*
X139551780Y-53060523D01*
X139641517Y-53190530D01*
X139759760Y-53295283D01*
X139759762Y-53295284D01*
X139899634Y-53368696D01*
X140053014Y-53406500D01*
X140053015Y-53406500D01*
X140210985Y-53406500D01*
X140364365Y-53368696D01*
X140504240Y-53295283D01*
X140622483Y-53190530D01*
X140712220Y-53060523D01*
X140768237Y-52912818D01*
X140787278Y-52756000D01*
X140768237Y-52599182D01*
X140712220Y-52451477D01*
X140622483Y-52321470D01*
X140504240Y-52216717D01*
X140498869Y-52213898D01*
X140448659Y-52165311D01*
X140432500Y-52104104D01*
X140432500Y-49604683D01*
X140452185Y-49537644D01*
X140504989Y-49491889D01*
X140574147Y-49481945D01*
X140637703Y-49510970D01*
X140643216Y-49516103D01*
X140643589Y-49516409D01*
X140643590Y-49516410D01*
X140803550Y-49647685D01*
X140986046Y-49745232D01*
X141184066Y-49805300D01*
X141184065Y-49805300D01*
X141202529Y-49807118D01*
X141390000Y-49825583D01*
X141595934Y-49805300D01*
X141793954Y-49745232D01*
X141976450Y-49647685D01*
X142136410Y-49516410D01*
X142267685Y-49356450D01*
X142365232Y-49173954D01*
X142425300Y-48975934D01*
X142445583Y-48770000D01*
X142874417Y-48770000D01*
X142894699Y-48975932D01*
X142894700Y-48975934D01*
X142954768Y-49173954D01*
X143052315Y-49356450D01*
X143052317Y-49356452D01*
X143183589Y-49516410D01*
X143231320Y-49555581D01*
X143343550Y-49647685D01*
X143526046Y-49745232D01*
X143724066Y-49805300D01*
X143724065Y-49805300D01*
X143742529Y-49807118D01*
X143930000Y-49825583D01*
X144135934Y-49805300D01*
X144333954Y-49745232D01*
X144516450Y-49647685D01*
X144676410Y-49516410D01*
X144807685Y-49356450D01*
X144905232Y-49173954D01*
X144965300Y-48975934D01*
X144985583Y-48770000D01*
X145414417Y-48770000D01*
X145434699Y-48975932D01*
X145434700Y-48975934D01*
X145494768Y-49173954D01*
X145592315Y-49356450D01*
X145592317Y-49356452D01*
X145723589Y-49516410D01*
X145771320Y-49555581D01*
X145883550Y-49647685D01*
X146066046Y-49745232D01*
X146264066Y-49805300D01*
X146264065Y-49805300D01*
X146282529Y-49807118D01*
X146470000Y-49825583D01*
X146675934Y-49805300D01*
X146873954Y-49745232D01*
X147056450Y-49647685D01*
X147216410Y-49516410D01*
X147347685Y-49356450D01*
X147445232Y-49173954D01*
X147505300Y-48975934D01*
X147525583Y-48770000D01*
X147954417Y-48770000D01*
X147974699Y-48975932D01*
X147974700Y-48975934D01*
X148034768Y-49173954D01*
X148132315Y-49356450D01*
X148132317Y-49356452D01*
X148263589Y-49516410D01*
X148311320Y-49555581D01*
X148423550Y-49647685D01*
X148606046Y-49745232D01*
X148804066Y-49805300D01*
X148804065Y-49805300D01*
X148822529Y-49807118D01*
X149010000Y-49825583D01*
X149215934Y-49805300D01*
X149413954Y-49745232D01*
X149596450Y-49647685D01*
X149756410Y-49516410D01*
X149887685Y-49356450D01*
X149985232Y-49173954D01*
X150045300Y-48975934D01*
X150065583Y-48770000D01*
X150494417Y-48770000D01*
X150514699Y-48975932D01*
X150514700Y-48975934D01*
X150574768Y-49173954D01*
X150672315Y-49356450D01*
X150672317Y-49356452D01*
X150803589Y-49516410D01*
X150851320Y-49555581D01*
X150963550Y-49647685D01*
X151146046Y-49745232D01*
X151344066Y-49805300D01*
X151344065Y-49805300D01*
X151362529Y-49807118D01*
X151550000Y-49825583D01*
X151755934Y-49805300D01*
X151953954Y-49745232D01*
X152136450Y-49647685D01*
X152296410Y-49516410D01*
X152427685Y-49356450D01*
X152525232Y-49173954D01*
X152585300Y-48975934D01*
X152605583Y-48770000D01*
X153034417Y-48770000D01*
X153054699Y-48975932D01*
X153054700Y-48975934D01*
X153114768Y-49173954D01*
X153212315Y-49356450D01*
X153212317Y-49356452D01*
X153343589Y-49516410D01*
X153391320Y-49555581D01*
X153503550Y-49647685D01*
X153686046Y-49745232D01*
X153884066Y-49805300D01*
X153884065Y-49805300D01*
X153902529Y-49807118D01*
X154090000Y-49825583D01*
X154295934Y-49805300D01*
X154493954Y-49745232D01*
X154676450Y-49647685D01*
X154836410Y-49516410D01*
X154967685Y-49356450D01*
X155065232Y-49173954D01*
X155125300Y-48975934D01*
X155125884Y-48970000D01*
X155392723Y-48970000D01*
X155394288Y-48987887D01*
X155394288Y-48987891D01*
X155450894Y-49199150D01*
X155450898Y-49199159D01*
X155543333Y-49397387D01*
X155668787Y-49576554D01*
X155823445Y-49731212D01*
X156002612Y-49856666D01*
X156200840Y-49949101D01*
X156200849Y-49949105D01*
X156412110Y-50005711D01*
X156430000Y-50007276D01*
X156430000Y-49228335D01*
X156487685Y-49254680D01*
X156594237Y-49270000D01*
X156665763Y-49270000D01*
X156772315Y-49254680D01*
X156830000Y-49228335D01*
X156830000Y-50007276D01*
X156847887Y-50005711D01*
X156847891Y-50005711D01*
X157059150Y-49949105D01*
X157059159Y-49949101D01*
X157257387Y-49856666D01*
X157436554Y-49731212D01*
X157591212Y-49576554D01*
X157716666Y-49397387D01*
X157809101Y-49199159D01*
X157809105Y-49199150D01*
X157865711Y-48987891D01*
X157865711Y-48987887D01*
X157867277Y-48970000D01*
X157092383Y-48970000D01*
X157130000Y-48841889D01*
X157130000Y-48698111D01*
X157092383Y-48570000D01*
X157867276Y-48570000D01*
X157865711Y-48552112D01*
X157865711Y-48552108D01*
X157809105Y-48340849D01*
X157809101Y-48340840D01*
X157716666Y-48142612D01*
X157716664Y-48142608D01*
X157591216Y-47963450D01*
X157591211Y-47963444D01*
X157436554Y-47808787D01*
X157257387Y-47683333D01*
X157059159Y-47590898D01*
X157059150Y-47590894D01*
X156847889Y-47534288D01*
X156830000Y-47532722D01*
X156830000Y-48311664D01*
X156772315Y-48285320D01*
X156665763Y-48270000D01*
X156594237Y-48270000D01*
X156487685Y-48285320D01*
X156430000Y-48311664D01*
X156430000Y-47532722D01*
X156412110Y-47534288D01*
X156200849Y-47590894D01*
X156200840Y-47590898D01*
X156002612Y-47683333D01*
X156002608Y-47683335D01*
X155823450Y-47808783D01*
X155823444Y-47808788D01*
X155668788Y-47963444D01*
X155668783Y-47963450D01*
X155543335Y-48142608D01*
X155543333Y-48142612D01*
X155450898Y-48340840D01*
X155450894Y-48340849D01*
X155394288Y-48552108D01*
X155394288Y-48552112D01*
X155392723Y-48570000D01*
X156167617Y-48570000D01*
X156130000Y-48698111D01*
X156130000Y-48841889D01*
X156167617Y-48970000D01*
X155392723Y-48970000D01*
X155125884Y-48970000D01*
X155145583Y-48770000D01*
X155125300Y-48564066D01*
X155065232Y-48366046D01*
X154967685Y-48183550D01*
X154915702Y-48120209D01*
X154836410Y-48023589D01*
X154686121Y-47900252D01*
X154676450Y-47892315D01*
X154493954Y-47794768D01*
X154295934Y-47734700D01*
X154295932Y-47734699D01*
X154295934Y-47734699D01*
X154090000Y-47714417D01*
X153884067Y-47734699D01*
X153686043Y-47794769D01*
X153598114Y-47841769D01*
X153503550Y-47892315D01*
X153503548Y-47892316D01*
X153503547Y-47892317D01*
X153343589Y-48023589D01*
X153212317Y-48183547D01*
X153114769Y-48366043D01*
X153054699Y-48564067D01*
X153034417Y-48770000D01*
X152605583Y-48770000D01*
X152585300Y-48564066D01*
X152525232Y-48366046D01*
X152427685Y-48183550D01*
X152375702Y-48120209D01*
X152296410Y-48023589D01*
X152146121Y-47900252D01*
X152136450Y-47892315D01*
X151953954Y-47794768D01*
X151755934Y-47734700D01*
X151755932Y-47734699D01*
X151755934Y-47734699D01*
X151550000Y-47714417D01*
X151344067Y-47734699D01*
X151146043Y-47794769D01*
X151058114Y-47841769D01*
X150963550Y-47892315D01*
X150963548Y-47892316D01*
X150963547Y-47892317D01*
X150803589Y-48023589D01*
X150672317Y-48183547D01*
X150574769Y-48366043D01*
X150514699Y-48564067D01*
X150494417Y-48770000D01*
X150065583Y-48770000D01*
X150045300Y-48564066D01*
X149985232Y-48366046D01*
X149887685Y-48183550D01*
X149835702Y-48120209D01*
X149756410Y-48023589D01*
X149606121Y-47900252D01*
X149596450Y-47892315D01*
X149413954Y-47794768D01*
X149215934Y-47734700D01*
X149215932Y-47734699D01*
X149215934Y-47734699D01*
X149010000Y-47714417D01*
X148804067Y-47734699D01*
X148606043Y-47794769D01*
X148518114Y-47841769D01*
X148423550Y-47892315D01*
X148423548Y-47892316D01*
X148423547Y-47892317D01*
X148263589Y-48023589D01*
X148132317Y-48183547D01*
X148034769Y-48366043D01*
X147974699Y-48564067D01*
X147954417Y-48770000D01*
X147525583Y-48770000D01*
X147505300Y-48564066D01*
X147445232Y-48366046D01*
X147347685Y-48183550D01*
X147295702Y-48120209D01*
X147216410Y-48023589D01*
X147066121Y-47900252D01*
X147056450Y-47892315D01*
X146873954Y-47794768D01*
X146675934Y-47734700D01*
X146675932Y-47734699D01*
X146675934Y-47734699D01*
X146470000Y-47714417D01*
X146264067Y-47734699D01*
X146066043Y-47794769D01*
X145978114Y-47841769D01*
X145883550Y-47892315D01*
X145883548Y-47892316D01*
X145883547Y-47892317D01*
X145723589Y-48023589D01*
X145592317Y-48183547D01*
X145494769Y-48366043D01*
X145434699Y-48564067D01*
X145414417Y-48770000D01*
X144985583Y-48770000D01*
X144965300Y-48564066D01*
X144905232Y-48366046D01*
X144807685Y-48183550D01*
X144755702Y-48120209D01*
X144676410Y-48023589D01*
X144526121Y-47900252D01*
X144516450Y-47892315D01*
X144333954Y-47794768D01*
X144135934Y-47734700D01*
X144135932Y-47734699D01*
X144135934Y-47734699D01*
X143930000Y-47714417D01*
X143724067Y-47734699D01*
X143526043Y-47794769D01*
X143438114Y-47841769D01*
X143343550Y-47892315D01*
X143343548Y-47892316D01*
X143343547Y-47892317D01*
X143183589Y-48023589D01*
X143052317Y-48183547D01*
X142954769Y-48366043D01*
X142894699Y-48564067D01*
X142874417Y-48770000D01*
X142445583Y-48770000D01*
X142425300Y-48564066D01*
X142365232Y-48366046D01*
X142267685Y-48183550D01*
X142215702Y-48120209D01*
X142136410Y-48023589D01*
X141986121Y-47900252D01*
X141976450Y-47892315D01*
X141793954Y-47794768D01*
X141595934Y-47734700D01*
X141595932Y-47734699D01*
X141595934Y-47734699D01*
X141390000Y-47714417D01*
X141184067Y-47734699D01*
X140986043Y-47794769D01*
X140898114Y-47841769D01*
X140803550Y-47892315D01*
X140803548Y-47892316D01*
X140803547Y-47892317D01*
X140638880Y-48027455D01*
X140637994Y-48026376D01*
X140582858Y-48056483D01*
X140513166Y-48051499D01*
X140457233Y-48009627D01*
X140432816Y-47944163D01*
X140432500Y-47935317D01*
X140432500Y-47064683D01*
X140452185Y-46997644D01*
X140504989Y-46951889D01*
X140574147Y-46941945D01*
X140637703Y-46970970D01*
X140643216Y-46976103D01*
X140643589Y-46976409D01*
X140643590Y-46976410D01*
X140803550Y-47107685D01*
X140986046Y-47205232D01*
X141184066Y-47265300D01*
X141184065Y-47265300D01*
X141202529Y-47267118D01*
X141390000Y-47285583D01*
X141595934Y-47265300D01*
X141793954Y-47205232D01*
X141976450Y-47107685D01*
X142136410Y-46976410D01*
X142267685Y-46816450D01*
X142365232Y-46633954D01*
X142425300Y-46435934D01*
X142445583Y-46230000D01*
X142874417Y-46230000D01*
X142894699Y-46435932D01*
X142894700Y-46435934D01*
X142954768Y-46633954D01*
X143052315Y-46816450D01*
X143052317Y-46816452D01*
X143183589Y-46976410D01*
X143231320Y-47015581D01*
X143343550Y-47107685D01*
X143526046Y-47205232D01*
X143724066Y-47265300D01*
X143724065Y-47265300D01*
X143742529Y-47267118D01*
X143930000Y-47285583D01*
X144135934Y-47265300D01*
X144333954Y-47205232D01*
X144516450Y-47107685D01*
X144676410Y-46976410D01*
X144807685Y-46816450D01*
X144905232Y-46633954D01*
X144965300Y-46435934D01*
X144985583Y-46230000D01*
X145414417Y-46230000D01*
X145434699Y-46435932D01*
X145434700Y-46435934D01*
X145494768Y-46633954D01*
X145592315Y-46816450D01*
X145592317Y-46816452D01*
X145723589Y-46976410D01*
X145771320Y-47015581D01*
X145883550Y-47107685D01*
X146066046Y-47205232D01*
X146264066Y-47265300D01*
X146264065Y-47265300D01*
X146282529Y-47267118D01*
X146470000Y-47285583D01*
X146675934Y-47265300D01*
X146873954Y-47205232D01*
X147056450Y-47107685D01*
X147216410Y-46976410D01*
X147347685Y-46816450D01*
X147445232Y-46633954D01*
X147505300Y-46435934D01*
X147505884Y-46430000D01*
X147772723Y-46430000D01*
X147774288Y-46447887D01*
X147774288Y-46447891D01*
X147830894Y-46659150D01*
X147830898Y-46659159D01*
X147923333Y-46857387D01*
X148048787Y-47036554D01*
X148203445Y-47191212D01*
X148382612Y-47316666D01*
X148580840Y-47409101D01*
X148580849Y-47409105D01*
X148792110Y-47465711D01*
X148810000Y-47467276D01*
X148810000Y-46688335D01*
X148867685Y-46714680D01*
X148974237Y-46730000D01*
X149045763Y-46730000D01*
X149152315Y-46714680D01*
X149210000Y-46688335D01*
X149210000Y-47467276D01*
X149227887Y-47465711D01*
X149227891Y-47465711D01*
X149439150Y-47409105D01*
X149439159Y-47409101D01*
X149637387Y-47316666D01*
X149816554Y-47191212D01*
X149971212Y-47036554D01*
X150096666Y-46857387D01*
X150189101Y-46659159D01*
X150189105Y-46659150D01*
X150245711Y-46447891D01*
X150245711Y-46447887D01*
X150247277Y-46430000D01*
X149472383Y-46430000D01*
X149510000Y-46301889D01*
X149510000Y-46230000D01*
X150494417Y-46230000D01*
X150514699Y-46435932D01*
X150514700Y-46435934D01*
X150574768Y-46633954D01*
X150672315Y-46816450D01*
X150672317Y-46816452D01*
X150803589Y-46976410D01*
X150851320Y-47015581D01*
X150963550Y-47107685D01*
X151146046Y-47205232D01*
X151344066Y-47265300D01*
X151344065Y-47265300D01*
X151362529Y-47267118D01*
X151550000Y-47285583D01*
X151755934Y-47265300D01*
X151953954Y-47205232D01*
X152136450Y-47107685D01*
X152296410Y-46976410D01*
X152427685Y-46816450D01*
X152525232Y-46633954D01*
X152585300Y-46435934D01*
X152605583Y-46230000D01*
X153034417Y-46230000D01*
X153054699Y-46435932D01*
X153054700Y-46435934D01*
X153114768Y-46633954D01*
X153212315Y-46816450D01*
X153212317Y-46816452D01*
X153343589Y-46976410D01*
X153391320Y-47015581D01*
X153503550Y-47107685D01*
X153686046Y-47205232D01*
X153884066Y-47265300D01*
X153884065Y-47265300D01*
X153902529Y-47267118D01*
X154090000Y-47285583D01*
X154295934Y-47265300D01*
X154493954Y-47205232D01*
X154676450Y-47107685D01*
X154836410Y-46976410D01*
X154967685Y-46816450D01*
X155065232Y-46633954D01*
X155125300Y-46435934D01*
X155145583Y-46230000D01*
X155574417Y-46230000D01*
X155594699Y-46435932D01*
X155594700Y-46435934D01*
X155654768Y-46633954D01*
X155752315Y-46816450D01*
X155752317Y-46816452D01*
X155883589Y-46976410D01*
X155931320Y-47015581D01*
X156043550Y-47107685D01*
X156226046Y-47205232D01*
X156424066Y-47265300D01*
X156424065Y-47265300D01*
X156442529Y-47267118D01*
X156630000Y-47285583D01*
X156835934Y-47265300D01*
X157033954Y-47205232D01*
X157216450Y-47107685D01*
X157376410Y-46976410D01*
X157507685Y-46816450D01*
X157605232Y-46633954D01*
X157665300Y-46435934D01*
X157685583Y-46230000D01*
X157665300Y-46024066D01*
X157605232Y-45826046D01*
X157507685Y-45643550D01*
X157446979Y-45569579D01*
X157376410Y-45483589D01*
X157216452Y-45352317D01*
X157216453Y-45352317D01*
X157216450Y-45352315D01*
X157046554Y-45261502D01*
X157033956Y-45254769D01*
X157033955Y-45254768D01*
X157033954Y-45254768D01*
X156835934Y-45194700D01*
X156835932Y-45194699D01*
X156835934Y-45194699D01*
X156630000Y-45174417D01*
X156424067Y-45194699D01*
X156226043Y-45254769D01*
X156115898Y-45313643D01*
X156043550Y-45352315D01*
X156043548Y-45352316D01*
X156043547Y-45352317D01*
X155883589Y-45483589D01*
X155757636Y-45637066D01*
X155752315Y-45643550D01*
X155729499Y-45686236D01*
X155654769Y-45826043D01*
X155594699Y-46024067D01*
X155574417Y-46230000D01*
X155145583Y-46230000D01*
X155125300Y-46024066D01*
X155065232Y-45826046D01*
X154967685Y-45643550D01*
X154906979Y-45569579D01*
X154836410Y-45483589D01*
X154676452Y-45352317D01*
X154676453Y-45352317D01*
X154676450Y-45352315D01*
X154506554Y-45261502D01*
X154493956Y-45254769D01*
X154493955Y-45254768D01*
X154493954Y-45254768D01*
X154295934Y-45194700D01*
X154295932Y-45194699D01*
X154295934Y-45194699D01*
X154090000Y-45174417D01*
X153884067Y-45194699D01*
X153686043Y-45254769D01*
X153575898Y-45313643D01*
X153503550Y-45352315D01*
X153503548Y-45352316D01*
X153503547Y-45352317D01*
X153343589Y-45483589D01*
X153217636Y-45637066D01*
X153212315Y-45643550D01*
X153189499Y-45686236D01*
X153114769Y-45826043D01*
X153054699Y-46024067D01*
X153034417Y-46230000D01*
X152605583Y-46230000D01*
X152585300Y-46024066D01*
X152525232Y-45826046D01*
X152427685Y-45643550D01*
X152366979Y-45569579D01*
X152296410Y-45483589D01*
X152136452Y-45352317D01*
X152136453Y-45352317D01*
X152136450Y-45352315D01*
X151966554Y-45261502D01*
X151953956Y-45254769D01*
X151953955Y-45254768D01*
X151953954Y-45254768D01*
X151755934Y-45194700D01*
X151755932Y-45194699D01*
X151755934Y-45194699D01*
X151550000Y-45174417D01*
X151344067Y-45194699D01*
X151146043Y-45254769D01*
X151035898Y-45313643D01*
X150963550Y-45352315D01*
X150963548Y-45352316D01*
X150963547Y-45352317D01*
X150803589Y-45483589D01*
X150677636Y-45637066D01*
X150672315Y-45643550D01*
X150649499Y-45686236D01*
X150574769Y-45826043D01*
X150514699Y-46024067D01*
X150494417Y-46230000D01*
X149510000Y-46230000D01*
X149510000Y-46158111D01*
X149472383Y-46030000D01*
X150247276Y-46030000D01*
X150245711Y-46012112D01*
X150245711Y-46012108D01*
X150189105Y-45800849D01*
X150189101Y-45800840D01*
X150096666Y-45602612D01*
X150096664Y-45602608D01*
X149971216Y-45423450D01*
X149971211Y-45423444D01*
X149816554Y-45268787D01*
X149637387Y-45143333D01*
X149439159Y-45050898D01*
X149439150Y-45050894D01*
X149227889Y-44994288D01*
X149210000Y-44992722D01*
X149210000Y-45771664D01*
X149152315Y-45745320D01*
X149045763Y-45730000D01*
X148974237Y-45730000D01*
X148867685Y-45745320D01*
X148810000Y-45771664D01*
X148810000Y-44992722D01*
X148792110Y-44994288D01*
X148580849Y-45050894D01*
X148580840Y-45050898D01*
X148382612Y-45143333D01*
X148382608Y-45143335D01*
X148203450Y-45268783D01*
X148203444Y-45268788D01*
X148048788Y-45423444D01*
X148048783Y-45423450D01*
X147923335Y-45602608D01*
X147923333Y-45602612D01*
X147830898Y-45800840D01*
X147830894Y-45800849D01*
X147774288Y-46012108D01*
X147774288Y-46012112D01*
X147772723Y-46030000D01*
X148547617Y-46030000D01*
X148510000Y-46158111D01*
X148510000Y-46301889D01*
X148547617Y-46430000D01*
X147772723Y-46430000D01*
X147505884Y-46430000D01*
X147525583Y-46230000D01*
X147505300Y-46024066D01*
X147445232Y-45826046D01*
X147347685Y-45643550D01*
X147286979Y-45569579D01*
X147216410Y-45483589D01*
X147056452Y-45352317D01*
X147056453Y-45352317D01*
X147056450Y-45352315D01*
X146886554Y-45261502D01*
X146873956Y-45254769D01*
X146873955Y-45254768D01*
X146873954Y-45254768D01*
X146675934Y-45194700D01*
X146675932Y-45194699D01*
X146675934Y-45194699D01*
X146470000Y-45174417D01*
X146264067Y-45194699D01*
X146066043Y-45254769D01*
X145955898Y-45313643D01*
X145883550Y-45352315D01*
X145883548Y-45352316D01*
X145883547Y-45352317D01*
X145723589Y-45483589D01*
X145597636Y-45637066D01*
X145592315Y-45643550D01*
X145569499Y-45686236D01*
X145494769Y-45826043D01*
X145434699Y-46024067D01*
X145414417Y-46230000D01*
X144985583Y-46230000D01*
X144965300Y-46024066D01*
X144905232Y-45826046D01*
X144807685Y-45643550D01*
X144746979Y-45569579D01*
X144676410Y-45483589D01*
X144516452Y-45352317D01*
X144516453Y-45352317D01*
X144516450Y-45352315D01*
X144346554Y-45261502D01*
X144333956Y-45254769D01*
X144333955Y-45254768D01*
X144333954Y-45254768D01*
X144135934Y-45194700D01*
X144135932Y-45194699D01*
X144135934Y-45194699D01*
X143930000Y-45174417D01*
X143724067Y-45194699D01*
X143526043Y-45254769D01*
X143415898Y-45313643D01*
X143343550Y-45352315D01*
X143343548Y-45352316D01*
X143343547Y-45352317D01*
X143183589Y-45483589D01*
X143057636Y-45637066D01*
X143052315Y-45643550D01*
X143029499Y-45686236D01*
X142954769Y-45826043D01*
X142894699Y-46024067D01*
X142874417Y-46230000D01*
X142445583Y-46230000D01*
X142425300Y-46024066D01*
X142365232Y-45826046D01*
X142267685Y-45643550D01*
X142206979Y-45569579D01*
X142136410Y-45483589D01*
X141976452Y-45352317D01*
X141976453Y-45352317D01*
X141976450Y-45352315D01*
X141806554Y-45261502D01*
X141793956Y-45254769D01*
X141793955Y-45254768D01*
X141793954Y-45254768D01*
X141595934Y-45194700D01*
X141595932Y-45194699D01*
X141595934Y-45194699D01*
X141390000Y-45174417D01*
X141184067Y-45194699D01*
X140986043Y-45254769D01*
X140875898Y-45313643D01*
X140803550Y-45352315D01*
X140803548Y-45352316D01*
X140803547Y-45352317D01*
X140643589Y-45483590D01*
X140606836Y-45528374D01*
X140549090Y-45567708D01*
X140479246Y-45569579D01*
X140419477Y-45533391D01*
X140405551Y-45514978D01*
X140400736Y-45507201D01*
X140396730Y-45499600D01*
X140384207Y-45471237D01*
X140384206Y-45471236D01*
X140384206Y-45471235D01*
X140379309Y-45466338D01*
X140361563Y-45443934D01*
X140357918Y-45438047D01*
X140333172Y-45419360D01*
X140326694Y-45413723D01*
X139626922Y-44713951D01*
X139621278Y-44707465D01*
X139613956Y-44697770D01*
X139578624Y-44665560D01*
X139576573Y-44663602D01*
X139562797Y-44649826D01*
X139560586Y-44648311D01*
X139553853Y-44642978D01*
X139530933Y-44622084D01*
X139524470Y-44619580D01*
X139499192Y-44606256D01*
X139493481Y-44602344D01*
X139493478Y-44602343D01*
X139493479Y-44602343D01*
X139463302Y-44595244D01*
X139455094Y-44592703D01*
X139426173Y-44581500D01*
X139419249Y-44581500D01*
X139390858Y-44578206D01*
X139384119Y-44576621D01*
X139353409Y-44580905D01*
X139344834Y-44581500D01*
X137720842Y-44581500D01*
X137712268Y-44580905D01*
X137700239Y-44579227D01*
X137700236Y-44579227D01*
X137675220Y-44580383D01*
X137652491Y-44581434D01*
X137649628Y-44581500D01*
X137630156Y-44581500D01*
X137630151Y-44581500D01*
X137630149Y-44581501D01*
X137627515Y-44581993D01*
X137618985Y-44582982D01*
X137588008Y-44584415D01*
X137588006Y-44584415D01*
X137581665Y-44587215D01*
X137554379Y-44595664D01*
X137547572Y-44596936D01*
X137547566Y-44596939D01*
X137521202Y-44613261D01*
X137513603Y-44617266D01*
X137485237Y-44629792D01*
X137480336Y-44634693D01*
X137457942Y-44652431D01*
X137452048Y-44656080D01*
X137433359Y-44680827D01*
X137427718Y-44687310D01*
X136874326Y-45240701D01*
X136813003Y-45274186D01*
X136743311Y-45269202D01*
X136728193Y-45262379D01*
X136713956Y-45254769D01*
X136713955Y-45254768D01*
X136713954Y-45254768D01*
X136515934Y-45194700D01*
X136515932Y-45194699D01*
X136515934Y-45194699D01*
X136310000Y-45174417D01*
X136104067Y-45194699D01*
X135906043Y-45254769D01*
X135795898Y-45313643D01*
X135723550Y-45352315D01*
X135723548Y-45352316D01*
X135723547Y-45352317D01*
X135563589Y-45483589D01*
X135437636Y-45637066D01*
X135432315Y-45643550D01*
X135409499Y-45686236D01*
X135334769Y-45826043D01*
X135274699Y-46024067D01*
X135254417Y-46230000D01*
X135274699Y-46435932D01*
X135274700Y-46435934D01*
X135334768Y-46633954D01*
X135432315Y-46816450D01*
X135432317Y-46816452D01*
X135563589Y-46976410D01*
X135611320Y-47015581D01*
X135723550Y-47107685D01*
X135906046Y-47205232D01*
X136104066Y-47265300D01*
X136104065Y-47265300D01*
X136122529Y-47267118D01*
X136310000Y-47285583D01*
X136515934Y-47265300D01*
X136713954Y-47205232D01*
X136896450Y-47107685D01*
X137056410Y-46976410D01*
X137187685Y-46816450D01*
X137285232Y-46633954D01*
X137345300Y-46435934D01*
X137365583Y-46230000D01*
X137345300Y-46024066D01*
X137285232Y-45826046D01*
X137277620Y-45811806D01*
X137263379Y-45743404D01*
X137288379Y-45678160D01*
X137299298Y-45665672D01*
X137508805Y-45456166D01*
X137746152Y-45218819D01*
X137807475Y-45185334D01*
X137833833Y-45182500D01*
X138123913Y-45182500D01*
X138190952Y-45202185D01*
X138236707Y-45254989D01*
X138246651Y-45324147D01*
X138217626Y-45387703D01*
X138202577Y-45402354D01*
X138103589Y-45483589D01*
X137977636Y-45637066D01*
X137972315Y-45643550D01*
X137949499Y-45686236D01*
X137874769Y-45826043D01*
X137814699Y-46024067D01*
X137794417Y-46230000D01*
X137814699Y-46435932D01*
X137874769Y-46633956D01*
X137882379Y-46648193D01*
X137896620Y-46716596D01*
X137871619Y-46781840D01*
X137860701Y-46794326D01*
X137423948Y-47231080D01*
X137417464Y-47236722D01*
X137407768Y-47244044D01*
X137375559Y-47279374D01*
X137373585Y-47281442D01*
X137359827Y-47295200D01*
X137359822Y-47295206D01*
X137358306Y-47297420D01*
X137352976Y-47304148D01*
X137332083Y-47327066D01*
X137332083Y-47327067D01*
X137329578Y-47333533D01*
X137316259Y-47358802D01*
X137312345Y-47364515D01*
X137312343Y-47364521D01*
X137305244Y-47394699D01*
X137302702Y-47402907D01*
X137291500Y-47431826D01*
X137291500Y-47438751D01*
X137288206Y-47467141D01*
X137286621Y-47473877D01*
X137286621Y-47473881D01*
X137290905Y-47504590D01*
X137291500Y-47513166D01*
X137291500Y-47963490D01*
X137271815Y-48030529D01*
X137219011Y-48076284D01*
X137149853Y-48086228D01*
X137086297Y-48057203D01*
X137071648Y-48042156D01*
X137056411Y-48023591D01*
X137039396Y-48009627D01*
X136896450Y-47892315D01*
X136713954Y-47794768D01*
X136515934Y-47734700D01*
X136515932Y-47734699D01*
X136515934Y-47734699D01*
X136310000Y-47714417D01*
X136104067Y-47734699D01*
X135906043Y-47794769D01*
X135818114Y-47841769D01*
X135723550Y-47892315D01*
X135723548Y-47892316D01*
X135723547Y-47892317D01*
X135563589Y-48023589D01*
X135432317Y-48183547D01*
X135334769Y-48366043D01*
X135274699Y-48564067D01*
X135254417Y-48770000D01*
X134825583Y-48770000D01*
X134805300Y-48564066D01*
X134745232Y-48366046D01*
X134647685Y-48183550D01*
X134595702Y-48120209D01*
X134516410Y-48023589D01*
X134366121Y-47900252D01*
X134356450Y-47892315D01*
X134173954Y-47794768D01*
X133975934Y-47734700D01*
X133975932Y-47734699D01*
X133975934Y-47734699D01*
X133770000Y-47714417D01*
X133564067Y-47734699D01*
X133366043Y-47794769D01*
X133278114Y-47841769D01*
X133183550Y-47892315D01*
X133183548Y-47892316D01*
X133183547Y-47892317D01*
X133023589Y-48023589D01*
X132892317Y-48183547D01*
X132794769Y-48366043D01*
X132734699Y-48564067D01*
X132714417Y-48770000D01*
X132285583Y-48770000D01*
X132265300Y-48564066D01*
X132205232Y-48366046D01*
X132107685Y-48183550D01*
X132055702Y-48120209D01*
X131976410Y-48023589D01*
X131826121Y-47900252D01*
X131816450Y-47892315D01*
X131633954Y-47794768D01*
X131435934Y-47734700D01*
X131435932Y-47734699D01*
X131435934Y-47734699D01*
X131230000Y-47714417D01*
X131024067Y-47734699D01*
X130826043Y-47794769D01*
X130738114Y-47841769D01*
X130643550Y-47892315D01*
X130643548Y-47892316D01*
X130643547Y-47892317D01*
X130483589Y-48023589D01*
X130352317Y-48183547D01*
X130254769Y-48366043D01*
X130194699Y-48564067D01*
X130174417Y-48770000D01*
X130194699Y-48975932D01*
X130254769Y-49173956D01*
X130262379Y-49188193D01*
X130276620Y-49256596D01*
X130251619Y-49321840D01*
X130240701Y-49334326D01*
X129803948Y-49771080D01*
X129797464Y-49776722D01*
X129787768Y-49784044D01*
X129755559Y-49819374D01*
X129753585Y-49821442D01*
X129739827Y-49835200D01*
X129739822Y-49835206D01*
X129738306Y-49837420D01*
X129732976Y-49844148D01*
X129712083Y-49867066D01*
X129712083Y-49867067D01*
X129709578Y-49873533D01*
X129696259Y-49898802D01*
X129692345Y-49904515D01*
X129692343Y-49904521D01*
X129685244Y-49934699D01*
X129682702Y-49942907D01*
X129671500Y-49971826D01*
X129671500Y-49978751D01*
X129668206Y-50007141D01*
X129666621Y-50013877D01*
X129666621Y-50013881D01*
X129670905Y-50044590D01*
X129671500Y-50053166D01*
X129671500Y-51596104D01*
X129651815Y-51663143D01*
X129605131Y-51705898D01*
X129599761Y-51708716D01*
X129599760Y-51708717D01*
X129481516Y-51813471D01*
X129391781Y-51943475D01*
X129391780Y-51943476D01*
X129335762Y-52091181D01*
X129316722Y-52247999D01*
X129316722Y-52248000D01*
X126450500Y-52248000D01*
X126450500Y-49868578D01*
X126470185Y-49801539D01*
X126522989Y-49755784D01*
X126538488Y-49749923D01*
X126553954Y-49745232D01*
X126736450Y-49647685D01*
X126896410Y-49516410D01*
X127027685Y-49356450D01*
X127125232Y-49173954D01*
X127185300Y-48975934D01*
X127205583Y-48770000D01*
X127634417Y-48770000D01*
X127654699Y-48975932D01*
X127654700Y-48975934D01*
X127714768Y-49173954D01*
X127812315Y-49356450D01*
X127812317Y-49356452D01*
X127943589Y-49516410D01*
X127991320Y-49555581D01*
X128103550Y-49647685D01*
X128286046Y-49745232D01*
X128484066Y-49805300D01*
X128484065Y-49805300D01*
X128502529Y-49807118D01*
X128690000Y-49825583D01*
X128895934Y-49805300D01*
X129093954Y-49745232D01*
X129276450Y-49647685D01*
X129436410Y-49516410D01*
X129567685Y-49356450D01*
X129665232Y-49173954D01*
X129725300Y-48975934D01*
X129745583Y-48770000D01*
X129725300Y-48564066D01*
X129665232Y-48366046D01*
X129567685Y-48183550D01*
X129515702Y-48120209D01*
X129436410Y-48023589D01*
X129286121Y-47900252D01*
X129276450Y-47892315D01*
X129093954Y-47794768D01*
X128895934Y-47734700D01*
X128895932Y-47734699D01*
X128895934Y-47734699D01*
X128690000Y-47714417D01*
X128484067Y-47734699D01*
X128286043Y-47794769D01*
X128198114Y-47841769D01*
X128103550Y-47892315D01*
X128103548Y-47892316D01*
X128103547Y-47892317D01*
X127943589Y-48023589D01*
X127812317Y-48183547D01*
X127714769Y-48366043D01*
X127654699Y-48564067D01*
X127634417Y-48770000D01*
X127205583Y-48770000D01*
X127185300Y-48564066D01*
X127125232Y-48366046D01*
X127027685Y-48183550D01*
X126975702Y-48120209D01*
X126896410Y-48023589D01*
X126746121Y-47900252D01*
X126736450Y-47892315D01*
X126553954Y-47794768D01*
X126355934Y-47734700D01*
X126355932Y-47734699D01*
X126355934Y-47734699D01*
X126150000Y-47714417D01*
X125944067Y-47734699D01*
X125746043Y-47794769D01*
X125658114Y-47841769D01*
X125563550Y-47892315D01*
X125563548Y-47892316D01*
X125563547Y-47892317D01*
X125403589Y-48023589D01*
X125272317Y-48183547D01*
X125174769Y-48366043D01*
X125114699Y-48564067D01*
X125094417Y-48770000D01*
X124665583Y-48770000D01*
X124645300Y-48564066D01*
X124585232Y-48366046D01*
X124487685Y-48183550D01*
X124435702Y-48120209D01*
X124356410Y-48023589D01*
X124206121Y-47900252D01*
X124196450Y-47892315D01*
X124013954Y-47794768D01*
X123815934Y-47734700D01*
X123815932Y-47734699D01*
X123815934Y-47734699D01*
X123610000Y-47714417D01*
X123404067Y-47734699D01*
X123206043Y-47794769D01*
X123118114Y-47841769D01*
X123023550Y-47892315D01*
X123023548Y-47892316D01*
X123023547Y-47892317D01*
X122863589Y-48023589D01*
X122732317Y-48183547D01*
X122634769Y-48366043D01*
X122574699Y-48564067D01*
X122554417Y-48770000D01*
X122125583Y-48770000D01*
X122105300Y-48564066D01*
X122045232Y-48366046D01*
X121947685Y-48183550D01*
X121895702Y-48120209D01*
X121816410Y-48023589D01*
X121666121Y-47900252D01*
X121656450Y-47892315D01*
X121473954Y-47794768D01*
X121275934Y-47734700D01*
X121275932Y-47734699D01*
X121275934Y-47734699D01*
X121070000Y-47714417D01*
X120864067Y-47734699D01*
X120666043Y-47794769D01*
X120578114Y-47841769D01*
X120483550Y-47892315D01*
X120483548Y-47892316D01*
X120483547Y-47892317D01*
X120323589Y-48023589D01*
X120192317Y-48183547D01*
X120094769Y-48366043D01*
X120034699Y-48564067D01*
X120014417Y-48770000D01*
X119585583Y-48770000D01*
X119565300Y-48564066D01*
X119505232Y-48366046D01*
X119407685Y-48183550D01*
X119355702Y-48120209D01*
X119276410Y-48023589D01*
X119126121Y-47900252D01*
X119116450Y-47892315D01*
X118933954Y-47794768D01*
X118735934Y-47734700D01*
X118735932Y-47734699D01*
X118735934Y-47734699D01*
X118530000Y-47714417D01*
X118324067Y-47734699D01*
X118126043Y-47794769D01*
X118038114Y-47841769D01*
X117943550Y-47892315D01*
X117943548Y-47892316D01*
X117943547Y-47892317D01*
X117783589Y-48023589D01*
X117652317Y-48183547D01*
X117554769Y-48366043D01*
X117494699Y-48564067D01*
X117474417Y-48770000D01*
X117045583Y-48770000D01*
X117025300Y-48564066D01*
X116965232Y-48366046D01*
X116867685Y-48183550D01*
X116815702Y-48120209D01*
X116736410Y-48023589D01*
X116586121Y-47900252D01*
X116576450Y-47892315D01*
X116393954Y-47794768D01*
X116195934Y-47734700D01*
X116195932Y-47734699D01*
X116195934Y-47734699D01*
X115990000Y-47714417D01*
X115784067Y-47734699D01*
X115586043Y-47794769D01*
X115498114Y-47841769D01*
X115403550Y-47892315D01*
X115403548Y-47892316D01*
X115403547Y-47892317D01*
X115243589Y-48023589D01*
X115112317Y-48183547D01*
X115014769Y-48366043D01*
X114954699Y-48564067D01*
X114934417Y-48770000D01*
X114505583Y-48770000D01*
X114485300Y-48564066D01*
X114425232Y-48366046D01*
X114327685Y-48183550D01*
X114275702Y-48120209D01*
X114196410Y-48023589D01*
X114046121Y-47900252D01*
X114036450Y-47892315D01*
X113853954Y-47794768D01*
X113655934Y-47734700D01*
X113655932Y-47734699D01*
X113655934Y-47734699D01*
X113450000Y-47714417D01*
X113244067Y-47734699D01*
X113046043Y-47794769D01*
X112958114Y-47841769D01*
X112863550Y-47892315D01*
X112863548Y-47892316D01*
X112863547Y-47892317D01*
X112703589Y-48023589D01*
X112572317Y-48183547D01*
X112474769Y-48366043D01*
X112414699Y-48564067D01*
X112394417Y-48770000D01*
X111965583Y-48770000D01*
X111945300Y-48564066D01*
X111885232Y-48366046D01*
X111787685Y-48183550D01*
X111735702Y-48120209D01*
X111656410Y-48023589D01*
X111506121Y-47900252D01*
X111496450Y-47892315D01*
X111313954Y-47794768D01*
X111115934Y-47734700D01*
X111115932Y-47734699D01*
X111115934Y-47734699D01*
X110910000Y-47714417D01*
X110704067Y-47734699D01*
X110506043Y-47794769D01*
X110418114Y-47841769D01*
X110323550Y-47892315D01*
X110323548Y-47892316D01*
X110323547Y-47892317D01*
X110163589Y-48023589D01*
X110032317Y-48183547D01*
X109934769Y-48366043D01*
X109874699Y-48564067D01*
X109854417Y-48770000D01*
X109420500Y-48770000D01*
X109420500Y-47900249D01*
X109420499Y-47900247D01*
X109408868Y-47841770D01*
X109408867Y-47841769D01*
X109364552Y-47775447D01*
X109298230Y-47731132D01*
X109298229Y-47731131D01*
X109239752Y-47719500D01*
X109239748Y-47719500D01*
X107500252Y-47719500D01*
X107500247Y-47719500D01*
X107441770Y-47731131D01*
X107441769Y-47731132D01*
X107375447Y-47775447D01*
X107331132Y-47841769D01*
X107331131Y-47841770D01*
X107319500Y-47900247D01*
X107319500Y-49639752D01*
X100050500Y-49639752D01*
X100050500Y-47001741D01*
X100050598Y-46998264D01*
X100060808Y-46816450D01*
X100068851Y-46673227D01*
X100069627Y-46666340D01*
X100123866Y-46347111D01*
X100125414Y-46340328D01*
X100157199Y-46230000D01*
X107314417Y-46230000D01*
X107334699Y-46435932D01*
X107334700Y-46435934D01*
X107394768Y-46633954D01*
X107492315Y-46816450D01*
X107492317Y-46816452D01*
X107623589Y-46976410D01*
X107671320Y-47015581D01*
X107783550Y-47107685D01*
X107966046Y-47205232D01*
X108164066Y-47265300D01*
X108164065Y-47265300D01*
X108182529Y-47267118D01*
X108370000Y-47285583D01*
X108575934Y-47265300D01*
X108773954Y-47205232D01*
X108956450Y-47107685D01*
X109116410Y-46976410D01*
X109247685Y-46816450D01*
X109345232Y-46633954D01*
X109405300Y-46435934D01*
X109425583Y-46230000D01*
X109854417Y-46230000D01*
X109874699Y-46435932D01*
X109874700Y-46435934D01*
X109934768Y-46633954D01*
X110032315Y-46816450D01*
X110032317Y-46816452D01*
X110163589Y-46976410D01*
X110211320Y-47015581D01*
X110323550Y-47107685D01*
X110506046Y-47205232D01*
X110704066Y-47265300D01*
X110704065Y-47265300D01*
X110722529Y-47267118D01*
X110910000Y-47285583D01*
X111115934Y-47265300D01*
X111313954Y-47205232D01*
X111496450Y-47107685D01*
X111656410Y-46976410D01*
X111787685Y-46816450D01*
X111885232Y-46633954D01*
X111945300Y-46435934D01*
X111965583Y-46230000D01*
X112394417Y-46230000D01*
X112414699Y-46435932D01*
X112414700Y-46435934D01*
X112474768Y-46633954D01*
X112572315Y-46816450D01*
X112572317Y-46816452D01*
X112703589Y-46976410D01*
X112751320Y-47015581D01*
X112863550Y-47107685D01*
X113046046Y-47205232D01*
X113244066Y-47265300D01*
X113244065Y-47265300D01*
X113262529Y-47267118D01*
X113450000Y-47285583D01*
X113655934Y-47265300D01*
X113853954Y-47205232D01*
X114036450Y-47107685D01*
X114196410Y-46976410D01*
X114327685Y-46816450D01*
X114425232Y-46633954D01*
X114485300Y-46435934D01*
X114505583Y-46230000D01*
X114934417Y-46230000D01*
X114954699Y-46435932D01*
X114954700Y-46435934D01*
X115014768Y-46633954D01*
X115112315Y-46816450D01*
X115112317Y-46816452D01*
X115243589Y-46976410D01*
X115291320Y-47015581D01*
X115403550Y-47107685D01*
X115586046Y-47205232D01*
X115784066Y-47265300D01*
X115784065Y-47265300D01*
X115802529Y-47267118D01*
X115990000Y-47285583D01*
X116195934Y-47265300D01*
X116393954Y-47205232D01*
X116576450Y-47107685D01*
X116736410Y-46976410D01*
X116867685Y-46816450D01*
X116965232Y-46633954D01*
X117025300Y-46435934D01*
X117045583Y-46230000D01*
X117474417Y-46230000D01*
X117494699Y-46435932D01*
X117494700Y-46435934D01*
X117554768Y-46633954D01*
X117652315Y-46816450D01*
X117652317Y-46816452D01*
X117783589Y-46976410D01*
X117831320Y-47015581D01*
X117943550Y-47107685D01*
X118126046Y-47205232D01*
X118324066Y-47265300D01*
X118324065Y-47265300D01*
X118342529Y-47267118D01*
X118530000Y-47285583D01*
X118735934Y-47265300D01*
X118933954Y-47205232D01*
X119116450Y-47107685D01*
X119276410Y-46976410D01*
X119407685Y-46816450D01*
X119505232Y-46633954D01*
X119565300Y-46435934D01*
X119585583Y-46230000D01*
X120014417Y-46230000D01*
X120034699Y-46435932D01*
X120034700Y-46435934D01*
X120094768Y-46633954D01*
X120192315Y-46816450D01*
X120192317Y-46816452D01*
X120323589Y-46976410D01*
X120371320Y-47015581D01*
X120483550Y-47107685D01*
X120666046Y-47205232D01*
X120864066Y-47265300D01*
X120864065Y-47265300D01*
X120882529Y-47267118D01*
X121070000Y-47285583D01*
X121275934Y-47265300D01*
X121473954Y-47205232D01*
X121656450Y-47107685D01*
X121816410Y-46976410D01*
X121947685Y-46816450D01*
X122045232Y-46633954D01*
X122105300Y-46435934D01*
X122125583Y-46230000D01*
X122554417Y-46230000D01*
X122574699Y-46435932D01*
X122574700Y-46435934D01*
X122634768Y-46633954D01*
X122732315Y-46816450D01*
X122732317Y-46816452D01*
X122863589Y-46976410D01*
X122911320Y-47015581D01*
X123023550Y-47107685D01*
X123206046Y-47205232D01*
X123404066Y-47265300D01*
X123404065Y-47265300D01*
X123422529Y-47267118D01*
X123610000Y-47285583D01*
X123815934Y-47265300D01*
X124013954Y-47205232D01*
X124196450Y-47107685D01*
X124356410Y-46976410D01*
X124487685Y-46816450D01*
X124585232Y-46633954D01*
X124645300Y-46435934D01*
X124665583Y-46230000D01*
X125094417Y-46230000D01*
X125114699Y-46435932D01*
X125114700Y-46435934D01*
X125174768Y-46633954D01*
X125272315Y-46816450D01*
X125272317Y-46816452D01*
X125403589Y-46976410D01*
X125451320Y-47015581D01*
X125563550Y-47107685D01*
X125746046Y-47205232D01*
X125944066Y-47265300D01*
X125944065Y-47265300D01*
X125962529Y-47267118D01*
X126150000Y-47285583D01*
X126355934Y-47265300D01*
X126553954Y-47205232D01*
X126736450Y-47107685D01*
X126896410Y-46976410D01*
X127027685Y-46816450D01*
X127125232Y-46633954D01*
X127185300Y-46435934D01*
X127205583Y-46230000D01*
X127634417Y-46230000D01*
X127654699Y-46435932D01*
X127654700Y-46435934D01*
X127714768Y-46633954D01*
X127812315Y-46816450D01*
X127812317Y-46816452D01*
X127943589Y-46976410D01*
X127991320Y-47015581D01*
X128103550Y-47107685D01*
X128286046Y-47205232D01*
X128484066Y-47265300D01*
X128484065Y-47265300D01*
X128502529Y-47267118D01*
X128690000Y-47285583D01*
X128895934Y-47265300D01*
X129093954Y-47205232D01*
X129276450Y-47107685D01*
X129436410Y-46976410D01*
X129567685Y-46816450D01*
X129665232Y-46633954D01*
X129725300Y-46435934D01*
X129745583Y-46230000D01*
X130174417Y-46230000D01*
X130194699Y-46435932D01*
X130194700Y-46435934D01*
X130254768Y-46633954D01*
X130352315Y-46816450D01*
X130352317Y-46816452D01*
X130483589Y-46976410D01*
X130531320Y-47015581D01*
X130643550Y-47107685D01*
X130826046Y-47205232D01*
X131024066Y-47265300D01*
X131024065Y-47265300D01*
X131042529Y-47267118D01*
X131230000Y-47285583D01*
X131435934Y-47265300D01*
X131633954Y-47205232D01*
X131816450Y-47107685D01*
X131976410Y-46976410D01*
X132107685Y-46816450D01*
X132205232Y-46633954D01*
X132265300Y-46435934D01*
X132285583Y-46230000D01*
X132714417Y-46230000D01*
X132734699Y-46435932D01*
X132734700Y-46435934D01*
X132794768Y-46633954D01*
X132892315Y-46816450D01*
X132892317Y-46816452D01*
X133023589Y-46976410D01*
X133071320Y-47015581D01*
X133183550Y-47107685D01*
X133366046Y-47205232D01*
X133564066Y-47265300D01*
X133564065Y-47265300D01*
X133582529Y-47267118D01*
X133770000Y-47285583D01*
X133975934Y-47265300D01*
X134173954Y-47205232D01*
X134356450Y-47107685D01*
X134516410Y-46976410D01*
X134647685Y-46816450D01*
X134745232Y-46633954D01*
X134805300Y-46435934D01*
X134825583Y-46230000D01*
X134805300Y-46024066D01*
X134745232Y-45826046D01*
X134647685Y-45643550D01*
X134586979Y-45569579D01*
X134516410Y-45483589D01*
X134356452Y-45352317D01*
X134356453Y-45352317D01*
X134356450Y-45352315D01*
X134186554Y-45261502D01*
X134173956Y-45254769D01*
X134173955Y-45254768D01*
X134173954Y-45254768D01*
X133975934Y-45194700D01*
X133975932Y-45194699D01*
X133975934Y-45194699D01*
X133770000Y-45174417D01*
X133564067Y-45194699D01*
X133366043Y-45254769D01*
X133255898Y-45313643D01*
X133183550Y-45352315D01*
X133183548Y-45352316D01*
X133183547Y-45352317D01*
X133023589Y-45483589D01*
X132897636Y-45637066D01*
X132892315Y-45643550D01*
X132869499Y-45686236D01*
X132794769Y-45826043D01*
X132734699Y-46024067D01*
X132714417Y-46230000D01*
X132285583Y-46230000D01*
X132265300Y-46024066D01*
X132205232Y-45826046D01*
X132107685Y-45643550D01*
X132046979Y-45569579D01*
X131976410Y-45483589D01*
X131816452Y-45352317D01*
X131816453Y-45352317D01*
X131816450Y-45352315D01*
X131646554Y-45261502D01*
X131633956Y-45254769D01*
X131633955Y-45254768D01*
X131633954Y-45254768D01*
X131435934Y-45194700D01*
X131435932Y-45194699D01*
X131435934Y-45194699D01*
X131230000Y-45174417D01*
X131024067Y-45194699D01*
X130826043Y-45254769D01*
X130715898Y-45313643D01*
X130643550Y-45352315D01*
X130643548Y-45352316D01*
X130643547Y-45352317D01*
X130483589Y-45483589D01*
X130357636Y-45637066D01*
X130352315Y-45643550D01*
X130329499Y-45686236D01*
X130254769Y-45826043D01*
X130194699Y-46024067D01*
X130174417Y-46230000D01*
X129745583Y-46230000D01*
X129725300Y-46024066D01*
X129665232Y-45826046D01*
X129567685Y-45643550D01*
X129506979Y-45569579D01*
X129436410Y-45483589D01*
X129276452Y-45352317D01*
X129276453Y-45352317D01*
X129276450Y-45352315D01*
X129106554Y-45261502D01*
X129093956Y-45254769D01*
X129093955Y-45254768D01*
X129093954Y-45254768D01*
X128895934Y-45194700D01*
X128895932Y-45194699D01*
X128895934Y-45194699D01*
X128690000Y-45174417D01*
X128484067Y-45194699D01*
X128286043Y-45254769D01*
X128175898Y-45313643D01*
X128103550Y-45352315D01*
X128103548Y-45352316D01*
X128103547Y-45352317D01*
X127943589Y-45483589D01*
X127817636Y-45637066D01*
X127812315Y-45643550D01*
X127789499Y-45686236D01*
X127714769Y-45826043D01*
X127654699Y-46024067D01*
X127634417Y-46230000D01*
X127205583Y-46230000D01*
X127185300Y-46024066D01*
X127125232Y-45826046D01*
X127027685Y-45643550D01*
X126966979Y-45569579D01*
X126896410Y-45483589D01*
X126736452Y-45352317D01*
X126736453Y-45352317D01*
X126736450Y-45352315D01*
X126566554Y-45261502D01*
X126553956Y-45254769D01*
X126553955Y-45254768D01*
X126553954Y-45254768D01*
X126355934Y-45194700D01*
X126355932Y-45194699D01*
X126355934Y-45194699D01*
X126150000Y-45174417D01*
X125944067Y-45194699D01*
X125746043Y-45254769D01*
X125635898Y-45313643D01*
X125563550Y-45352315D01*
X125563548Y-45352316D01*
X125563547Y-45352317D01*
X125403589Y-45483589D01*
X125277636Y-45637066D01*
X125272315Y-45643550D01*
X125249499Y-45686236D01*
X125174769Y-45826043D01*
X125114699Y-46024067D01*
X125094417Y-46230000D01*
X124665583Y-46230000D01*
X124645300Y-46024066D01*
X124585232Y-45826046D01*
X124487685Y-45643550D01*
X124426979Y-45569579D01*
X124356410Y-45483589D01*
X124196452Y-45352317D01*
X124196453Y-45352317D01*
X124196450Y-45352315D01*
X124026554Y-45261502D01*
X124013956Y-45254769D01*
X124013955Y-45254768D01*
X124013954Y-45254768D01*
X123815934Y-45194700D01*
X123815932Y-45194699D01*
X123815934Y-45194699D01*
X123610000Y-45174417D01*
X123404067Y-45194699D01*
X123206043Y-45254769D01*
X123095898Y-45313643D01*
X123023550Y-45352315D01*
X123023548Y-45352316D01*
X123023547Y-45352317D01*
X122863589Y-45483589D01*
X122737636Y-45637066D01*
X122732315Y-45643550D01*
X122709499Y-45686236D01*
X122634769Y-45826043D01*
X122574699Y-46024067D01*
X122554417Y-46230000D01*
X122125583Y-46230000D01*
X122105300Y-46024066D01*
X122045232Y-45826046D01*
X121947685Y-45643550D01*
X121886979Y-45569579D01*
X121816410Y-45483589D01*
X121656452Y-45352317D01*
X121656453Y-45352317D01*
X121656450Y-45352315D01*
X121486554Y-45261502D01*
X121473956Y-45254769D01*
X121473955Y-45254768D01*
X121473954Y-45254768D01*
X121275934Y-45194700D01*
X121275932Y-45194699D01*
X121275934Y-45194699D01*
X121070000Y-45174417D01*
X120864067Y-45194699D01*
X120666043Y-45254769D01*
X120555898Y-45313643D01*
X120483550Y-45352315D01*
X120483548Y-45352316D01*
X120483547Y-45352317D01*
X120323589Y-45483589D01*
X120197636Y-45637066D01*
X120192315Y-45643550D01*
X120169499Y-45686236D01*
X120094769Y-45826043D01*
X120034699Y-46024067D01*
X120014417Y-46230000D01*
X119585583Y-46230000D01*
X119565300Y-46024066D01*
X119505232Y-45826046D01*
X119407685Y-45643550D01*
X119346979Y-45569579D01*
X119276410Y-45483589D01*
X119116452Y-45352317D01*
X119116453Y-45352317D01*
X119116450Y-45352315D01*
X118946554Y-45261502D01*
X118933956Y-45254769D01*
X118933955Y-45254768D01*
X118933954Y-45254768D01*
X118735934Y-45194700D01*
X118735932Y-45194699D01*
X118735934Y-45194699D01*
X118530000Y-45174417D01*
X118324067Y-45194699D01*
X118126043Y-45254769D01*
X118015898Y-45313643D01*
X117943550Y-45352315D01*
X117943548Y-45352316D01*
X117943547Y-45352317D01*
X117783589Y-45483589D01*
X117657636Y-45637066D01*
X117652315Y-45643550D01*
X117629499Y-45686236D01*
X117554769Y-45826043D01*
X117494699Y-46024067D01*
X117474417Y-46230000D01*
X117045583Y-46230000D01*
X117025300Y-46024066D01*
X116965232Y-45826046D01*
X116867685Y-45643550D01*
X116806979Y-45569579D01*
X116736410Y-45483589D01*
X116576452Y-45352317D01*
X116576453Y-45352317D01*
X116576450Y-45352315D01*
X116406554Y-45261502D01*
X116393956Y-45254769D01*
X116393955Y-45254768D01*
X116393954Y-45254768D01*
X116195934Y-45194700D01*
X116195932Y-45194699D01*
X116195934Y-45194699D01*
X115990000Y-45174417D01*
X115784067Y-45194699D01*
X115586043Y-45254769D01*
X115475898Y-45313643D01*
X115403550Y-45352315D01*
X115403548Y-45352316D01*
X115403547Y-45352317D01*
X115243589Y-45483589D01*
X115117636Y-45637066D01*
X115112315Y-45643550D01*
X115089499Y-45686236D01*
X115014769Y-45826043D01*
X114954699Y-46024067D01*
X114934417Y-46230000D01*
X114505583Y-46230000D01*
X114485300Y-46024066D01*
X114425232Y-45826046D01*
X114327685Y-45643550D01*
X114266979Y-45569579D01*
X114196410Y-45483589D01*
X114036452Y-45352317D01*
X114036453Y-45352317D01*
X114036450Y-45352315D01*
X113866554Y-45261502D01*
X113853956Y-45254769D01*
X113853955Y-45254768D01*
X113853954Y-45254768D01*
X113655934Y-45194700D01*
X113655932Y-45194699D01*
X113655934Y-45194699D01*
X113450000Y-45174417D01*
X113244067Y-45194699D01*
X113046043Y-45254769D01*
X112935898Y-45313643D01*
X112863550Y-45352315D01*
X112863548Y-45352316D01*
X112863547Y-45352317D01*
X112703589Y-45483589D01*
X112577636Y-45637066D01*
X112572315Y-45643550D01*
X112549499Y-45686236D01*
X112474769Y-45826043D01*
X112414699Y-46024067D01*
X112394417Y-46230000D01*
X111965583Y-46230000D01*
X111945300Y-46024066D01*
X111885232Y-45826046D01*
X111787685Y-45643550D01*
X111726979Y-45569579D01*
X111656410Y-45483589D01*
X111496452Y-45352317D01*
X111496453Y-45352317D01*
X111496450Y-45352315D01*
X111326554Y-45261502D01*
X111313956Y-45254769D01*
X111313955Y-45254768D01*
X111313954Y-45254768D01*
X111115934Y-45194700D01*
X111115932Y-45194699D01*
X111115934Y-45194699D01*
X110910000Y-45174417D01*
X110704067Y-45194699D01*
X110506043Y-45254769D01*
X110395898Y-45313643D01*
X110323550Y-45352315D01*
X110323548Y-45352316D01*
X110323547Y-45352317D01*
X110163589Y-45483589D01*
X110037636Y-45637066D01*
X110032315Y-45643550D01*
X110009499Y-45686236D01*
X109934769Y-45826043D01*
X109874699Y-46024067D01*
X109854417Y-46230000D01*
X109425583Y-46230000D01*
X109405300Y-46024066D01*
X109345232Y-45826046D01*
X109247685Y-45643550D01*
X109186979Y-45569579D01*
X109116410Y-45483589D01*
X108956452Y-45352317D01*
X108956453Y-45352317D01*
X108956450Y-45352315D01*
X108786554Y-45261502D01*
X108773956Y-45254769D01*
X108773955Y-45254768D01*
X108773954Y-45254768D01*
X108575934Y-45194700D01*
X108575932Y-45194699D01*
X108575934Y-45194699D01*
X108370000Y-45174417D01*
X108164067Y-45194699D01*
X107966043Y-45254769D01*
X107855898Y-45313643D01*
X107783550Y-45352315D01*
X107783548Y-45352316D01*
X107783547Y-45352317D01*
X107623589Y-45483589D01*
X107497636Y-45637066D01*
X107492315Y-45643550D01*
X107469499Y-45686236D01*
X107394769Y-45826043D01*
X107334699Y-46024067D01*
X107314417Y-46230000D01*
X100157199Y-46230000D01*
X100215052Y-46029187D01*
X100217346Y-46022629D01*
X100341265Y-45723461D01*
X100344268Y-45717226D01*
X100500909Y-45433806D01*
X100504592Y-45427944D01*
X100691983Y-45163842D01*
X100696293Y-45158436D01*
X100912069Y-44916984D01*
X100916987Y-44912067D01*
X101158436Y-44696293D01*
X101163842Y-44691983D01*
X101427944Y-44504592D01*
X101433806Y-44500909D01*
X101717226Y-44344268D01*
X101723461Y-44341265D01*
X102022629Y-44217346D01*
X102029181Y-44215053D01*
X102340332Y-44125413D01*
X102347112Y-44123866D01*
X102666340Y-44069627D01*
X102673227Y-44068851D01*
X102850713Y-44058883D01*
X102998265Y-44050598D01*
X103001742Y-44050500D01*
X103016408Y-44050500D01*
X161983592Y-44050500D01*
X161998258Y-44050500D01*
X162001735Y-44050598D01*
G37*
G04 #@! TD.AperFunction*
D10*
X115738000Y-85457000D03*
D11*
X113198000Y-85457000D03*
X110658000Y-85457000D03*
X108118000Y-85457000D03*
D14*
X144704000Y-56058000D03*
X144704000Y-57883000D03*
X141148000Y-56011000D03*
X141148000Y-57836000D03*
X129582177Y-56011000D03*
X129582177Y-57836000D03*
D10*
X145202000Y-85973000D03*
D11*
X142662000Y-85973000D03*
X140122000Y-85973000D03*
X137582000Y-85973000D03*
D14*
X110435162Y-56011000D03*
X110435162Y-57836000D03*
X118093968Y-56011000D03*
X118093968Y-57836000D03*
D15*
X149911000Y-68250000D03*
X148641000Y-68250000D03*
X147371000Y-68250000D03*
X146101000Y-68250000D03*
X144831000Y-68250000D03*
X143561000Y-68250000D03*
X142291000Y-68250000D03*
X141021000Y-68250000D03*
X141021000Y-73200000D03*
X142291000Y-73200000D03*
X143561000Y-73200000D03*
X144831000Y-73200000D03*
X146101000Y-73200000D03*
X147371000Y-73200000D03*
X148641000Y-73200000D03*
X149911000Y-73200000D03*
D14*
X114264565Y-56011000D03*
X114264565Y-57836000D03*
X152558595Y-56011000D03*
X152558595Y-57836000D03*
D10*
X158420000Y-86030000D03*
D11*
X155880000Y-86030000D03*
X153340000Y-86030000D03*
X150800000Y-86030000D03*
D14*
X121923371Y-56011000D03*
X121923371Y-57836000D03*
D15*
X121590000Y-67742000D03*
X120320000Y-67742000D03*
X119050000Y-67742000D03*
X117780000Y-67742000D03*
X116510000Y-67742000D03*
X115240000Y-67742000D03*
X113970000Y-67742000D03*
X112700000Y-67742000D03*
X112700000Y-72692000D03*
X113970000Y-72692000D03*
X115240000Y-72692000D03*
X116510000Y-72692000D03*
X117780000Y-72692000D03*
X119050000Y-72692000D03*
X120320000Y-72692000D03*
X121590000Y-72692000D03*
D14*
X125752774Y-56011000D03*
X125752774Y-57836000D03*
X133411580Y-56011000D03*
X133411580Y-57836000D03*
X137240983Y-56011000D03*
X137240983Y-57836000D03*
D10*
X128194000Y-85457000D03*
D11*
X125654000Y-85457000D03*
X123114000Y-85457000D03*
X120574000Y-85457000D03*
D14*
X156388000Y-56011000D03*
X156388000Y-57836000D03*
D10*
X108370000Y-48770000D03*
D11*
X108370000Y-46230000D03*
X110910000Y-48770000D03*
X110910000Y-46230000D03*
X113450000Y-48770000D03*
X113450000Y-46230000D03*
X115990000Y-48770000D03*
X115990000Y-46230000D03*
X118530000Y-48770000D03*
X118530000Y-46230000D03*
X121070000Y-48770000D03*
X121070000Y-46230000D03*
X123610000Y-48770000D03*
X123610000Y-46230000D03*
X126150000Y-48770000D03*
X126150000Y-46230000D03*
X128690000Y-48770000D03*
X128690000Y-46230000D03*
X131230000Y-48770000D03*
X131230000Y-46230000D03*
X133770000Y-48770000D03*
X133770000Y-46230000D03*
X136310000Y-48770000D03*
X136310000Y-46230000D03*
X138850000Y-48770000D03*
X138850000Y-46230000D03*
X141390000Y-48770000D03*
X141390000Y-46230000D03*
X143930000Y-48770000D03*
X143930000Y-46230000D03*
X146470000Y-48770000D03*
X146470000Y-46230000D03*
X149010000Y-48770000D03*
X149010000Y-46230000D03*
X151550000Y-48770000D03*
X151550000Y-46230000D03*
X154090000Y-48770000D03*
X154090000Y-46230000D03*
X156630000Y-48770000D03*
X156630000Y-46230000D03*
D12*
X111176000Y-67423000D03*
X140386000Y-66472000D03*
X125908000Y-55042000D03*
X129972000Y-52248000D03*
X120320000Y-65456000D03*
X112700000Y-59106000D03*
X124892000Y-60884000D03*
X119050000Y-69520000D03*
X114986000Y-59868000D03*
X118542000Y-59868000D03*
X128702000Y-63424000D03*
X128702000Y-60884000D03*
X140132000Y-52756000D03*
X149784000Y-61646000D03*
X143180000Y-61646000D03*
X137338000Y-53264000D03*
X138608000Y-59868000D03*
X148641000Y-64567000D03*
D13*
X112700000Y-67742000D02*
X111495000Y-67742000D01*
X141021000Y-67107000D02*
X140386000Y-66472000D01*
X111495000Y-67742000D02*
X111176000Y-67423000D01*
X141021000Y-68250000D02*
X141021000Y-67107000D01*
X110435162Y-56011000D02*
X116376162Y-50070000D01*
X120220000Y-48770000D02*
X121070000Y-48770000D01*
X118920000Y-50070000D02*
X120220000Y-48770000D01*
X116376162Y-50070000D02*
X118920000Y-50070000D01*
X120894000Y-51486000D02*
X123610000Y-48770000D01*
X114264565Y-56011000D02*
X114264565Y-55336565D01*
X114264565Y-55336565D02*
X114224000Y-55296000D01*
X114264565Y-54747435D02*
X117526000Y-51486000D01*
X114264565Y-56011000D02*
X114264565Y-54747435D01*
X117526000Y-51486000D02*
X120894000Y-51486000D01*
X125752774Y-54886774D02*
X125908000Y-55042000D01*
X125752774Y-56011000D02*
X125752774Y-54886774D01*
X121923371Y-56011000D02*
X121923371Y-54200629D01*
X124130000Y-52248000D02*
X129972000Y-52248000D01*
X123876000Y-52248000D02*
X124130000Y-52248000D01*
X122098000Y-54026000D02*
X123876000Y-52248000D01*
X121923371Y-54200629D02*
X122098000Y-54026000D01*
X112021000Y-75616000D02*
X108128000Y-75616000D01*
X108118000Y-75626000D02*
X108118000Y-85457000D01*
X113970000Y-72692000D02*
X113970000Y-73667000D01*
X108128000Y-75616000D02*
X108118000Y-75626000D01*
X113970000Y-73667000D02*
X112021000Y-75616000D01*
X115240000Y-73667000D02*
X115240000Y-72692000D01*
X110658000Y-85457000D02*
X110658000Y-78420000D01*
X112021000Y-76886000D02*
X115240000Y-73667000D01*
X110658000Y-78420000D02*
X110668000Y-78410000D01*
X110668000Y-78410000D02*
X110668000Y-76886000D01*
X110668000Y-76886000D02*
X112021000Y-76886000D01*
X145847000Y-45009000D02*
X150329000Y-45009000D01*
X145212000Y-55550000D02*
X145212000Y-45644000D01*
X144704000Y-56058000D02*
X145212000Y-55550000D01*
X145212000Y-45644000D02*
X145847000Y-45009000D01*
X150329000Y-45009000D02*
X151550000Y-46230000D01*
X152700000Y-55869595D02*
X152700000Y-47620000D01*
X152558595Y-56011000D02*
X152700000Y-55869595D01*
X152700000Y-47620000D02*
X154090000Y-46230000D01*
X155480000Y-47380000D02*
X156630000Y-46230000D01*
X155480000Y-55103000D02*
X155480000Y-47380000D01*
X156388000Y-56011000D02*
X155480000Y-55103000D01*
X105715000Y-89967000D02*
X105715000Y-72568000D01*
X141021000Y-73200000D02*
X128764000Y-85457000D01*
X128764000Y-85457000D02*
X128194000Y-85457000D01*
X158420000Y-86030000D02*
X154483000Y-89967000D01*
X108812000Y-46230000D02*
X108370000Y-46230000D01*
X106604000Y-47996000D02*
X106604000Y-50724000D01*
X105839000Y-72692000D02*
X105715000Y-72568000D01*
X112700000Y-72692000D02*
X105839000Y-72692000D01*
X154483000Y-89967000D02*
X126162000Y-89967000D01*
X105715000Y-51613000D02*
X105715000Y-72568000D01*
X106604000Y-50724000D02*
X105715000Y-51613000D01*
X126162000Y-89967000D02*
X105715000Y-89967000D01*
X108890000Y-46152000D02*
X108812000Y-46230000D01*
X128194000Y-89459000D02*
X128194000Y-85457000D01*
X126162000Y-89967000D02*
X127686000Y-89967000D01*
X110414000Y-46152000D02*
X110668000Y-46152000D01*
X127686000Y-89967000D02*
X128194000Y-89459000D01*
X110910000Y-46230000D02*
X110492000Y-46230000D01*
X108370000Y-46230000D02*
X106604000Y-47996000D01*
X110492000Y-46230000D02*
X110414000Y-46152000D01*
X110910000Y-46230000D02*
X108370000Y-46230000D01*
X113198000Y-85457000D02*
X113198000Y-78166000D01*
X116510000Y-74854000D02*
X116510000Y-72692000D01*
X113198000Y-78166000D02*
X116510000Y-74854000D01*
X107366000Y-70790000D02*
X119517000Y-70790000D01*
X110435162Y-57836000D02*
X108890000Y-57836000D01*
X107112000Y-59614000D02*
X107112000Y-70536000D01*
X108890000Y-57836000D02*
X107112000Y-59614000D01*
X121590000Y-68717000D02*
X121590000Y-67742000D01*
X119517000Y-70790000D02*
X121590000Y-68717000D01*
X107112000Y-70536000D02*
X107366000Y-70790000D01*
X120320000Y-67742000D02*
X120320000Y-65456000D01*
X112994565Y-59106000D02*
X114264565Y-57836000D01*
X112700000Y-59106000D02*
X112994565Y-59106000D01*
X124892000Y-60884000D02*
X125752774Y-60023226D01*
X119050000Y-69520000D02*
X119050000Y-67742000D01*
X125752774Y-60023226D02*
X125752774Y-57836000D01*
X108382000Y-60630000D02*
X109144000Y-59868000D01*
X117780000Y-67742000D02*
X117780000Y-69520000D01*
X121923371Y-58264629D02*
X121923371Y-57836000D01*
X108382000Y-69774000D02*
X108382000Y-60630000D01*
X108636000Y-70028000D02*
X108382000Y-69774000D01*
X117780000Y-69520000D02*
X117272000Y-70028000D01*
X109144000Y-59868000D02*
X114986000Y-59868000D01*
X118542000Y-59868000D02*
X120320000Y-59868000D01*
X117272000Y-70028000D02*
X108636000Y-70028000D01*
X120320000Y-59868000D02*
X121923371Y-58264629D01*
X118796000Y-52756000D02*
X121336000Y-52756000D01*
X131308000Y-51232000D02*
X133770000Y-48770000D01*
X118093968Y-53458032D02*
X118796000Y-52756000D01*
X121336000Y-52756000D02*
X122860000Y-51232000D01*
X122860000Y-51232000D02*
X131308000Y-51232000D01*
X118093968Y-56011000D02*
X118093968Y-53458032D01*
X115748000Y-61138000D02*
X118093968Y-58792032D01*
X109906000Y-61138000D02*
X115748000Y-61138000D01*
X116510000Y-68717000D02*
X115961000Y-69266000D01*
X116510000Y-67742000D02*
X116510000Y-68717000D01*
X115961000Y-69266000D02*
X109652000Y-69266000D01*
X109652000Y-61392000D02*
X109906000Y-61138000D01*
X118093968Y-58792032D02*
X118093968Y-57836000D01*
X109652000Y-69266000D02*
X109652000Y-61392000D01*
X115494000Y-64186000D02*
X116256000Y-63424000D01*
X116256000Y-63424000D02*
X128702000Y-63424000D01*
X129582177Y-60003823D02*
X128702000Y-60884000D01*
X115240000Y-67742000D02*
X115240000Y-64440000D01*
X115240000Y-64440000D02*
X115494000Y-64186000D01*
X129582177Y-57836000D02*
X129582177Y-60003823D01*
X113970000Y-62154000D02*
X129093580Y-62154000D01*
X129093580Y-62154000D02*
X133411580Y-57836000D01*
X113970000Y-67742000D02*
X113970000Y-62154000D01*
X115738000Y-85457000D02*
X115738000Y-77658000D01*
X115738000Y-77658000D02*
X117780000Y-75616000D01*
X117780000Y-75616000D02*
X117780000Y-72692000D01*
X122352000Y-77140000D02*
X120320000Y-75108000D01*
X120320000Y-75108000D02*
X120320000Y-72692000D01*
X123114000Y-85457000D02*
X122352000Y-84695000D01*
X122352000Y-84695000D02*
X122352000Y-77140000D01*
X125654000Y-85457000D02*
X125654000Y-76756000D01*
X125654000Y-76756000D02*
X121590000Y-72692000D01*
X142291000Y-76759000D02*
X142291000Y-73200000D01*
X137582000Y-85973000D02*
X137582000Y-81468000D01*
X137582000Y-81468000D02*
X142291000Y-76759000D01*
X140122000Y-85973000D02*
X140122000Y-81976000D01*
X143561000Y-78537000D02*
X143561000Y-73200000D01*
X140122000Y-81976000D02*
X143561000Y-78537000D01*
X142662000Y-81976000D02*
X144831000Y-79807000D01*
X144831000Y-79807000D02*
X144831000Y-73200000D01*
X142662000Y-85973000D02*
X142662000Y-81976000D01*
X129718000Y-53772000D02*
X131308000Y-53772000D01*
X129582177Y-53907823D02*
X129718000Y-53772000D01*
X131308000Y-53772000D02*
X136310000Y-48770000D01*
X129582177Y-56011000D02*
X129582177Y-53907823D01*
X135306000Y-51740000D02*
X142672000Y-51740000D01*
X142672000Y-50028000D02*
X143930000Y-48770000D01*
X133411580Y-56011000D02*
X133411580Y-53634420D01*
X133411580Y-53634420D02*
X135306000Y-51740000D01*
X142672000Y-51740000D02*
X142672000Y-50028000D01*
X141148000Y-53772000D02*
X140132000Y-52756000D01*
X141148000Y-56011000D02*
X141148000Y-53772000D01*
X145202000Y-81468000D02*
X146101000Y-80569000D01*
X146101000Y-80569000D02*
X146101000Y-73200000D01*
X145202000Y-85973000D02*
X145202000Y-81468000D01*
X153340000Y-86030000D02*
X148641000Y-81331000D01*
X148641000Y-81331000D02*
X148641000Y-73200000D01*
X155880000Y-86030000D02*
X149911000Y-80061000D01*
X149911000Y-80061000D02*
X149911000Y-73200000D01*
X120574000Y-85457000D02*
X120574000Y-77648000D01*
X120574000Y-77648000D02*
X119050000Y-76124000D01*
X119050000Y-76124000D02*
X119050000Y-72692000D01*
X149911000Y-61773000D02*
X149784000Y-61646000D01*
X149911000Y-68250000D02*
X149911000Y-61773000D01*
X141148000Y-59614000D02*
X141148000Y-57836000D01*
X143180000Y-61646000D02*
X141148000Y-59614000D01*
X137240983Y-53361017D02*
X137338000Y-53264000D01*
X137240983Y-56011000D02*
X137240983Y-53361017D01*
X148514000Y-64440000D02*
X148641000Y-64567000D01*
X138608000Y-59868000D02*
X137240983Y-58500983D01*
X148641000Y-68250000D02*
X148641000Y-64567000D01*
X137240983Y-58500983D02*
X137240983Y-57836000D01*
X147371000Y-60550000D02*
X144704000Y-57883000D01*
X147371000Y-68250000D02*
X147371000Y-60550000D01*
X146101000Y-68250000D02*
X146101000Y-69647000D01*
X146482000Y-70028000D02*
X151816000Y-70028000D01*
X152558595Y-69285405D02*
X152558595Y-57836000D01*
X146101000Y-69647000D02*
X146482000Y-70028000D01*
X151816000Y-70028000D02*
X152558595Y-69285405D01*
X144831000Y-68250000D02*
X144831000Y-69901000D01*
X144831000Y-69901000D02*
X145974000Y-71044000D01*
X145974000Y-71044000D02*
X152832000Y-71044000D01*
X156388000Y-67488000D02*
X156388000Y-57836000D01*
X152832000Y-71044000D02*
X156388000Y-67488000D01*
X150800000Y-86030000D02*
X147371000Y-82601000D01*
X147371000Y-82601000D02*
X147371000Y-73200000D01*
D16*
X144704000Y-56058000D03*
X144704000Y-57883000D03*
X141148000Y-56011000D03*
X141148000Y-57836000D03*
X129582177Y-56011000D03*
X129582177Y-57836000D03*
X110435162Y-56011000D03*
X110435162Y-57836000D03*
X118093968Y-56011000D03*
X118093968Y-57836000D03*
D17*
X149911000Y-68250000D03*
X148641000Y-68250000D03*
X147371000Y-68250000D03*
X146101000Y-68250000D03*
X144831000Y-68250000D03*
X143561000Y-68250000D03*
X142291000Y-68250000D03*
X141021000Y-68250000D03*
X141021000Y-73200000D03*
X142291000Y-73200000D03*
X143561000Y-73200000D03*
X144831000Y-73200000D03*
X146101000Y-73200000D03*
X147371000Y-73200000D03*
X148641000Y-73200000D03*
X149911000Y-73200000D03*
D16*
X114264565Y-56011000D03*
X114264565Y-57836000D03*
X152558595Y-56011000D03*
X152558595Y-57836000D03*
X121923371Y-56011000D03*
X121923371Y-57836000D03*
D17*
X121590000Y-67742000D03*
X120320000Y-67742000D03*
X119050000Y-67742000D03*
X117780000Y-67742000D03*
X116510000Y-67742000D03*
X115240000Y-67742000D03*
X113970000Y-67742000D03*
X112700000Y-67742000D03*
X112700000Y-72692000D03*
X113970000Y-72692000D03*
X115240000Y-72692000D03*
X116510000Y-72692000D03*
X117780000Y-72692000D03*
X119050000Y-72692000D03*
X120320000Y-72692000D03*
X121590000Y-72692000D03*
D16*
X125752774Y-56011000D03*
X125752774Y-57836000D03*
X133411580Y-56011000D03*
X133411580Y-57836000D03*
X137240983Y-56011000D03*
X137240983Y-57836000D03*
X156388000Y-56011000D03*
X156388000Y-57836000D03*
D18*
X117862779Y-94789819D02*
X117862779Y-93789819D01*
X117862779Y-93789819D02*
X118196112Y-94504104D01*
X118196112Y-94504104D02*
X118529445Y-93789819D01*
X118529445Y-93789819D02*
X118529445Y-94789819D01*
X119148493Y-94789819D02*
X119053255Y-94742200D01*
X119053255Y-94742200D02*
X119005636Y-94694580D01*
X119005636Y-94694580D02*
X118958017Y-94599342D01*
X118958017Y-94599342D02*
X118958017Y-94313628D01*
X118958017Y-94313628D02*
X119005636Y-94218390D01*
X119005636Y-94218390D02*
X119053255Y-94170771D01*
X119053255Y-94170771D02*
X119148493Y-94123152D01*
X119148493Y-94123152D02*
X119291350Y-94123152D01*
X119291350Y-94123152D02*
X119386588Y-94170771D01*
X119386588Y-94170771D02*
X119434207Y-94218390D01*
X119434207Y-94218390D02*
X119481826Y-94313628D01*
X119481826Y-94313628D02*
X119481826Y-94599342D01*
X119481826Y-94599342D02*
X119434207Y-94694580D01*
X119434207Y-94694580D02*
X119386588Y-94742200D01*
X119386588Y-94742200D02*
X119291350Y-94789819D01*
X119291350Y-94789819D02*
X119148493Y-94789819D01*
X120338969Y-94789819D02*
X120338969Y-93789819D01*
X120338969Y-94742200D02*
X120243731Y-94789819D01*
X120243731Y-94789819D02*
X120053255Y-94789819D01*
X120053255Y-94789819D02*
X119958017Y-94742200D01*
X119958017Y-94742200D02*
X119910398Y-94694580D01*
X119910398Y-94694580D02*
X119862779Y-94599342D01*
X119862779Y-94599342D02*
X119862779Y-94313628D01*
X119862779Y-94313628D02*
X119910398Y-94218390D01*
X119910398Y-94218390D02*
X119958017Y-94170771D01*
X119958017Y-94170771D02*
X120053255Y-94123152D01*
X120053255Y-94123152D02*
X120243731Y-94123152D01*
X120243731Y-94123152D02*
X120338969Y-94170771D01*
X121196112Y-94742200D02*
X121100874Y-94789819D01*
X121100874Y-94789819D02*
X120910398Y-94789819D01*
X120910398Y-94789819D02*
X120815160Y-94742200D01*
X120815160Y-94742200D02*
X120767541Y-94646961D01*
X120767541Y-94646961D02*
X120767541Y-94266009D01*
X120767541Y-94266009D02*
X120815160Y-94170771D01*
X120815160Y-94170771D02*
X120910398Y-94123152D01*
X120910398Y-94123152D02*
X121100874Y-94123152D01*
X121100874Y-94123152D02*
X121196112Y-94170771D01*
X121196112Y-94170771D02*
X121243731Y-94266009D01*
X121243731Y-94266009D02*
X121243731Y-94361247D01*
X121243731Y-94361247D02*
X120767541Y-94456485D01*
X121672303Y-94789819D02*
X121672303Y-94123152D01*
X121672303Y-94313628D02*
X121719922Y-94218390D01*
X121719922Y-94218390D02*
X121767541Y-94170771D01*
X121767541Y-94170771D02*
X121862779Y-94123152D01*
X121862779Y-94123152D02*
X121958017Y-94123152D01*
X122291351Y-94123152D02*
X122291351Y-94789819D01*
X122291351Y-94218390D02*
X122338970Y-94170771D01*
X122338970Y-94170771D02*
X122434208Y-94123152D01*
X122434208Y-94123152D02*
X122577065Y-94123152D01*
X122577065Y-94123152D02*
X122672303Y-94170771D01*
X122672303Y-94170771D02*
X122719922Y-94266009D01*
X122719922Y-94266009D02*
X122719922Y-94789819D01*
X123958018Y-94789819D02*
X123958018Y-93789819D01*
X124434208Y-94123152D02*
X124434208Y-94789819D01*
X124434208Y-94218390D02*
X124481827Y-94170771D01*
X124481827Y-94170771D02*
X124577065Y-94123152D01*
X124577065Y-94123152D02*
X124719922Y-94123152D01*
X124719922Y-94123152D02*
X124815160Y-94170771D01*
X124815160Y-94170771D02*
X124862779Y-94266009D01*
X124862779Y-94266009D02*
X124862779Y-94789819D01*
X125767541Y-94789819D02*
X125767541Y-93789819D01*
X125767541Y-94742200D02*
X125672303Y-94789819D01*
X125672303Y-94789819D02*
X125481827Y-94789819D01*
X125481827Y-94789819D02*
X125386589Y-94742200D01*
X125386589Y-94742200D02*
X125338970Y-94694580D01*
X125338970Y-94694580D02*
X125291351Y-94599342D01*
X125291351Y-94599342D02*
X125291351Y-94313628D01*
X125291351Y-94313628D02*
X125338970Y-94218390D01*
X125338970Y-94218390D02*
X125386589Y-94170771D01*
X125386589Y-94170771D02*
X125481827Y-94123152D01*
X125481827Y-94123152D02*
X125672303Y-94123152D01*
X125672303Y-94123152D02*
X125767541Y-94170771D01*
X126672303Y-94123152D02*
X126672303Y-94789819D01*
X126243732Y-94123152D02*
X126243732Y-94646961D01*
X126243732Y-94646961D02*
X126291351Y-94742200D01*
X126291351Y-94742200D02*
X126386589Y-94789819D01*
X126386589Y-94789819D02*
X126529446Y-94789819D01*
X126529446Y-94789819D02*
X126624684Y-94742200D01*
X126624684Y-94742200D02*
X126672303Y-94694580D01*
X127100875Y-94742200D02*
X127196113Y-94789819D01*
X127196113Y-94789819D02*
X127386589Y-94789819D01*
X127386589Y-94789819D02*
X127481827Y-94742200D01*
X127481827Y-94742200D02*
X127529446Y-94646961D01*
X127529446Y-94646961D02*
X127529446Y-94599342D01*
X127529446Y-94599342D02*
X127481827Y-94504104D01*
X127481827Y-94504104D02*
X127386589Y-94456485D01*
X127386589Y-94456485D02*
X127243732Y-94456485D01*
X127243732Y-94456485D02*
X127148494Y-94408866D01*
X127148494Y-94408866D02*
X127100875Y-94313628D01*
X127100875Y-94313628D02*
X127100875Y-94266009D01*
X127100875Y-94266009D02*
X127148494Y-94170771D01*
X127148494Y-94170771D02*
X127243732Y-94123152D01*
X127243732Y-94123152D02*
X127386589Y-94123152D01*
X127386589Y-94123152D02*
X127481827Y-94170771D01*
X127815161Y-94123152D02*
X128196113Y-94123152D01*
X127958018Y-93789819D02*
X127958018Y-94646961D01*
X127958018Y-94646961D02*
X128005637Y-94742200D01*
X128005637Y-94742200D02*
X128100875Y-94789819D01*
X128100875Y-94789819D02*
X128196113Y-94789819D01*
X128529447Y-94789819D02*
X128529447Y-94123152D01*
X128529447Y-94313628D02*
X128577066Y-94218390D01*
X128577066Y-94218390D02*
X128624685Y-94170771D01*
X128624685Y-94170771D02*
X128719923Y-94123152D01*
X128719923Y-94123152D02*
X128815161Y-94123152D01*
X129053257Y-94123152D02*
X129291352Y-94789819D01*
X129529447Y-94123152D02*
X129291352Y-94789819D01*
X129291352Y-94789819D02*
X129196114Y-95027914D01*
X129196114Y-95027914D02*
X129148495Y-95075533D01*
X129148495Y-95075533D02*
X129053257Y-95123152D01*
X130672305Y-94789819D02*
X130672305Y-93789819D01*
X130672305Y-93789819D02*
X131053257Y-93789819D01*
X131053257Y-93789819D02*
X131148495Y-93837438D01*
X131148495Y-93837438D02*
X131196114Y-93885057D01*
X131196114Y-93885057D02*
X131243733Y-93980295D01*
X131243733Y-93980295D02*
X131243733Y-94123152D01*
X131243733Y-94123152D02*
X131196114Y-94218390D01*
X131196114Y-94218390D02*
X131148495Y-94266009D01*
X131148495Y-94266009D02*
X131053257Y-94313628D01*
X131053257Y-94313628D02*
X130672305Y-94313628D01*
X131672305Y-94789819D02*
X131672305Y-94123152D01*
X131672305Y-93789819D02*
X131624686Y-93837438D01*
X131624686Y-93837438D02*
X131672305Y-93885057D01*
X131672305Y-93885057D02*
X131719924Y-93837438D01*
X131719924Y-93837438D02*
X131672305Y-93789819D01*
X131672305Y-93789819D02*
X131672305Y-93885057D01*
X133243733Y-94266009D02*
X133386590Y-94313628D01*
X133386590Y-94313628D02*
X133434209Y-94361247D01*
X133434209Y-94361247D02*
X133481828Y-94456485D01*
X133481828Y-94456485D02*
X133481828Y-94599342D01*
X133481828Y-94599342D02*
X133434209Y-94694580D01*
X133434209Y-94694580D02*
X133386590Y-94742200D01*
X133386590Y-94742200D02*
X133291352Y-94789819D01*
X133291352Y-94789819D02*
X132910400Y-94789819D01*
X132910400Y-94789819D02*
X132910400Y-93789819D01*
X132910400Y-93789819D02*
X133243733Y-93789819D01*
X133243733Y-93789819D02*
X133338971Y-93837438D01*
X133338971Y-93837438D02*
X133386590Y-93885057D01*
X133386590Y-93885057D02*
X133434209Y-93980295D01*
X133434209Y-93980295D02*
X133434209Y-94075533D01*
X133434209Y-94075533D02*
X133386590Y-94170771D01*
X133386590Y-94170771D02*
X133338971Y-94218390D01*
X133338971Y-94218390D02*
X133243733Y-94266009D01*
X133243733Y-94266009D02*
X132910400Y-94266009D01*
X134338971Y-94123152D02*
X134338971Y-94789819D01*
X133910400Y-94123152D02*
X133910400Y-94646961D01*
X133910400Y-94646961D02*
X133958019Y-94742200D01*
X133958019Y-94742200D02*
X134053257Y-94789819D01*
X134053257Y-94789819D02*
X134196114Y-94789819D01*
X134196114Y-94789819D02*
X134291352Y-94742200D01*
X134291352Y-94742200D02*
X134338971Y-94694580D01*
X134672305Y-94123152D02*
X135053257Y-94123152D01*
X134815162Y-94789819D02*
X134815162Y-93932676D01*
X134815162Y-93932676D02*
X134862781Y-93837438D01*
X134862781Y-93837438D02*
X134958019Y-93789819D01*
X134958019Y-93789819D02*
X135053257Y-93789819D01*
X135243734Y-94123152D02*
X135624686Y-94123152D01*
X135386591Y-94789819D02*
X135386591Y-93932676D01*
X135386591Y-93932676D02*
X135434210Y-93837438D01*
X135434210Y-93837438D02*
X135529448Y-93789819D01*
X135529448Y-93789819D02*
X135624686Y-93789819D01*
X136338972Y-94742200D02*
X136243734Y-94789819D01*
X136243734Y-94789819D02*
X136053258Y-94789819D01*
X136053258Y-94789819D02*
X135958020Y-94742200D01*
X135958020Y-94742200D02*
X135910401Y-94646961D01*
X135910401Y-94646961D02*
X135910401Y-94266009D01*
X135910401Y-94266009D02*
X135958020Y-94170771D01*
X135958020Y-94170771D02*
X136053258Y-94123152D01*
X136053258Y-94123152D02*
X136243734Y-94123152D01*
X136243734Y-94123152D02*
X136338972Y-94170771D01*
X136338972Y-94170771D02*
X136386591Y-94266009D01*
X136386591Y-94266009D02*
X136386591Y-94361247D01*
X136386591Y-94361247D02*
X135910401Y-94456485D01*
X136815163Y-94789819D02*
X136815163Y-94123152D01*
X136815163Y-94313628D02*
X136862782Y-94218390D01*
X136862782Y-94218390D02*
X136910401Y-94170771D01*
X136910401Y-94170771D02*
X137005639Y-94123152D01*
X137005639Y-94123152D02*
X137100877Y-94123152D01*
X138529449Y-94266009D02*
X138672306Y-94313628D01*
X138672306Y-94313628D02*
X138719925Y-94361247D01*
X138719925Y-94361247D02*
X138767544Y-94456485D01*
X138767544Y-94456485D02*
X138767544Y-94599342D01*
X138767544Y-94599342D02*
X138719925Y-94694580D01*
X138719925Y-94694580D02*
X138672306Y-94742200D01*
X138672306Y-94742200D02*
X138577068Y-94789819D01*
X138577068Y-94789819D02*
X138196116Y-94789819D01*
X138196116Y-94789819D02*
X138196116Y-93789819D01*
X138196116Y-93789819D02*
X138529449Y-93789819D01*
X138529449Y-93789819D02*
X138624687Y-93837438D01*
X138624687Y-93837438D02*
X138672306Y-93885057D01*
X138672306Y-93885057D02*
X138719925Y-93980295D01*
X138719925Y-93980295D02*
X138719925Y-94075533D01*
X138719925Y-94075533D02*
X138672306Y-94170771D01*
X138672306Y-94170771D02*
X138624687Y-94218390D01*
X138624687Y-94218390D02*
X138529449Y-94266009D01*
X138529449Y-94266009D02*
X138196116Y-94266009D01*
X139338973Y-94789819D02*
X139243735Y-94742200D01*
X139243735Y-94742200D02*
X139196116Y-94694580D01*
X139196116Y-94694580D02*
X139148497Y-94599342D01*
X139148497Y-94599342D02*
X139148497Y-94313628D01*
X139148497Y-94313628D02*
X139196116Y-94218390D01*
X139196116Y-94218390D02*
X139243735Y-94170771D01*
X139243735Y-94170771D02*
X139338973Y-94123152D01*
X139338973Y-94123152D02*
X139481830Y-94123152D01*
X139481830Y-94123152D02*
X139577068Y-94170771D01*
X139577068Y-94170771D02*
X139624687Y-94218390D01*
X139624687Y-94218390D02*
X139672306Y-94313628D01*
X139672306Y-94313628D02*
X139672306Y-94599342D01*
X139672306Y-94599342D02*
X139624687Y-94694580D01*
X139624687Y-94694580D02*
X139577068Y-94742200D01*
X139577068Y-94742200D02*
X139481830Y-94789819D01*
X139481830Y-94789819D02*
X139338973Y-94789819D01*
X140529449Y-94789819D02*
X140529449Y-94266009D01*
X140529449Y-94266009D02*
X140481830Y-94170771D01*
X140481830Y-94170771D02*
X140386592Y-94123152D01*
X140386592Y-94123152D02*
X140196116Y-94123152D01*
X140196116Y-94123152D02*
X140100878Y-94170771D01*
X140529449Y-94742200D02*
X140434211Y-94789819D01*
X140434211Y-94789819D02*
X140196116Y-94789819D01*
X140196116Y-94789819D02*
X140100878Y-94742200D01*
X140100878Y-94742200D02*
X140053259Y-94646961D01*
X140053259Y-94646961D02*
X140053259Y-94551723D01*
X140053259Y-94551723D02*
X140100878Y-94456485D01*
X140100878Y-94456485D02*
X140196116Y-94408866D01*
X140196116Y-94408866D02*
X140434211Y-94408866D01*
X140434211Y-94408866D02*
X140529449Y-94361247D01*
X141005640Y-94789819D02*
X141005640Y-94123152D01*
X141005640Y-94313628D02*
X141053259Y-94218390D01*
X141053259Y-94218390D02*
X141100878Y-94170771D01*
X141100878Y-94170771D02*
X141196116Y-94123152D01*
X141196116Y-94123152D02*
X141291354Y-94123152D01*
X142053259Y-94789819D02*
X142053259Y-93789819D01*
X142053259Y-94742200D02*
X141958021Y-94789819D01*
X141958021Y-94789819D02*
X141767545Y-94789819D01*
X141767545Y-94789819D02*
X141672307Y-94742200D01*
X141672307Y-94742200D02*
X141624688Y-94694580D01*
X141624688Y-94694580D02*
X141577069Y-94599342D01*
X141577069Y-94599342D02*
X141577069Y-94313628D01*
X141577069Y-94313628D02*
X141624688Y-94218390D01*
X141624688Y-94218390D02*
X141672307Y-94170771D01*
X141672307Y-94170771D02*
X141767545Y-94123152D01*
X141767545Y-94123152D02*
X141958021Y-94123152D01*
X141958021Y-94123152D02*
X142053259Y-94170771D01*
X143148498Y-93789819D02*
X143481831Y-94789819D01*
X143481831Y-94789819D02*
X143815164Y-93789819D01*
X145100879Y-93789819D02*
X145196117Y-93789819D01*
X145196117Y-93789819D02*
X145291355Y-93837438D01*
X145291355Y-93837438D02*
X145338974Y-93885057D01*
X145338974Y-93885057D02*
X145386593Y-93980295D01*
X145386593Y-93980295D02*
X145434212Y-94170771D01*
X145434212Y-94170771D02*
X145434212Y-94408866D01*
X145434212Y-94408866D02*
X145386593Y-94599342D01*
X145386593Y-94599342D02*
X145338974Y-94694580D01*
X145338974Y-94694580D02*
X145291355Y-94742200D01*
X145291355Y-94742200D02*
X145196117Y-94789819D01*
X145196117Y-94789819D02*
X145100879Y-94789819D01*
X145100879Y-94789819D02*
X145005641Y-94742200D01*
X145005641Y-94742200D02*
X144958022Y-94694580D01*
X144958022Y-94694580D02*
X144910403Y-94599342D01*
X144910403Y-94599342D02*
X144862784Y-94408866D01*
X144862784Y-94408866D02*
X144862784Y-94170771D01*
X144862784Y-94170771D02*
X144910403Y-93980295D01*
X144910403Y-93980295D02*
X144958022Y-93885057D01*
X144958022Y-93885057D02*
X145005641Y-93837438D01*
X145005641Y-93837438D02*
X145100879Y-93789819D01*
X145862784Y-94694580D02*
X145910403Y-94742200D01*
X145910403Y-94742200D02*
X145862784Y-94789819D01*
X145862784Y-94789819D02*
X145815165Y-94742200D01*
X145815165Y-94742200D02*
X145862784Y-94694580D01*
X145862784Y-94694580D02*
X145862784Y-94789819D01*
X146862783Y-94789819D02*
X146291355Y-94789819D01*
X146577069Y-94789819D02*
X146577069Y-93789819D01*
X146577069Y-93789819D02*
X146481831Y-93932676D01*
X146481831Y-93932676D02*
X146386593Y-94027914D01*
X146386593Y-94027914D02*
X146291355Y-94075533D01*
X117522819Y-85790333D02*
X118237104Y-85790333D01*
X118237104Y-85790333D02*
X118379961Y-85837952D01*
X118379961Y-85837952D02*
X118475200Y-85933190D01*
X118475200Y-85933190D02*
X118522819Y-86076047D01*
X118522819Y-86076047D02*
X118522819Y-86171285D01*
X117522819Y-85409380D02*
X117522819Y-84790333D01*
X117522819Y-84790333D02*
X117903771Y-85123666D01*
X117903771Y-85123666D02*
X117903771Y-84980809D01*
X117903771Y-84980809D02*
X117951390Y-84885571D01*
X117951390Y-84885571D02*
X117999009Y-84837952D01*
X117999009Y-84837952D02*
X118094247Y-84790333D01*
X118094247Y-84790333D02*
X118332342Y-84790333D01*
X118332342Y-84790333D02*
X118427580Y-84837952D01*
X118427580Y-84837952D02*
X118475200Y-84885571D01*
X118475200Y-84885571D02*
X118522819Y-84980809D01*
X118522819Y-84980809D02*
X118522819Y-85266523D01*
X118522819Y-85266523D02*
X118475200Y-85361761D01*
X118475200Y-85361761D02*
X118427580Y-85409380D01*
X146808819Y-57613357D02*
X146332628Y-57946690D01*
X146808819Y-58184785D02*
X145808819Y-58184785D01*
X145808819Y-58184785D02*
X145808819Y-57803833D01*
X145808819Y-57803833D02*
X145856438Y-57708595D01*
X145856438Y-57708595D02*
X145904057Y-57660976D01*
X145904057Y-57660976D02*
X145999295Y-57613357D01*
X145999295Y-57613357D02*
X146142152Y-57613357D01*
X146142152Y-57613357D02*
X146237390Y-57660976D01*
X146237390Y-57660976D02*
X146285009Y-57708595D01*
X146285009Y-57708595D02*
X146332628Y-57803833D01*
X146332628Y-57803833D02*
X146332628Y-58184785D01*
X146808819Y-56660976D02*
X146808819Y-57232404D01*
X146808819Y-56946690D02*
X145808819Y-56946690D01*
X145808819Y-56946690D02*
X145951676Y-57041928D01*
X145951676Y-57041928D02*
X146046914Y-57137166D01*
X146046914Y-57137166D02*
X146094533Y-57232404D01*
X145904057Y-56280023D02*
X145856438Y-56232404D01*
X145856438Y-56232404D02*
X145808819Y-56137166D01*
X145808819Y-56137166D02*
X145808819Y-55899071D01*
X145808819Y-55899071D02*
X145856438Y-55803833D01*
X145856438Y-55803833D02*
X145904057Y-55756214D01*
X145904057Y-55756214D02*
X145999295Y-55708595D01*
X145999295Y-55708595D02*
X146094533Y-55708595D01*
X146094533Y-55708595D02*
X146237390Y-55756214D01*
X146237390Y-55756214D02*
X146808819Y-56327642D01*
X146808819Y-56327642D02*
X146808819Y-55708595D01*
X143252819Y-57566357D02*
X142776628Y-57899690D01*
X143252819Y-58137785D02*
X142252819Y-58137785D01*
X142252819Y-58137785D02*
X142252819Y-57756833D01*
X142252819Y-57756833D02*
X142300438Y-57661595D01*
X142300438Y-57661595D02*
X142348057Y-57613976D01*
X142348057Y-57613976D02*
X142443295Y-57566357D01*
X142443295Y-57566357D02*
X142586152Y-57566357D01*
X142586152Y-57566357D02*
X142681390Y-57613976D01*
X142681390Y-57613976D02*
X142729009Y-57661595D01*
X142729009Y-57661595D02*
X142776628Y-57756833D01*
X142776628Y-57756833D02*
X142776628Y-58137785D01*
X143252819Y-56613976D02*
X143252819Y-57185404D01*
X143252819Y-56899690D02*
X142252819Y-56899690D01*
X142252819Y-56899690D02*
X142395676Y-56994928D01*
X142395676Y-56994928D02*
X142490914Y-57090166D01*
X142490914Y-57090166D02*
X142538533Y-57185404D01*
X142252819Y-55994928D02*
X142252819Y-55899690D01*
X142252819Y-55899690D02*
X142300438Y-55804452D01*
X142300438Y-55804452D02*
X142348057Y-55756833D01*
X142348057Y-55756833D02*
X142443295Y-55709214D01*
X142443295Y-55709214D02*
X142633771Y-55661595D01*
X142633771Y-55661595D02*
X142871866Y-55661595D01*
X142871866Y-55661595D02*
X143062342Y-55709214D01*
X143062342Y-55709214D02*
X143157580Y-55756833D01*
X143157580Y-55756833D02*
X143205200Y-55804452D01*
X143205200Y-55804452D02*
X143252819Y-55899690D01*
X143252819Y-55899690D02*
X143252819Y-55994928D01*
X143252819Y-55994928D02*
X143205200Y-56090166D01*
X143205200Y-56090166D02*
X143157580Y-56137785D01*
X143157580Y-56137785D02*
X143062342Y-56185404D01*
X143062342Y-56185404D02*
X142871866Y-56233023D01*
X142871866Y-56233023D02*
X142633771Y-56233023D01*
X142633771Y-56233023D02*
X142443295Y-56185404D01*
X142443295Y-56185404D02*
X142348057Y-56137785D01*
X142348057Y-56137785D02*
X142300438Y-56090166D01*
X142300438Y-56090166D02*
X142252819Y-55994928D01*
X131686996Y-57090166D02*
X131210805Y-57423499D01*
X131686996Y-57661594D02*
X130686996Y-57661594D01*
X130686996Y-57661594D02*
X130686996Y-57280642D01*
X130686996Y-57280642D02*
X130734615Y-57185404D01*
X130734615Y-57185404D02*
X130782234Y-57137785D01*
X130782234Y-57137785D02*
X130877472Y-57090166D01*
X130877472Y-57090166D02*
X131020329Y-57090166D01*
X131020329Y-57090166D02*
X131115567Y-57137785D01*
X131115567Y-57137785D02*
X131163186Y-57185404D01*
X131163186Y-57185404D02*
X131210805Y-57280642D01*
X131210805Y-57280642D02*
X131210805Y-57661594D01*
X131115567Y-56518737D02*
X131067948Y-56613975D01*
X131067948Y-56613975D02*
X131020329Y-56661594D01*
X131020329Y-56661594D02*
X130925091Y-56709213D01*
X130925091Y-56709213D02*
X130877472Y-56709213D01*
X130877472Y-56709213D02*
X130782234Y-56661594D01*
X130782234Y-56661594D02*
X130734615Y-56613975D01*
X130734615Y-56613975D02*
X130686996Y-56518737D01*
X130686996Y-56518737D02*
X130686996Y-56328261D01*
X130686996Y-56328261D02*
X130734615Y-56233023D01*
X130734615Y-56233023D02*
X130782234Y-56185404D01*
X130782234Y-56185404D02*
X130877472Y-56137785D01*
X130877472Y-56137785D02*
X130925091Y-56137785D01*
X130925091Y-56137785D02*
X131020329Y-56185404D01*
X131020329Y-56185404D02*
X131067948Y-56233023D01*
X131067948Y-56233023D02*
X131115567Y-56328261D01*
X131115567Y-56328261D02*
X131115567Y-56518737D01*
X131115567Y-56518737D02*
X131163186Y-56613975D01*
X131163186Y-56613975D02*
X131210805Y-56661594D01*
X131210805Y-56661594D02*
X131306043Y-56709213D01*
X131306043Y-56709213D02*
X131496519Y-56709213D01*
X131496519Y-56709213D02*
X131591757Y-56661594D01*
X131591757Y-56661594D02*
X131639377Y-56613975D01*
X131639377Y-56613975D02*
X131686996Y-56518737D01*
X131686996Y-56518737D02*
X131686996Y-56328261D01*
X131686996Y-56328261D02*
X131639377Y-56233023D01*
X131639377Y-56233023D02*
X131591757Y-56185404D01*
X131591757Y-56185404D02*
X131496519Y-56137785D01*
X131496519Y-56137785D02*
X131306043Y-56137785D01*
X131306043Y-56137785D02*
X131210805Y-56185404D01*
X131210805Y-56185404D02*
X131163186Y-56233023D01*
X131163186Y-56233023D02*
X131115567Y-56328261D01*
X146986819Y-86306333D02*
X147701104Y-86306333D01*
X147701104Y-86306333D02*
X147843961Y-86353952D01*
X147843961Y-86353952D02*
X147939200Y-86449190D01*
X147939200Y-86449190D02*
X147986819Y-86592047D01*
X147986819Y-86592047D02*
X147986819Y-86687285D01*
X146986819Y-85353952D02*
X146986819Y-85830142D01*
X146986819Y-85830142D02*
X147463009Y-85877761D01*
X147463009Y-85877761D02*
X147415390Y-85830142D01*
X147415390Y-85830142D02*
X147367771Y-85734904D01*
X147367771Y-85734904D02*
X147367771Y-85496809D01*
X147367771Y-85496809D02*
X147415390Y-85401571D01*
X147415390Y-85401571D02*
X147463009Y-85353952D01*
X147463009Y-85353952D02*
X147558247Y-85306333D01*
X147558247Y-85306333D02*
X147796342Y-85306333D01*
X147796342Y-85306333D02*
X147891580Y-85353952D01*
X147891580Y-85353952D02*
X147939200Y-85401571D01*
X147939200Y-85401571D02*
X147986819Y-85496809D01*
X147986819Y-85496809D02*
X147986819Y-85734904D01*
X147986819Y-85734904D02*
X147939200Y-85830142D01*
X147939200Y-85830142D02*
X147891580Y-85877761D01*
X112539981Y-57090166D02*
X112063790Y-57423499D01*
X112539981Y-57661594D02*
X111539981Y-57661594D01*
X111539981Y-57661594D02*
X111539981Y-57280642D01*
X111539981Y-57280642D02*
X111587600Y-57185404D01*
X111587600Y-57185404D02*
X111635219Y-57137785D01*
X111635219Y-57137785D02*
X111730457Y-57090166D01*
X111730457Y-57090166D02*
X111873314Y-57090166D01*
X111873314Y-57090166D02*
X111968552Y-57137785D01*
X111968552Y-57137785D02*
X112016171Y-57185404D01*
X112016171Y-57185404D02*
X112063790Y-57280642D01*
X112063790Y-57280642D02*
X112063790Y-57661594D01*
X111539981Y-56756832D02*
X111539981Y-56137785D01*
X111539981Y-56137785D02*
X111920933Y-56471118D01*
X111920933Y-56471118D02*
X111920933Y-56328261D01*
X111920933Y-56328261D02*
X111968552Y-56233023D01*
X111968552Y-56233023D02*
X112016171Y-56185404D01*
X112016171Y-56185404D02*
X112111409Y-56137785D01*
X112111409Y-56137785D02*
X112349504Y-56137785D01*
X112349504Y-56137785D02*
X112444742Y-56185404D01*
X112444742Y-56185404D02*
X112492362Y-56233023D01*
X112492362Y-56233023D02*
X112539981Y-56328261D01*
X112539981Y-56328261D02*
X112539981Y-56613975D01*
X112539981Y-56613975D02*
X112492362Y-56709213D01*
X112492362Y-56709213D02*
X112444742Y-56756832D01*
X120198787Y-57090166D02*
X119722596Y-57423499D01*
X120198787Y-57661594D02*
X119198787Y-57661594D01*
X119198787Y-57661594D02*
X119198787Y-57280642D01*
X119198787Y-57280642D02*
X119246406Y-57185404D01*
X119246406Y-57185404D02*
X119294025Y-57137785D01*
X119294025Y-57137785D02*
X119389263Y-57090166D01*
X119389263Y-57090166D02*
X119532120Y-57090166D01*
X119532120Y-57090166D02*
X119627358Y-57137785D01*
X119627358Y-57137785D02*
X119674977Y-57185404D01*
X119674977Y-57185404D02*
X119722596Y-57280642D01*
X119722596Y-57280642D02*
X119722596Y-57661594D01*
X119198787Y-56756832D02*
X119198787Y-56090166D01*
X119198787Y-56090166D02*
X120198787Y-56518737D01*
X150820819Y-71486904D02*
X151630342Y-71486904D01*
X151630342Y-71486904D02*
X151725580Y-71439285D01*
X151725580Y-71439285D02*
X151773200Y-71391666D01*
X151773200Y-71391666D02*
X151820819Y-71296428D01*
X151820819Y-71296428D02*
X151820819Y-71105952D01*
X151820819Y-71105952D02*
X151773200Y-71010714D01*
X151773200Y-71010714D02*
X151725580Y-70963095D01*
X151725580Y-70963095D02*
X151630342Y-70915476D01*
X151630342Y-70915476D02*
X150820819Y-70915476D01*
X150820819Y-70534523D02*
X150820819Y-69915476D01*
X150820819Y-69915476D02*
X151201771Y-70248809D01*
X151201771Y-70248809D02*
X151201771Y-70105952D01*
X151201771Y-70105952D02*
X151249390Y-70010714D01*
X151249390Y-70010714D02*
X151297009Y-69963095D01*
X151297009Y-69963095D02*
X151392247Y-69915476D01*
X151392247Y-69915476D02*
X151630342Y-69915476D01*
X151630342Y-69915476D02*
X151725580Y-69963095D01*
X151725580Y-69963095D02*
X151773200Y-70010714D01*
X151773200Y-70010714D02*
X151820819Y-70105952D01*
X151820819Y-70105952D02*
X151820819Y-70391666D01*
X151820819Y-70391666D02*
X151773200Y-70486904D01*
X151773200Y-70486904D02*
X151725580Y-70534523D01*
X116369384Y-57090166D02*
X115893193Y-57423499D01*
X116369384Y-57661594D02*
X115369384Y-57661594D01*
X115369384Y-57661594D02*
X115369384Y-57280642D01*
X115369384Y-57280642D02*
X115417003Y-57185404D01*
X115417003Y-57185404D02*
X115464622Y-57137785D01*
X115464622Y-57137785D02*
X115559860Y-57090166D01*
X115559860Y-57090166D02*
X115702717Y-57090166D01*
X115702717Y-57090166D02*
X115797955Y-57137785D01*
X115797955Y-57137785D02*
X115845574Y-57185404D01*
X115845574Y-57185404D02*
X115893193Y-57280642D01*
X115893193Y-57280642D02*
X115893193Y-57661594D01*
X115702717Y-56233023D02*
X116369384Y-56233023D01*
X115321765Y-56471118D02*
X116036050Y-56709213D01*
X116036050Y-56709213D02*
X116036050Y-56090166D01*
X154663414Y-57566357D02*
X154187223Y-57899690D01*
X154663414Y-58137785D02*
X153663414Y-58137785D01*
X153663414Y-58137785D02*
X153663414Y-57756833D01*
X153663414Y-57756833D02*
X153711033Y-57661595D01*
X153711033Y-57661595D02*
X153758652Y-57613976D01*
X153758652Y-57613976D02*
X153853890Y-57566357D01*
X153853890Y-57566357D02*
X153996747Y-57566357D01*
X153996747Y-57566357D02*
X154091985Y-57613976D01*
X154091985Y-57613976D02*
X154139604Y-57661595D01*
X154139604Y-57661595D02*
X154187223Y-57756833D01*
X154187223Y-57756833D02*
X154187223Y-58137785D01*
X154663414Y-56613976D02*
X154663414Y-57185404D01*
X154663414Y-56899690D02*
X153663414Y-56899690D01*
X153663414Y-56899690D02*
X153806271Y-56994928D01*
X153806271Y-56994928D02*
X153901509Y-57090166D01*
X153901509Y-57090166D02*
X153949128Y-57185404D01*
X153663414Y-56280642D02*
X153663414Y-55661595D01*
X153663414Y-55661595D02*
X154044366Y-55994928D01*
X154044366Y-55994928D02*
X154044366Y-55852071D01*
X154044366Y-55852071D02*
X154091985Y-55756833D01*
X154091985Y-55756833D02*
X154139604Y-55709214D01*
X154139604Y-55709214D02*
X154234842Y-55661595D01*
X154234842Y-55661595D02*
X154472937Y-55661595D01*
X154472937Y-55661595D02*
X154568175Y-55709214D01*
X154568175Y-55709214D02*
X154615795Y-55756833D01*
X154615795Y-55756833D02*
X154663414Y-55852071D01*
X154663414Y-55852071D02*
X154663414Y-56137785D01*
X154663414Y-56137785D02*
X154615795Y-56233023D01*
X154615795Y-56233023D02*
X154568175Y-56280642D01*
X160204819Y-86363333D02*
X160919104Y-86363333D01*
X160919104Y-86363333D02*
X161061961Y-86410952D01*
X161061961Y-86410952D02*
X161157200Y-86506190D01*
X161157200Y-86506190D02*
X161204819Y-86649047D01*
X161204819Y-86649047D02*
X161204819Y-86744285D01*
X160538152Y-85458571D02*
X161204819Y-85458571D01*
X160157200Y-85696666D02*
X160871485Y-85934761D01*
X160871485Y-85934761D02*
X160871485Y-85315714D01*
X124028190Y-57090166D02*
X123551999Y-57423499D01*
X124028190Y-57661594D02*
X123028190Y-57661594D01*
X123028190Y-57661594D02*
X123028190Y-57280642D01*
X123028190Y-57280642D02*
X123075809Y-57185404D01*
X123075809Y-57185404D02*
X123123428Y-57137785D01*
X123123428Y-57137785D02*
X123218666Y-57090166D01*
X123218666Y-57090166D02*
X123361523Y-57090166D01*
X123361523Y-57090166D02*
X123456761Y-57137785D01*
X123456761Y-57137785D02*
X123504380Y-57185404D01*
X123504380Y-57185404D02*
X123551999Y-57280642D01*
X123551999Y-57280642D02*
X123551999Y-57661594D01*
X123028190Y-56233023D02*
X123028190Y-56423499D01*
X123028190Y-56423499D02*
X123075809Y-56518737D01*
X123075809Y-56518737D02*
X123123428Y-56566356D01*
X123123428Y-56566356D02*
X123266285Y-56661594D01*
X123266285Y-56661594D02*
X123456761Y-56709213D01*
X123456761Y-56709213D02*
X123837713Y-56709213D01*
X123837713Y-56709213D02*
X123932951Y-56661594D01*
X123932951Y-56661594D02*
X123980571Y-56613975D01*
X123980571Y-56613975D02*
X124028190Y-56518737D01*
X124028190Y-56518737D02*
X124028190Y-56328261D01*
X124028190Y-56328261D02*
X123980571Y-56233023D01*
X123980571Y-56233023D02*
X123932951Y-56185404D01*
X123932951Y-56185404D02*
X123837713Y-56137785D01*
X123837713Y-56137785D02*
X123599618Y-56137785D01*
X123599618Y-56137785D02*
X123504380Y-56185404D01*
X123504380Y-56185404D02*
X123456761Y-56233023D01*
X123456761Y-56233023D02*
X123409142Y-56328261D01*
X123409142Y-56328261D02*
X123409142Y-56518737D01*
X123409142Y-56518737D02*
X123456761Y-56613975D01*
X123456761Y-56613975D02*
X123504380Y-56661594D01*
X123504380Y-56661594D02*
X123599618Y-56709213D01*
X122499819Y-70978904D02*
X123309342Y-70978904D01*
X123309342Y-70978904D02*
X123404580Y-70931285D01*
X123404580Y-70931285D02*
X123452200Y-70883666D01*
X123452200Y-70883666D02*
X123499819Y-70788428D01*
X123499819Y-70788428D02*
X123499819Y-70597952D01*
X123499819Y-70597952D02*
X123452200Y-70502714D01*
X123452200Y-70502714D02*
X123404580Y-70455095D01*
X123404580Y-70455095D02*
X123309342Y-70407476D01*
X123309342Y-70407476D02*
X122499819Y-70407476D01*
X122595057Y-69978904D02*
X122547438Y-69931285D01*
X122547438Y-69931285D02*
X122499819Y-69836047D01*
X122499819Y-69836047D02*
X122499819Y-69597952D01*
X122499819Y-69597952D02*
X122547438Y-69502714D01*
X122547438Y-69502714D02*
X122595057Y-69455095D01*
X122595057Y-69455095D02*
X122690295Y-69407476D01*
X122690295Y-69407476D02*
X122785533Y-69407476D01*
X122785533Y-69407476D02*
X122928390Y-69455095D01*
X122928390Y-69455095D02*
X123499819Y-70026523D01*
X123499819Y-70026523D02*
X123499819Y-69407476D01*
X127857593Y-57090166D02*
X127381402Y-57423499D01*
X127857593Y-57661594D02*
X126857593Y-57661594D01*
X126857593Y-57661594D02*
X126857593Y-57280642D01*
X126857593Y-57280642D02*
X126905212Y-57185404D01*
X126905212Y-57185404D02*
X126952831Y-57137785D01*
X126952831Y-57137785D02*
X127048069Y-57090166D01*
X127048069Y-57090166D02*
X127190926Y-57090166D01*
X127190926Y-57090166D02*
X127286164Y-57137785D01*
X127286164Y-57137785D02*
X127333783Y-57185404D01*
X127333783Y-57185404D02*
X127381402Y-57280642D01*
X127381402Y-57280642D02*
X127381402Y-57661594D01*
X126857593Y-56185404D02*
X126857593Y-56661594D01*
X126857593Y-56661594D02*
X127333783Y-56709213D01*
X127333783Y-56709213D02*
X127286164Y-56661594D01*
X127286164Y-56661594D02*
X127238545Y-56566356D01*
X127238545Y-56566356D02*
X127238545Y-56328261D01*
X127238545Y-56328261D02*
X127286164Y-56233023D01*
X127286164Y-56233023D02*
X127333783Y-56185404D01*
X127333783Y-56185404D02*
X127429021Y-56137785D01*
X127429021Y-56137785D02*
X127667116Y-56137785D01*
X127667116Y-56137785D02*
X127762354Y-56185404D01*
X127762354Y-56185404D02*
X127809974Y-56233023D01*
X127809974Y-56233023D02*
X127857593Y-56328261D01*
X127857593Y-56328261D02*
X127857593Y-56566356D01*
X127857593Y-56566356D02*
X127809974Y-56661594D01*
X127809974Y-56661594D02*
X127762354Y-56709213D01*
X135516399Y-57090166D02*
X135040208Y-57423499D01*
X135516399Y-57661594D02*
X134516399Y-57661594D01*
X134516399Y-57661594D02*
X134516399Y-57280642D01*
X134516399Y-57280642D02*
X134564018Y-57185404D01*
X134564018Y-57185404D02*
X134611637Y-57137785D01*
X134611637Y-57137785D02*
X134706875Y-57090166D01*
X134706875Y-57090166D02*
X134849732Y-57090166D01*
X134849732Y-57090166D02*
X134944970Y-57137785D01*
X134944970Y-57137785D02*
X134992589Y-57185404D01*
X134992589Y-57185404D02*
X135040208Y-57280642D01*
X135040208Y-57280642D02*
X135040208Y-57661594D01*
X135516399Y-56613975D02*
X135516399Y-56423499D01*
X135516399Y-56423499D02*
X135468780Y-56328261D01*
X135468780Y-56328261D02*
X135421160Y-56280642D01*
X135421160Y-56280642D02*
X135278303Y-56185404D01*
X135278303Y-56185404D02*
X135087827Y-56137785D01*
X135087827Y-56137785D02*
X134706875Y-56137785D01*
X134706875Y-56137785D02*
X134611637Y-56185404D01*
X134611637Y-56185404D02*
X134564018Y-56233023D01*
X134564018Y-56233023D02*
X134516399Y-56328261D01*
X134516399Y-56328261D02*
X134516399Y-56518737D01*
X134516399Y-56518737D02*
X134564018Y-56613975D01*
X134564018Y-56613975D02*
X134611637Y-56661594D01*
X134611637Y-56661594D02*
X134706875Y-56709213D01*
X134706875Y-56709213D02*
X134944970Y-56709213D01*
X134944970Y-56709213D02*
X135040208Y-56661594D01*
X135040208Y-56661594D02*
X135087827Y-56613975D01*
X135087827Y-56613975D02*
X135135446Y-56518737D01*
X135135446Y-56518737D02*
X135135446Y-56328261D01*
X135135446Y-56328261D02*
X135087827Y-56233023D01*
X135087827Y-56233023D02*
X135040208Y-56185404D01*
X135040208Y-56185404D02*
X134944970Y-56137785D01*
X139345802Y-57566357D02*
X138869611Y-57899690D01*
X139345802Y-58137785D02*
X138345802Y-58137785D01*
X138345802Y-58137785D02*
X138345802Y-57756833D01*
X138345802Y-57756833D02*
X138393421Y-57661595D01*
X138393421Y-57661595D02*
X138441040Y-57613976D01*
X138441040Y-57613976D02*
X138536278Y-57566357D01*
X138536278Y-57566357D02*
X138679135Y-57566357D01*
X138679135Y-57566357D02*
X138774373Y-57613976D01*
X138774373Y-57613976D02*
X138821992Y-57661595D01*
X138821992Y-57661595D02*
X138869611Y-57756833D01*
X138869611Y-57756833D02*
X138869611Y-58137785D01*
X139345802Y-56613976D02*
X139345802Y-57185404D01*
X139345802Y-56899690D02*
X138345802Y-56899690D01*
X138345802Y-56899690D02*
X138488659Y-56994928D01*
X138488659Y-56994928D02*
X138583897Y-57090166D01*
X138583897Y-57090166D02*
X138631516Y-57185404D01*
X139345802Y-55661595D02*
X139345802Y-56233023D01*
X139345802Y-55947309D02*
X138345802Y-55947309D01*
X138345802Y-55947309D02*
X138488659Y-56042547D01*
X138488659Y-56042547D02*
X138583897Y-56137785D01*
X138583897Y-56137785D02*
X138631516Y-56233023D01*
X129978819Y-85790333D02*
X130693104Y-85790333D01*
X130693104Y-85790333D02*
X130835961Y-85837952D01*
X130835961Y-85837952D02*
X130931200Y-85933190D01*
X130931200Y-85933190D02*
X130978819Y-86076047D01*
X130978819Y-86076047D02*
X130978819Y-86171285D01*
X130074057Y-85361761D02*
X130026438Y-85314142D01*
X130026438Y-85314142D02*
X129978819Y-85218904D01*
X129978819Y-85218904D02*
X129978819Y-84980809D01*
X129978819Y-84980809D02*
X130026438Y-84885571D01*
X130026438Y-84885571D02*
X130074057Y-84837952D01*
X130074057Y-84837952D02*
X130169295Y-84790333D01*
X130169295Y-84790333D02*
X130264533Y-84790333D01*
X130264533Y-84790333D02*
X130407390Y-84837952D01*
X130407390Y-84837952D02*
X130978819Y-85409380D01*
X130978819Y-85409380D02*
X130978819Y-84790333D01*
X158492819Y-57566357D02*
X158016628Y-57899690D01*
X158492819Y-58137785D02*
X157492819Y-58137785D01*
X157492819Y-58137785D02*
X157492819Y-57756833D01*
X157492819Y-57756833D02*
X157540438Y-57661595D01*
X157540438Y-57661595D02*
X157588057Y-57613976D01*
X157588057Y-57613976D02*
X157683295Y-57566357D01*
X157683295Y-57566357D02*
X157826152Y-57566357D01*
X157826152Y-57566357D02*
X157921390Y-57613976D01*
X157921390Y-57613976D02*
X157969009Y-57661595D01*
X157969009Y-57661595D02*
X158016628Y-57756833D01*
X158016628Y-57756833D02*
X158016628Y-58137785D01*
X158492819Y-56613976D02*
X158492819Y-57185404D01*
X158492819Y-56899690D02*
X157492819Y-56899690D01*
X157492819Y-56899690D02*
X157635676Y-56994928D01*
X157635676Y-56994928D02*
X157730914Y-57090166D01*
X157730914Y-57090166D02*
X157778533Y-57185404D01*
X157826152Y-55756833D02*
X158492819Y-55756833D01*
X157445200Y-55994928D02*
X158159485Y-56233023D01*
X158159485Y-56233023D02*
X158159485Y-55613976D01*
D19*
X117068000Y-84127000D02*
X117068000Y-85457000D01*
X115738000Y-84127000D02*
X117068000Y-84127000D01*
X114468000Y-84127000D02*
X106788000Y-84127000D01*
X114468000Y-84127000D02*
X114468000Y-86787000D01*
X106788000Y-84127000D02*
X106788000Y-86787000D01*
X114468000Y-86787000D02*
X106788000Y-86787000D01*
X145439000Y-56743436D02*
X145439000Y-57197564D01*
X143969000Y-56743436D02*
X143969000Y-57197564D01*
X141883000Y-56696436D02*
X141883000Y-57150564D01*
X140413000Y-56696436D02*
X140413000Y-57150564D01*
X130317177Y-56696436D02*
X130317177Y-57150564D01*
X128847177Y-56696436D02*
X128847177Y-57150564D01*
X146532000Y-84643000D02*
X146532000Y-85973000D01*
X145202000Y-84643000D02*
X146532000Y-84643000D01*
X143932000Y-84643000D02*
X136252000Y-84643000D01*
X143932000Y-84643000D02*
X143932000Y-87303000D01*
X136252000Y-84643000D02*
X136252000Y-87303000D01*
X143932000Y-87303000D02*
X136252000Y-87303000D01*
X111170162Y-56696436D02*
X111170162Y-57150564D01*
X109700162Y-56696436D02*
X109700162Y-57150564D01*
X118828968Y-56696436D02*
X118828968Y-57150564D01*
X117358968Y-56696436D02*
X117358968Y-57150564D01*
X150526000Y-70725000D02*
X150526000Y-67275000D01*
X150526000Y-70725000D02*
X150526000Y-72675000D01*
X140406000Y-70725000D02*
X140406000Y-68775000D01*
X140406000Y-70725000D02*
X140406000Y-72675000D01*
X114999565Y-56696436D02*
X114999565Y-57150564D01*
X113529565Y-56696436D02*
X113529565Y-57150564D01*
X153293595Y-56696436D02*
X153293595Y-57150564D01*
X151823595Y-56696436D02*
X151823595Y-57150564D01*
X159750000Y-84700000D02*
X159750000Y-86030000D01*
X158420000Y-84700000D02*
X159750000Y-84700000D01*
X157150000Y-84700000D02*
X149470000Y-84700000D01*
X157150000Y-84700000D02*
X157150000Y-87360000D01*
X149470000Y-84700000D02*
X149470000Y-87360000D01*
X157150000Y-87360000D02*
X149470000Y-87360000D01*
X122658371Y-56696436D02*
X122658371Y-57150564D01*
X121188371Y-56696436D02*
X121188371Y-57150564D01*
X122205000Y-70217000D02*
X122205000Y-66767000D01*
X122205000Y-70217000D02*
X122205000Y-72167000D01*
X112085000Y-70217000D02*
X112085000Y-68267000D01*
X112085000Y-70217000D02*
X112085000Y-72167000D01*
X126487774Y-56696436D02*
X126487774Y-57150564D01*
X125017774Y-56696436D02*
X125017774Y-57150564D01*
X134146580Y-56696436D02*
X134146580Y-57150564D01*
X132676580Y-56696436D02*
X132676580Y-57150564D01*
X137975983Y-56696436D02*
X137975983Y-57150564D01*
X136505983Y-56696436D02*
X136505983Y-57150564D01*
X129524000Y-84127000D02*
X129524000Y-85457000D01*
X128194000Y-84127000D02*
X129524000Y-84127000D01*
X126924000Y-84127000D02*
X119244000Y-84127000D01*
X126924000Y-84127000D02*
X126924000Y-86787000D01*
X119244000Y-84127000D02*
X119244000Y-86787000D01*
X126924000Y-86787000D02*
X119244000Y-86787000D01*
X157123000Y-56696436D02*
X157123000Y-57150564D01*
X155653000Y-56696436D02*
X155653000Y-57150564D01*
%LPC*%
D20*
X115738000Y-85457000D03*
D21*
X113198000Y-85457000D03*
X110658000Y-85457000D03*
X108118000Y-85457000D03*
D16*
X144704000Y-56058000D03*
X144704000Y-57883000D03*
D22*
X161500000Y-47500000D03*
D16*
X141148000Y-56011000D03*
X141148000Y-57836000D03*
X129582177Y-56011000D03*
X129582177Y-57836000D03*
D20*
X145202000Y-85973000D03*
D21*
X142662000Y-85973000D03*
X140122000Y-85973000D03*
X137582000Y-85973000D03*
D16*
X110435162Y-56011000D03*
X110435162Y-57836000D03*
X118093968Y-56011000D03*
X118093968Y-57836000D03*
D22*
X103500000Y-96500000D03*
D17*
X149911000Y-68250000D03*
X148641000Y-68250000D03*
X147371000Y-68250000D03*
X146101000Y-68250000D03*
X144831000Y-68250000D03*
X143561000Y-68250000D03*
X142291000Y-68250000D03*
X141021000Y-68250000D03*
X141021000Y-73200000D03*
X142291000Y-73200000D03*
X143561000Y-73200000D03*
X144831000Y-73200000D03*
X146101000Y-73200000D03*
X147371000Y-73200000D03*
X148641000Y-73200000D03*
X149911000Y-73200000D03*
D22*
X103500000Y-47500000D03*
D16*
X114264565Y-56011000D03*
X114264565Y-57836000D03*
X152558595Y-56011000D03*
X152558595Y-57836000D03*
D20*
X158420000Y-86030000D03*
D21*
X155880000Y-86030000D03*
X153340000Y-86030000D03*
X150800000Y-86030000D03*
D16*
X121923371Y-56011000D03*
X121923371Y-57836000D03*
D17*
X121590000Y-67742000D03*
X120320000Y-67742000D03*
X119050000Y-67742000D03*
X117780000Y-67742000D03*
X116510000Y-67742000D03*
X115240000Y-67742000D03*
X113970000Y-67742000D03*
X112700000Y-67742000D03*
X112700000Y-72692000D03*
X113970000Y-72692000D03*
X115240000Y-72692000D03*
X116510000Y-72692000D03*
X117780000Y-72692000D03*
X119050000Y-72692000D03*
X120320000Y-72692000D03*
X121590000Y-72692000D03*
D16*
X125752774Y-56011000D03*
X125752774Y-57836000D03*
D22*
X161500000Y-96500000D03*
D16*
X133411580Y-56011000D03*
X133411580Y-57836000D03*
X137240983Y-56011000D03*
X137240983Y-57836000D03*
D20*
X128194000Y-85457000D03*
D21*
X125654000Y-85457000D03*
X123114000Y-85457000D03*
X120574000Y-85457000D03*
D16*
X156388000Y-56011000D03*
X156388000Y-57836000D03*
D20*
X108370000Y-48770000D03*
D21*
X108370000Y-46230000D03*
X110910000Y-48770000D03*
X110910000Y-46230000D03*
X113450000Y-48770000D03*
X113450000Y-46230000D03*
X115990000Y-48770000D03*
X115990000Y-46230000D03*
X118530000Y-48770000D03*
X118530000Y-46230000D03*
X121070000Y-48770000D03*
X121070000Y-46230000D03*
X123610000Y-48770000D03*
X123610000Y-46230000D03*
X126150000Y-48770000D03*
X126150000Y-46230000D03*
X128690000Y-48770000D03*
X128690000Y-46230000D03*
X131230000Y-48770000D03*
X131230000Y-46230000D03*
X133770000Y-48770000D03*
X133770000Y-46230000D03*
X136310000Y-48770000D03*
X136310000Y-46230000D03*
X138850000Y-48770000D03*
X138850000Y-46230000D03*
X141390000Y-48770000D03*
X141390000Y-46230000D03*
X143930000Y-48770000D03*
X143930000Y-46230000D03*
X146470000Y-48770000D03*
X146470000Y-46230000D03*
X149010000Y-48770000D03*
X149010000Y-46230000D03*
X151550000Y-48770000D03*
X151550000Y-46230000D03*
X154090000Y-48770000D03*
X154090000Y-46230000D03*
X156630000Y-48770000D03*
X156630000Y-46230000D03*
%LPD*%
D18*
X108703333Y-50724819D02*
X108703333Y-51439104D01*
X108703333Y-51439104D02*
X108750952Y-51581961D01*
X108750952Y-51581961D02*
X108846190Y-51677200D01*
X108846190Y-51677200D02*
X108989047Y-51724819D01*
X108989047Y-51724819D02*
X109084285Y-51724819D01*
X107703333Y-51724819D02*
X108274761Y-51724819D01*
X107989047Y-51724819D02*
X107989047Y-50724819D01*
X107989047Y-50724819D02*
X108084285Y-50867676D01*
X108084285Y-50867676D02*
X108179523Y-50962914D01*
X108179523Y-50962914D02*
X108274761Y-51010533D01*
D19*
X157960000Y-44900000D02*
X157960000Y-50100000D01*
X107040000Y-44900000D02*
X157960000Y-44900000D01*
X107040000Y-44900000D02*
X107040000Y-47500000D01*
X109640000Y-47500000D02*
X109640000Y-50100000D01*
X107040000Y-47500000D02*
X109640000Y-47500000D01*
X107040000Y-48770000D02*
X107040000Y-50100000D01*
X109640000Y-50100000D02*
X157960000Y-50100000D01*
X107040000Y-50100000D02*
X108370000Y-50100000D01*
%LPC*%
D20*
X115738000Y-85457000D03*
D21*
X113198000Y-85457000D03*
X110658000Y-85457000D03*
X108118000Y-85457000D03*
D22*
X161500000Y-47500000D03*
D20*
X145202000Y-85973000D03*
D21*
X142662000Y-85973000D03*
X140122000Y-85973000D03*
X137582000Y-85973000D03*
D22*
X103500000Y-96500000D03*
X103500000Y-47500000D03*
D20*
X158420000Y-86030000D03*
D21*
X155880000Y-86030000D03*
X153340000Y-86030000D03*
X150800000Y-86030000D03*
D22*
X161500000Y-96500000D03*
D20*
X128194000Y-85457000D03*
D21*
X125654000Y-85457000D03*
X123114000Y-85457000D03*
X120574000Y-85457000D03*
D20*
X108370000Y-48770000D03*
D21*
X108370000Y-46230000D03*
X110910000Y-48770000D03*
X110910000Y-46230000D03*
X113450000Y-48770000D03*
X113450000Y-46230000D03*
X115990000Y-48770000D03*
X115990000Y-46230000D03*
X118530000Y-48770000D03*
X118530000Y-46230000D03*
X121070000Y-48770000D03*
X121070000Y-46230000D03*
X123610000Y-48770000D03*
X123610000Y-46230000D03*
X126150000Y-48770000D03*
X126150000Y-46230000D03*
X128690000Y-48770000D03*
X128690000Y-46230000D03*
X131230000Y-48770000D03*
X131230000Y-46230000D03*
X133770000Y-48770000D03*
X133770000Y-46230000D03*
X136310000Y-48770000D03*
X136310000Y-46230000D03*
X138850000Y-48770000D03*
X138850000Y-46230000D03*
X141390000Y-48770000D03*
X141390000Y-46230000D03*
X143930000Y-48770000D03*
X143930000Y-46230000D03*
X146470000Y-48770000D03*
X146470000Y-46230000D03*
X149010000Y-48770000D03*
X149010000Y-46230000D03*
X151550000Y-48770000D03*
X151550000Y-46230000D03*
X154090000Y-48770000D03*
X154090000Y-46230000D03*
X156630000Y-48770000D03*
X156630000Y-46230000D03*
%LPD*%
D20*
X115738000Y-85457000D03*
D21*
X113198000Y-85457000D03*
X110658000Y-85457000D03*
X108118000Y-85457000D03*
D16*
X144704000Y-56058000D03*
X144704000Y-57883000D03*
D22*
X161500000Y-47500000D03*
D16*
X141148000Y-56011000D03*
X141148000Y-57836000D03*
X129582177Y-56011000D03*
X129582177Y-57836000D03*
D20*
X145202000Y-85973000D03*
D21*
X142662000Y-85973000D03*
X140122000Y-85973000D03*
X137582000Y-85973000D03*
D16*
X110435162Y-56011000D03*
X110435162Y-57836000D03*
X118093968Y-56011000D03*
X118093968Y-57836000D03*
D22*
X103500000Y-96500000D03*
D17*
X149911000Y-68250000D03*
X148641000Y-68250000D03*
X147371000Y-68250000D03*
X146101000Y-68250000D03*
X144831000Y-68250000D03*
X143561000Y-68250000D03*
X142291000Y-68250000D03*
X141021000Y-68250000D03*
X141021000Y-73200000D03*
X142291000Y-73200000D03*
X143561000Y-73200000D03*
X144831000Y-73200000D03*
X146101000Y-73200000D03*
X147371000Y-73200000D03*
X148641000Y-73200000D03*
X149911000Y-73200000D03*
D22*
X103500000Y-47500000D03*
D16*
X114264565Y-56011000D03*
X114264565Y-57836000D03*
X152558595Y-56011000D03*
X152558595Y-57836000D03*
D20*
X158420000Y-86030000D03*
D21*
X155880000Y-86030000D03*
X153340000Y-86030000D03*
X150800000Y-86030000D03*
D16*
X121923371Y-56011000D03*
X121923371Y-57836000D03*
D17*
X121590000Y-67742000D03*
X120320000Y-67742000D03*
X119050000Y-67742000D03*
X117780000Y-67742000D03*
X116510000Y-67742000D03*
X115240000Y-67742000D03*
X113970000Y-67742000D03*
X112700000Y-67742000D03*
X112700000Y-72692000D03*
X113970000Y-72692000D03*
X115240000Y-72692000D03*
X116510000Y-72692000D03*
X117780000Y-72692000D03*
X119050000Y-72692000D03*
X120320000Y-72692000D03*
X121590000Y-72692000D03*
D16*
X125752774Y-56011000D03*
X125752774Y-57836000D03*
D22*
X161500000Y-96500000D03*
D16*
X133411580Y-56011000D03*
X133411580Y-57836000D03*
X137240983Y-56011000D03*
X137240983Y-57836000D03*
D20*
X128194000Y-85457000D03*
D21*
X125654000Y-85457000D03*
X123114000Y-85457000D03*
X120574000Y-85457000D03*
D16*
X156388000Y-56011000D03*
X156388000Y-57836000D03*
D20*
X108370000Y-48770000D03*
D21*
X108370000Y-46230000D03*
X110910000Y-48770000D03*
X110910000Y-46230000D03*
X113450000Y-48770000D03*
X113450000Y-46230000D03*
X115990000Y-48770000D03*
X115990000Y-46230000D03*
X118530000Y-48770000D03*
X118530000Y-46230000D03*
X121070000Y-48770000D03*
X121070000Y-46230000D03*
X123610000Y-48770000D03*
X123610000Y-46230000D03*
X126150000Y-48770000D03*
X126150000Y-46230000D03*
X128690000Y-48770000D03*
X128690000Y-46230000D03*
X131230000Y-48770000D03*
X131230000Y-46230000D03*
X133770000Y-48770000D03*
X133770000Y-46230000D03*
X136310000Y-48770000D03*
X136310000Y-46230000D03*
X138850000Y-48770000D03*
X138850000Y-46230000D03*
X141390000Y-48770000D03*
X141390000Y-46230000D03*
X143930000Y-48770000D03*
X143930000Y-46230000D03*
X146470000Y-48770000D03*
X146470000Y-46230000D03*
X149010000Y-48770000D03*
X149010000Y-46230000D03*
X151550000Y-48770000D03*
X151550000Y-46230000D03*
X154090000Y-48770000D03*
X154090000Y-46230000D03*
X156630000Y-48770000D03*
X156630000Y-46230000D03*
D20*
X115738000Y-85457000D03*
D21*
X113198000Y-85457000D03*
X110658000Y-85457000D03*
X108118000Y-85457000D03*
D22*
X161500000Y-47500000D03*
D20*
X145202000Y-85973000D03*
D21*
X142662000Y-85973000D03*
X140122000Y-85973000D03*
X137582000Y-85973000D03*
D22*
X103500000Y-96500000D03*
X103500000Y-47500000D03*
D20*
X158420000Y-86030000D03*
D21*
X155880000Y-86030000D03*
X153340000Y-86030000D03*
X150800000Y-86030000D03*
D22*
X161500000Y-96500000D03*
D20*
X128194000Y-85457000D03*
D21*
X125654000Y-85457000D03*
X123114000Y-85457000D03*
X120574000Y-85457000D03*
D20*
X108370000Y-48770000D03*
D21*
X108370000Y-46230000D03*
X110910000Y-48770000D03*
X110910000Y-46230000D03*
X113450000Y-48770000D03*
X113450000Y-46230000D03*
X115990000Y-48770000D03*
X115990000Y-46230000D03*
X118530000Y-48770000D03*
X118530000Y-46230000D03*
X121070000Y-48770000D03*
X121070000Y-46230000D03*
X123610000Y-48770000D03*
X123610000Y-46230000D03*
X126150000Y-48770000D03*
X126150000Y-46230000D03*
X128690000Y-48770000D03*
X128690000Y-46230000D03*
X131230000Y-48770000D03*
X131230000Y-46230000D03*
X133770000Y-48770000D03*
X133770000Y-46230000D03*
X136310000Y-48770000D03*
X136310000Y-46230000D03*
X138850000Y-48770000D03*
X138850000Y-46230000D03*
X141390000Y-48770000D03*
X141390000Y-46230000D03*
X143930000Y-48770000D03*
X143930000Y-46230000D03*
X146470000Y-48770000D03*
X146470000Y-46230000D03*
X149010000Y-48770000D03*
X149010000Y-46230000D03*
X151550000Y-48770000D03*
X151550000Y-46230000D03*
X154090000Y-48770000D03*
X154090000Y-46230000D03*
X156630000Y-48770000D03*
X156630000Y-46230000D03*
D23*
X165000000Y-47000000D02*
G75*
G03*
X162000000Y-44000000I-3000000J0D01*
G01*
X165000000Y-97000000D02*
X165000000Y-47000000D01*
X100000000Y-47000000D02*
X100000000Y-81000000D01*
X100000000Y-97000000D02*
G75*
G03*
X103000000Y-100000000I3000000J0D01*
G01*
X103000000Y-100000000D02*
X162000000Y-100000000D01*
X162000000Y-100000000D02*
G75*
G03*
X165000000Y-97000000I0J3000000D01*
G01*
X103000000Y-44000000D02*
G75*
G03*
X100000000Y-47000000I0J-3000000D01*
G01*
X100000000Y-81000000D02*
X100000000Y-97000000D01*
X162000000Y-44000000D02*
X103000000Y-44000000D01*
M02*
