M48
; DRILL file {KiCad 7.0.8} date 2023 November 16, Thursday 11:09:46
; FORMAT={-:-/ absolute / metric / decimal}
; #@! TF.CreationDate,2023-11-16T11:09:46+00:00
; #@! TF.GenerationSoftware,Kicad,Pcbnew,7.0.8
; #@! TF.FileFunction,Plated,1,2,PTH
FMAT,2
METRIC
; #@! TA.AperFunction,Plated,PTH,ViaDrill
T1C0.600
; #@! TA.AperFunction,Plated,PTH,ComponentDrill
T2C1.000
%
G90
G05
T1
X111.176Y-67.423
X112.7Y-59.106
X114.986Y-59.868
X118.542Y-59.868
X119.05Y-69.52
X120.32Y-65.456
X124.892Y-60.884
X125.908Y-55.042
X128.702Y-60.884
X128.702Y-63.424
X129.972Y-52.248
X137.338Y-53.264
X138.608Y-59.868
X140.132Y-52.756
X140.386Y-66.472
X143.18Y-61.646
X148.641Y-64.567
X149.784Y-61.646
T2
X108.118Y-85.457
X108.37Y-46.23
X108.37Y-48.77
X110.658Y-85.457
X110.91Y-46.23
X110.91Y-48.77
X113.198Y-85.457
X113.45Y-46.23
X113.45Y-48.77
X115.738Y-85.457
X115.99Y-46.23
X115.99Y-48.77
X118.53Y-46.23
X118.53Y-48.77
X120.574Y-85.457
X121.07Y-46.23
X121.07Y-48.77
X123.114Y-85.457
X123.61Y-46.23
X123.61Y-48.77
X125.654Y-85.457
X126.15Y-46.23
X126.15Y-48.77
X128.194Y-85.457
X128.69Y-46.23
X128.69Y-48.77
X131.23Y-46.23
X131.23Y-48.77
X133.77Y-46.23
X133.77Y-48.77
X136.31Y-46.23
X136.31Y-48.77
X137.582Y-85.973
X138.85Y-46.23
X138.85Y-48.77
X140.122Y-85.973
X141.39Y-46.23
X141.39Y-48.77
X142.662Y-85.973
X143.93Y-46.23
X143.93Y-48.77
X145.202Y-85.973
X146.47Y-46.23
X146.47Y-48.77
X149.01Y-46.23
X149.01Y-48.77
X150.8Y-86.03
X151.55Y-46.23
X151.55Y-48.77
X153.34Y-86.03
X154.09Y-46.23
X154.09Y-48.77
X155.88Y-86.03
X156.63Y-46.23
X156.63Y-48.77
X158.42Y-86.03
T0
M30
