M48
; DRILL file {KiCad 7.0.8} date 2023 November 16, Thursday 17:33:38
; FORMAT={-:-/ absolute / inch / decimal}
; #@! TF.CreationDate,2023-11-16T17:33:38+00:00
; #@! TF.GenerationSoftware,Kicad,Pcbnew,7.0.8
; #@! TF.FileFunction,Plated,1,2,PTH
FMAT,2
INCH
; #@! TA.AperFunction,Plated,PTH,ViaDrill
T1C0.0236
; #@! TA.AperFunction,Plated,PTH,ComponentDrill
T2C0.0394
%
G90
G05
T1
X4.377Y-2.6544
X4.437Y-2.327
X4.527Y-2.357
X4.667Y-2.357
X4.687Y-2.737
X4.737Y-2.577
X4.917Y-2.397
X4.957Y-2.167
X5.067Y-2.397
X5.067Y-2.497
X5.117Y-2.057
X5.407Y-2.097
X5.457Y-2.357
X5.517Y-2.077
X5.527Y-2.617
X5.637Y-2.427
X5.852Y-2.542
X5.897Y-2.427
T2
X4.2566Y-3.3644
X4.2665Y-1.8201
X4.2665Y-1.9201
X4.3566Y-3.3644
X4.3665Y-1.8201
X4.3665Y-1.9201
X4.4566Y-3.3644
X4.4665Y-1.8201
X4.4665Y-1.9201
X4.5566Y-3.3644
X4.5665Y-1.8201
X4.5665Y-1.9201
X4.6665Y-1.8201
X4.6665Y-1.9201
X4.7665Y-1.8201
X4.7665Y-1.9201
X4.837Y-3.3644
X4.8665Y-1.8201
X4.8665Y-1.9201
X4.937Y-3.3644
X4.9665Y-1.8201
X4.9665Y-1.9201
X5.037Y-3.3644
X5.0665Y-1.8201
X5.0665Y-1.9201
X5.137Y-3.3644
X5.1665Y-1.8201
X5.1665Y-1.9201
X5.2665Y-1.8201
X5.2665Y-1.9201
X5.3665Y-1.8201
X5.3665Y-1.9201
X5.4166Y-3.3848
X5.4665Y-1.8201
X5.4665Y-1.9201
X5.5166Y-3.3848
X5.5665Y-1.8201
X5.5665Y-1.9201
X5.6166Y-3.3848
X5.6665Y-1.8201
X5.6665Y-1.9201
X5.7166Y-3.3848
X5.7665Y-1.8201
X5.7665Y-1.9201
X5.8665Y-1.8201
X5.8665Y-1.9201
X5.937Y-3.387
X5.9665Y-1.8201
X5.9665Y-1.9201
X6.037Y-3.387
X6.0665Y-1.8201
X6.0665Y-1.9201
X6.137Y-3.387
X6.1665Y-1.8201
X6.1665Y-1.9201
X6.237Y-3.387
T0
M30
