%TF.GenerationSoftware,KiCad,Pcbnew,7.0.8*%
%TF.CreationDate,2023-11-16T17:33:39+00:00*%
%TF.ProjectId,ActionServer,41637469-6f6e-4536-9572-7665722e6b69,rev?*%
%TF.SameCoordinates,Original*%
%TF.FileFunction,Drillmap*%
%TF.FilePolarity,Positive*%
%FSLAX45Y45*%
G04 Gerber Fmt 4.5, Leading zero omitted, Abs format (unit mm)*
G04 Created by KiCad (PCBNEW 7.0.8) date 2023-11-16 17:33:39*
%MOMM*%
%LPD*%
G01*
G04 APERTURE LIST*
%ADD10C,0.100000*%
%ADD11C,0.200000*%
%ADD12C,0.060000*%
G04 APERTURE END LIST*
D10*
X16500000Y-4700000D02*
G75*
G03*
X16200000Y-4400000I-300000J0D01*
G01*
X16500000Y-9700000D02*
X16500000Y-4700000D01*
X10000000Y-4700000D02*
X10000000Y-8100000D01*
X10000000Y-9700000D02*
G75*
G03*
X10300000Y-10000000I300000J0D01*
G01*
X10300000Y-10000000D02*
X16200000Y-10000000D01*
X16200000Y-10000000D02*
G75*
G03*
X16500000Y-9700000I0J300000D01*
G01*
X10300000Y-4400000D02*
G75*
G03*
X10000000Y-4700000I0J-300000D01*
G01*
X10000000Y-8100000D02*
X10000000Y-9700000D01*
X16200000Y-4400000D02*
X10300000Y-4400000D01*
D11*
D12*
X11087600Y-6712300D02*
X11147600Y-6772300D01*
X11147600Y-6712300D02*
X11087600Y-6772300D01*
X11240000Y-5880600D02*
X11300000Y-5940600D01*
X11300000Y-5880600D02*
X11240000Y-5940600D01*
X11468600Y-5956800D02*
X11528600Y-6016800D01*
X11528600Y-5956800D02*
X11468600Y-6016800D01*
X11824200Y-5956800D02*
X11884200Y-6016800D01*
X11884200Y-5956800D02*
X11824200Y-6016800D01*
X11875000Y-6922000D02*
X11935000Y-6982000D01*
X11935000Y-6922000D02*
X11875000Y-6982000D01*
X12002000Y-6515600D02*
X12062000Y-6575600D01*
X12062000Y-6515600D02*
X12002000Y-6575600D01*
X12459200Y-6058400D02*
X12519200Y-6118400D01*
X12519200Y-6058400D02*
X12459200Y-6118400D01*
X12560800Y-5474200D02*
X12620800Y-5534200D01*
X12620800Y-5474200D02*
X12560800Y-5534200D01*
X12840200Y-6058400D02*
X12900200Y-6118400D01*
X12900200Y-6058400D02*
X12840200Y-6118400D01*
X12840200Y-6312400D02*
X12900200Y-6372400D01*
X12900200Y-6312400D02*
X12840200Y-6372400D01*
X12967200Y-5194800D02*
X13027200Y-5254800D01*
X13027200Y-5194800D02*
X12967200Y-5254800D01*
X13703800Y-5296400D02*
X13763800Y-5356400D01*
X13763800Y-5296400D02*
X13703800Y-5356400D01*
X13830800Y-5956800D02*
X13890800Y-6016800D01*
X13890800Y-5956800D02*
X13830800Y-6016800D01*
X13983200Y-5245600D02*
X14043200Y-5305600D01*
X14043200Y-5245600D02*
X13983200Y-5305600D01*
X14008600Y-6617200D02*
X14068600Y-6677200D01*
X14068600Y-6617200D02*
X14008600Y-6677200D01*
X14288000Y-6134600D02*
X14348000Y-6194600D01*
X14348000Y-6134600D02*
X14288000Y-6194600D01*
X14834100Y-6426700D02*
X14894100Y-6486700D01*
X14894100Y-6426700D02*
X14834100Y-6486700D01*
X14948400Y-6134600D02*
X15008400Y-6194600D01*
X15008400Y-6134600D02*
X14948400Y-6194600D01*
D10*
X10861800Y-8545700D02*
G75*
G03*
X10861800Y-8545700I-50000J0D01*
G01*
X10887000Y-4623000D02*
G75*
G03*
X10887000Y-4623000I-50000J0D01*
G01*
X10887000Y-4877000D02*
G75*
G03*
X10887000Y-4877000I-50000J0D01*
G01*
X11115800Y-8545700D02*
G75*
G03*
X11115800Y-8545700I-50000J0D01*
G01*
X11141000Y-4623000D02*
G75*
G03*
X11141000Y-4623000I-50000J0D01*
G01*
X11141000Y-4877000D02*
G75*
G03*
X11141000Y-4877000I-50000J0D01*
G01*
X11369800Y-8545700D02*
G75*
G03*
X11369800Y-8545700I-50000J0D01*
G01*
X11395000Y-4623000D02*
G75*
G03*
X11395000Y-4623000I-50000J0D01*
G01*
X11395000Y-4877000D02*
G75*
G03*
X11395000Y-4877000I-50000J0D01*
G01*
X11623800Y-8545700D02*
G75*
G03*
X11623800Y-8545700I-50000J0D01*
G01*
X11649000Y-4623000D02*
G75*
G03*
X11649000Y-4623000I-50000J0D01*
G01*
X11649000Y-4877000D02*
G75*
G03*
X11649000Y-4877000I-50000J0D01*
G01*
X11903000Y-4623000D02*
G75*
G03*
X11903000Y-4623000I-50000J0D01*
G01*
X11903000Y-4877000D02*
G75*
G03*
X11903000Y-4877000I-50000J0D01*
G01*
X12157000Y-4623000D02*
G75*
G03*
X12157000Y-4623000I-50000J0D01*
G01*
X12157000Y-4877000D02*
G75*
G03*
X12157000Y-4877000I-50000J0D01*
G01*
X12336000Y-8545700D02*
G75*
G03*
X12336000Y-8545700I-50000J0D01*
G01*
X12411000Y-4623000D02*
G75*
G03*
X12411000Y-4623000I-50000J0D01*
G01*
X12411000Y-4877000D02*
G75*
G03*
X12411000Y-4877000I-50000J0D01*
G01*
X12590000Y-8545700D02*
G75*
G03*
X12590000Y-8545700I-50000J0D01*
G01*
X12665000Y-4623000D02*
G75*
G03*
X12665000Y-4623000I-50000J0D01*
G01*
X12665000Y-4877000D02*
G75*
G03*
X12665000Y-4877000I-50000J0D01*
G01*
X12844000Y-8545700D02*
G75*
G03*
X12844000Y-8545700I-50000J0D01*
G01*
X12919000Y-4623000D02*
G75*
G03*
X12919000Y-4623000I-50000J0D01*
G01*
X12919000Y-4877000D02*
G75*
G03*
X12919000Y-4877000I-50000J0D01*
G01*
X13098000Y-8545700D02*
G75*
G03*
X13098000Y-8545700I-50000J0D01*
G01*
X13173000Y-4623000D02*
G75*
G03*
X13173000Y-4623000I-50000J0D01*
G01*
X13173000Y-4877000D02*
G75*
G03*
X13173000Y-4877000I-50000J0D01*
G01*
X13427000Y-4623000D02*
G75*
G03*
X13427000Y-4623000I-50000J0D01*
G01*
X13427000Y-4877000D02*
G75*
G03*
X13427000Y-4877000I-50000J0D01*
G01*
X13681000Y-4623000D02*
G75*
G03*
X13681000Y-4623000I-50000J0D01*
G01*
X13681000Y-4877000D02*
G75*
G03*
X13681000Y-4877000I-50000J0D01*
G01*
X13808200Y-8597300D02*
G75*
G03*
X13808200Y-8597300I-50000J0D01*
G01*
X13935000Y-4623000D02*
G75*
G03*
X13935000Y-4623000I-50000J0D01*
G01*
X13935000Y-4877000D02*
G75*
G03*
X13935000Y-4877000I-50000J0D01*
G01*
X14062200Y-8597300D02*
G75*
G03*
X14062200Y-8597300I-50000J0D01*
G01*
X14189000Y-4623000D02*
G75*
G03*
X14189000Y-4623000I-50000J0D01*
G01*
X14189000Y-4877000D02*
G75*
G03*
X14189000Y-4877000I-50000J0D01*
G01*
X14316200Y-8597300D02*
G75*
G03*
X14316200Y-8597300I-50000J0D01*
G01*
X14443000Y-4623000D02*
G75*
G03*
X14443000Y-4623000I-50000J0D01*
G01*
X14443000Y-4877000D02*
G75*
G03*
X14443000Y-4877000I-50000J0D01*
G01*
X14570200Y-8597300D02*
G75*
G03*
X14570200Y-8597300I-50000J0D01*
G01*
X14697000Y-4623000D02*
G75*
G03*
X14697000Y-4623000I-50000J0D01*
G01*
X14697000Y-4877000D02*
G75*
G03*
X14697000Y-4877000I-50000J0D01*
G01*
X14951000Y-4623000D02*
G75*
G03*
X14951000Y-4623000I-50000J0D01*
G01*
X14951000Y-4877000D02*
G75*
G03*
X14951000Y-4877000I-50000J0D01*
G01*
X15130000Y-8603000D02*
G75*
G03*
X15130000Y-8603000I-50000J0D01*
G01*
X15205000Y-4623000D02*
G75*
G03*
X15205000Y-4623000I-50000J0D01*
G01*
X15205000Y-4877000D02*
G75*
G03*
X15205000Y-4877000I-50000J0D01*
G01*
X15384000Y-8603000D02*
G75*
G03*
X15384000Y-8603000I-50000J0D01*
G01*
X15459000Y-4623000D02*
G75*
G03*
X15459000Y-4623000I-50000J0D01*
G01*
X15459000Y-4877000D02*
G75*
G03*
X15459000Y-4877000I-50000J0D01*
G01*
X15638000Y-8603000D02*
G75*
G03*
X15638000Y-8603000I-50000J0D01*
G01*
X15713000Y-4623000D02*
G75*
G03*
X15713000Y-4623000I-50000J0D01*
G01*
X15713000Y-4877000D02*
G75*
G03*
X15713000Y-4877000I-50000J0D01*
G01*
X15892000Y-8603000D02*
G75*
G03*
X15892000Y-8603000I-50000J0D01*
G01*
D11*
X10255777Y-10316484D02*
X10255777Y-10116484D01*
X10255777Y-10116484D02*
X10303396Y-10116484D01*
X10303396Y-10116484D02*
X10331967Y-10126008D01*
X10331967Y-10126008D02*
X10351015Y-10145055D01*
X10351015Y-10145055D02*
X10360539Y-10164103D01*
X10360539Y-10164103D02*
X10370063Y-10202198D01*
X10370063Y-10202198D02*
X10370063Y-10230770D01*
X10370063Y-10230770D02*
X10360539Y-10268865D01*
X10360539Y-10268865D02*
X10351015Y-10287912D01*
X10351015Y-10287912D02*
X10331967Y-10306960D01*
X10331967Y-10306960D02*
X10303396Y-10316484D01*
X10303396Y-10316484D02*
X10255777Y-10316484D01*
X10455777Y-10316484D02*
X10455777Y-10183150D01*
X10455777Y-10221246D02*
X10465301Y-10202198D01*
X10465301Y-10202198D02*
X10474824Y-10192674D01*
X10474824Y-10192674D02*
X10493872Y-10183150D01*
X10493872Y-10183150D02*
X10512920Y-10183150D01*
X10579586Y-10316484D02*
X10579586Y-10183150D01*
X10579586Y-10116484D02*
X10570063Y-10126008D01*
X10570063Y-10126008D02*
X10579586Y-10135531D01*
X10579586Y-10135531D02*
X10589110Y-10126008D01*
X10589110Y-10126008D02*
X10579586Y-10116484D01*
X10579586Y-10116484D02*
X10579586Y-10135531D01*
X10703396Y-10316484D02*
X10684348Y-10306960D01*
X10684348Y-10306960D02*
X10674824Y-10287912D01*
X10674824Y-10287912D02*
X10674824Y-10116484D01*
X10808158Y-10316484D02*
X10789110Y-10306960D01*
X10789110Y-10306960D02*
X10779586Y-10287912D01*
X10779586Y-10287912D02*
X10779586Y-10116484D01*
X11036729Y-10316484D02*
X11036729Y-10116484D01*
X11036729Y-10116484D02*
X11103396Y-10259341D01*
X11103396Y-10259341D02*
X11170063Y-10116484D01*
X11170063Y-10116484D02*
X11170063Y-10316484D01*
X11351015Y-10316484D02*
X11351015Y-10211722D01*
X11351015Y-10211722D02*
X11341491Y-10192674D01*
X11341491Y-10192674D02*
X11322443Y-10183150D01*
X11322443Y-10183150D02*
X11284348Y-10183150D01*
X11284348Y-10183150D02*
X11265301Y-10192674D01*
X11351015Y-10306960D02*
X11331967Y-10316484D01*
X11331967Y-10316484D02*
X11284348Y-10316484D01*
X11284348Y-10316484D02*
X11265301Y-10306960D01*
X11265301Y-10306960D02*
X11255777Y-10287912D01*
X11255777Y-10287912D02*
X11255777Y-10268865D01*
X11255777Y-10268865D02*
X11265301Y-10249817D01*
X11265301Y-10249817D02*
X11284348Y-10240293D01*
X11284348Y-10240293D02*
X11331967Y-10240293D01*
X11331967Y-10240293D02*
X11351015Y-10230770D01*
X11446253Y-10183150D02*
X11446253Y-10383150D01*
X11446253Y-10192674D02*
X11465301Y-10183150D01*
X11465301Y-10183150D02*
X11503396Y-10183150D01*
X11503396Y-10183150D02*
X11522443Y-10192674D01*
X11522443Y-10192674D02*
X11531967Y-10202198D01*
X11531967Y-10202198D02*
X11541491Y-10221246D01*
X11541491Y-10221246D02*
X11541491Y-10278389D01*
X11541491Y-10278389D02*
X11531967Y-10297436D01*
X11531967Y-10297436D02*
X11522443Y-10306960D01*
X11522443Y-10306960D02*
X11503396Y-10316484D01*
X11503396Y-10316484D02*
X11465301Y-10316484D01*
X11465301Y-10316484D02*
X11446253Y-10306960D01*
X11627205Y-10297436D02*
X11636729Y-10306960D01*
X11636729Y-10306960D02*
X11627205Y-10316484D01*
X11627205Y-10316484D02*
X11617682Y-10306960D01*
X11617682Y-10306960D02*
X11627205Y-10297436D01*
X11627205Y-10297436D02*
X11627205Y-10316484D01*
X11627205Y-10192674D02*
X11636729Y-10202198D01*
X11636729Y-10202198D02*
X11627205Y-10211722D01*
X11627205Y-10211722D02*
X11617682Y-10202198D01*
X11617682Y-10202198D02*
X11627205Y-10192674D01*
X11627205Y-10192674D02*
X11627205Y-10211722D01*
D12*
X9935000Y-10615000D02*
X9995000Y-10675000D01*
X9995000Y-10615000D02*
X9935000Y-10675000D01*
D11*
X10293872Y-10536484D02*
X10312920Y-10536484D01*
X10312920Y-10536484D02*
X10331967Y-10546008D01*
X10331967Y-10546008D02*
X10341491Y-10555531D01*
X10341491Y-10555531D02*
X10351015Y-10574579D01*
X10351015Y-10574579D02*
X10360539Y-10612674D01*
X10360539Y-10612674D02*
X10360539Y-10660293D01*
X10360539Y-10660293D02*
X10351015Y-10698389D01*
X10351015Y-10698389D02*
X10341491Y-10717436D01*
X10341491Y-10717436D02*
X10331967Y-10726960D01*
X10331967Y-10726960D02*
X10312920Y-10736484D01*
X10312920Y-10736484D02*
X10293872Y-10736484D01*
X10293872Y-10736484D02*
X10274824Y-10726960D01*
X10274824Y-10726960D02*
X10265301Y-10717436D01*
X10265301Y-10717436D02*
X10255777Y-10698389D01*
X10255777Y-10698389D02*
X10246253Y-10660293D01*
X10246253Y-10660293D02*
X10246253Y-10612674D01*
X10246253Y-10612674D02*
X10255777Y-10574579D01*
X10255777Y-10574579D02*
X10265301Y-10555531D01*
X10265301Y-10555531D02*
X10274824Y-10546008D01*
X10274824Y-10546008D02*
X10293872Y-10536484D01*
X10446253Y-10717436D02*
X10455777Y-10726960D01*
X10455777Y-10726960D02*
X10446253Y-10736484D01*
X10446253Y-10736484D02*
X10436729Y-10726960D01*
X10436729Y-10726960D02*
X10446253Y-10717436D01*
X10446253Y-10717436D02*
X10446253Y-10736484D01*
X10627205Y-10536484D02*
X10589110Y-10536484D01*
X10589110Y-10536484D02*
X10570063Y-10546008D01*
X10570063Y-10546008D02*
X10560539Y-10555531D01*
X10560539Y-10555531D02*
X10541491Y-10584103D01*
X10541491Y-10584103D02*
X10531967Y-10622198D01*
X10531967Y-10622198D02*
X10531967Y-10698389D01*
X10531967Y-10698389D02*
X10541491Y-10717436D01*
X10541491Y-10717436D02*
X10551015Y-10726960D01*
X10551015Y-10726960D02*
X10570063Y-10736484D01*
X10570063Y-10736484D02*
X10608158Y-10736484D01*
X10608158Y-10736484D02*
X10627205Y-10726960D01*
X10627205Y-10726960D02*
X10636729Y-10717436D01*
X10636729Y-10717436D02*
X10646253Y-10698389D01*
X10646253Y-10698389D02*
X10646253Y-10650770D01*
X10646253Y-10650770D02*
X10636729Y-10631722D01*
X10636729Y-10631722D02*
X10627205Y-10622198D01*
X10627205Y-10622198D02*
X10608158Y-10612674D01*
X10608158Y-10612674D02*
X10570063Y-10612674D01*
X10570063Y-10612674D02*
X10551015Y-10622198D01*
X10551015Y-10622198D02*
X10541491Y-10631722D01*
X10541491Y-10631722D02*
X10531967Y-10650770D01*
X10770063Y-10536484D02*
X10789110Y-10536484D01*
X10789110Y-10536484D02*
X10808158Y-10546008D01*
X10808158Y-10546008D02*
X10817682Y-10555531D01*
X10817682Y-10555531D02*
X10827205Y-10574579D01*
X10827205Y-10574579D02*
X10836729Y-10612674D01*
X10836729Y-10612674D02*
X10836729Y-10660293D01*
X10836729Y-10660293D02*
X10827205Y-10698389D01*
X10827205Y-10698389D02*
X10817682Y-10717436D01*
X10817682Y-10717436D02*
X10808158Y-10726960D01*
X10808158Y-10726960D02*
X10789110Y-10736484D01*
X10789110Y-10736484D02*
X10770063Y-10736484D01*
X10770063Y-10736484D02*
X10751015Y-10726960D01*
X10751015Y-10726960D02*
X10741491Y-10717436D01*
X10741491Y-10717436D02*
X10731967Y-10698389D01*
X10731967Y-10698389D02*
X10722444Y-10660293D01*
X10722444Y-10660293D02*
X10722444Y-10612674D01*
X10722444Y-10612674D02*
X10731967Y-10574579D01*
X10731967Y-10574579D02*
X10741491Y-10555531D01*
X10741491Y-10555531D02*
X10751015Y-10546008D01*
X10751015Y-10546008D02*
X10770063Y-10536484D01*
X10960539Y-10536484D02*
X10979586Y-10536484D01*
X10979586Y-10536484D02*
X10998634Y-10546008D01*
X10998634Y-10546008D02*
X11008158Y-10555531D01*
X11008158Y-10555531D02*
X11017682Y-10574579D01*
X11017682Y-10574579D02*
X11027205Y-10612674D01*
X11027205Y-10612674D02*
X11027205Y-10660293D01*
X11027205Y-10660293D02*
X11017682Y-10698389D01*
X11017682Y-10698389D02*
X11008158Y-10717436D01*
X11008158Y-10717436D02*
X10998634Y-10726960D01*
X10998634Y-10726960D02*
X10979586Y-10736484D01*
X10979586Y-10736484D02*
X10960539Y-10736484D01*
X10960539Y-10736484D02*
X10941491Y-10726960D01*
X10941491Y-10726960D02*
X10931967Y-10717436D01*
X10931967Y-10717436D02*
X10922444Y-10698389D01*
X10922444Y-10698389D02*
X10912920Y-10660293D01*
X10912920Y-10660293D02*
X10912920Y-10612674D01*
X10912920Y-10612674D02*
X10922444Y-10574579D01*
X10922444Y-10574579D02*
X10931967Y-10555531D01*
X10931967Y-10555531D02*
X10941491Y-10546008D01*
X10941491Y-10546008D02*
X10960539Y-10536484D01*
X11112920Y-10736484D02*
X11112920Y-10603150D01*
X11112920Y-10622198D02*
X11122444Y-10612674D01*
X11122444Y-10612674D02*
X11141491Y-10603150D01*
X11141491Y-10603150D02*
X11170063Y-10603150D01*
X11170063Y-10603150D02*
X11189110Y-10612674D01*
X11189110Y-10612674D02*
X11198634Y-10631722D01*
X11198634Y-10631722D02*
X11198634Y-10736484D01*
X11198634Y-10631722D02*
X11208158Y-10612674D01*
X11208158Y-10612674D02*
X11227205Y-10603150D01*
X11227205Y-10603150D02*
X11255777Y-10603150D01*
X11255777Y-10603150D02*
X11274824Y-10612674D01*
X11274824Y-10612674D02*
X11284348Y-10631722D01*
X11284348Y-10631722D02*
X11284348Y-10736484D01*
X11379586Y-10736484D02*
X11379586Y-10603150D01*
X11379586Y-10622198D02*
X11389110Y-10612674D01*
X11389110Y-10612674D02*
X11408158Y-10603150D01*
X11408158Y-10603150D02*
X11436729Y-10603150D01*
X11436729Y-10603150D02*
X11455777Y-10612674D01*
X11455777Y-10612674D02*
X11465301Y-10631722D01*
X11465301Y-10631722D02*
X11465301Y-10736484D01*
X11465301Y-10631722D02*
X11474824Y-10612674D01*
X11474824Y-10612674D02*
X11493872Y-10603150D01*
X11493872Y-10603150D02*
X11522443Y-10603150D01*
X11522443Y-10603150D02*
X11541491Y-10612674D01*
X11541491Y-10612674D02*
X11551015Y-10631722D01*
X11551015Y-10631722D02*
X11551015Y-10736484D01*
X11941491Y-10526960D02*
X11770063Y-10784103D01*
X12198634Y-10536484D02*
X12217682Y-10536484D01*
X12217682Y-10536484D02*
X12236729Y-10546008D01*
X12236729Y-10546008D02*
X12246253Y-10555531D01*
X12246253Y-10555531D02*
X12255777Y-10574579D01*
X12255777Y-10574579D02*
X12265301Y-10612674D01*
X12265301Y-10612674D02*
X12265301Y-10660293D01*
X12265301Y-10660293D02*
X12255777Y-10698389D01*
X12255777Y-10698389D02*
X12246253Y-10717436D01*
X12246253Y-10717436D02*
X12236729Y-10726960D01*
X12236729Y-10726960D02*
X12217682Y-10736484D01*
X12217682Y-10736484D02*
X12198634Y-10736484D01*
X12198634Y-10736484D02*
X12179586Y-10726960D01*
X12179586Y-10726960D02*
X12170063Y-10717436D01*
X12170063Y-10717436D02*
X12160539Y-10698389D01*
X12160539Y-10698389D02*
X12151015Y-10660293D01*
X12151015Y-10660293D02*
X12151015Y-10612674D01*
X12151015Y-10612674D02*
X12160539Y-10574579D01*
X12160539Y-10574579D02*
X12170063Y-10555531D01*
X12170063Y-10555531D02*
X12179586Y-10546008D01*
X12179586Y-10546008D02*
X12198634Y-10536484D01*
X12351015Y-10717436D02*
X12360539Y-10726960D01*
X12360539Y-10726960D02*
X12351015Y-10736484D01*
X12351015Y-10736484D02*
X12341491Y-10726960D01*
X12341491Y-10726960D02*
X12351015Y-10717436D01*
X12351015Y-10717436D02*
X12351015Y-10736484D01*
X12484348Y-10536484D02*
X12503396Y-10536484D01*
X12503396Y-10536484D02*
X12522444Y-10546008D01*
X12522444Y-10546008D02*
X12531967Y-10555531D01*
X12531967Y-10555531D02*
X12541491Y-10574579D01*
X12541491Y-10574579D02*
X12551015Y-10612674D01*
X12551015Y-10612674D02*
X12551015Y-10660293D01*
X12551015Y-10660293D02*
X12541491Y-10698389D01*
X12541491Y-10698389D02*
X12531967Y-10717436D01*
X12531967Y-10717436D02*
X12522444Y-10726960D01*
X12522444Y-10726960D02*
X12503396Y-10736484D01*
X12503396Y-10736484D02*
X12484348Y-10736484D01*
X12484348Y-10736484D02*
X12465301Y-10726960D01*
X12465301Y-10726960D02*
X12455777Y-10717436D01*
X12455777Y-10717436D02*
X12446253Y-10698389D01*
X12446253Y-10698389D02*
X12436729Y-10660293D01*
X12436729Y-10660293D02*
X12436729Y-10612674D01*
X12436729Y-10612674D02*
X12446253Y-10574579D01*
X12446253Y-10574579D02*
X12455777Y-10555531D01*
X12455777Y-10555531D02*
X12465301Y-10546008D01*
X12465301Y-10546008D02*
X12484348Y-10536484D01*
X12627206Y-10555531D02*
X12636729Y-10546008D01*
X12636729Y-10546008D02*
X12655777Y-10536484D01*
X12655777Y-10536484D02*
X12703396Y-10536484D01*
X12703396Y-10536484D02*
X12722444Y-10546008D01*
X12722444Y-10546008D02*
X12731967Y-10555531D01*
X12731967Y-10555531D02*
X12741491Y-10574579D01*
X12741491Y-10574579D02*
X12741491Y-10593627D01*
X12741491Y-10593627D02*
X12731967Y-10622198D01*
X12731967Y-10622198D02*
X12617682Y-10736484D01*
X12617682Y-10736484D02*
X12741491Y-10736484D01*
X12808158Y-10536484D02*
X12931967Y-10536484D01*
X12931967Y-10536484D02*
X12865301Y-10612674D01*
X12865301Y-10612674D02*
X12893872Y-10612674D01*
X12893872Y-10612674D02*
X12912920Y-10622198D01*
X12912920Y-10622198D02*
X12922444Y-10631722D01*
X12922444Y-10631722D02*
X12931967Y-10650770D01*
X12931967Y-10650770D02*
X12931967Y-10698389D01*
X12931967Y-10698389D02*
X12922444Y-10717436D01*
X12922444Y-10717436D02*
X12912920Y-10726960D01*
X12912920Y-10726960D02*
X12893872Y-10736484D01*
X12893872Y-10736484D02*
X12836729Y-10736484D01*
X12836729Y-10736484D02*
X12817682Y-10726960D01*
X12817682Y-10726960D02*
X12808158Y-10717436D01*
X13103396Y-10536484D02*
X13065301Y-10536484D01*
X13065301Y-10536484D02*
X13046253Y-10546008D01*
X13046253Y-10546008D02*
X13036729Y-10555531D01*
X13036729Y-10555531D02*
X13017682Y-10584103D01*
X13017682Y-10584103D02*
X13008158Y-10622198D01*
X13008158Y-10622198D02*
X13008158Y-10698389D01*
X13008158Y-10698389D02*
X13017682Y-10717436D01*
X13017682Y-10717436D02*
X13027206Y-10726960D01*
X13027206Y-10726960D02*
X13046253Y-10736484D01*
X13046253Y-10736484D02*
X13084348Y-10736484D01*
X13084348Y-10736484D02*
X13103396Y-10726960D01*
X13103396Y-10726960D02*
X13112920Y-10717436D01*
X13112920Y-10717436D02*
X13122444Y-10698389D01*
X13122444Y-10698389D02*
X13122444Y-10650770D01*
X13122444Y-10650770D02*
X13112920Y-10631722D01*
X13112920Y-10631722D02*
X13103396Y-10622198D01*
X13103396Y-10622198D02*
X13084348Y-10612674D01*
X13084348Y-10612674D02*
X13046253Y-10612674D01*
X13046253Y-10612674D02*
X13027206Y-10622198D01*
X13027206Y-10622198D02*
X13017682Y-10631722D01*
X13017682Y-10631722D02*
X13008158Y-10650770D01*
X13198634Y-10536484D02*
X13198634Y-10574579D01*
X13274825Y-10536484D02*
X13274825Y-10574579D01*
X13570063Y-10812674D02*
X13560539Y-10803150D01*
X13560539Y-10803150D02*
X13541491Y-10774579D01*
X13541491Y-10774579D02*
X13531968Y-10755531D01*
X13531968Y-10755531D02*
X13522444Y-10726960D01*
X13522444Y-10726960D02*
X13512920Y-10679341D01*
X13512920Y-10679341D02*
X13512920Y-10641246D01*
X13512920Y-10641246D02*
X13522444Y-10593627D01*
X13522444Y-10593627D02*
X13531968Y-10565055D01*
X13531968Y-10565055D02*
X13541491Y-10546008D01*
X13541491Y-10546008D02*
X13560539Y-10517436D01*
X13560539Y-10517436D02*
X13570063Y-10507912D01*
X13751015Y-10736484D02*
X13636729Y-10736484D01*
X13693872Y-10736484D02*
X13693872Y-10536484D01*
X13693872Y-10536484D02*
X13674825Y-10565055D01*
X13674825Y-10565055D02*
X13655777Y-10584103D01*
X13655777Y-10584103D02*
X13636729Y-10593627D01*
X13865301Y-10622198D02*
X13846253Y-10612674D01*
X13846253Y-10612674D02*
X13836729Y-10603150D01*
X13836729Y-10603150D02*
X13827206Y-10584103D01*
X13827206Y-10584103D02*
X13827206Y-10574579D01*
X13827206Y-10574579D02*
X13836729Y-10555531D01*
X13836729Y-10555531D02*
X13846253Y-10546008D01*
X13846253Y-10546008D02*
X13865301Y-10536484D01*
X13865301Y-10536484D02*
X13903396Y-10536484D01*
X13903396Y-10536484D02*
X13922444Y-10546008D01*
X13922444Y-10546008D02*
X13931968Y-10555531D01*
X13931968Y-10555531D02*
X13941491Y-10574579D01*
X13941491Y-10574579D02*
X13941491Y-10584103D01*
X13941491Y-10584103D02*
X13931968Y-10603150D01*
X13931968Y-10603150D02*
X13922444Y-10612674D01*
X13922444Y-10612674D02*
X13903396Y-10622198D01*
X13903396Y-10622198D02*
X13865301Y-10622198D01*
X13865301Y-10622198D02*
X13846253Y-10631722D01*
X13846253Y-10631722D02*
X13836729Y-10641246D01*
X13836729Y-10641246D02*
X13827206Y-10660293D01*
X13827206Y-10660293D02*
X13827206Y-10698389D01*
X13827206Y-10698389D02*
X13836729Y-10717436D01*
X13836729Y-10717436D02*
X13846253Y-10726960D01*
X13846253Y-10726960D02*
X13865301Y-10736484D01*
X13865301Y-10736484D02*
X13903396Y-10736484D01*
X13903396Y-10736484D02*
X13922444Y-10726960D01*
X13922444Y-10726960D02*
X13931968Y-10717436D01*
X13931968Y-10717436D02*
X13941491Y-10698389D01*
X13941491Y-10698389D02*
X13941491Y-10660293D01*
X13941491Y-10660293D02*
X13931968Y-10641246D01*
X13931968Y-10641246D02*
X13922444Y-10631722D01*
X13922444Y-10631722D02*
X13903396Y-10622198D01*
X14179587Y-10736484D02*
X14179587Y-10536484D01*
X14265301Y-10736484D02*
X14265301Y-10631722D01*
X14265301Y-10631722D02*
X14255777Y-10612674D01*
X14255777Y-10612674D02*
X14236730Y-10603150D01*
X14236730Y-10603150D02*
X14208158Y-10603150D01*
X14208158Y-10603150D02*
X14189110Y-10612674D01*
X14189110Y-10612674D02*
X14179587Y-10622198D01*
X14389110Y-10736484D02*
X14370063Y-10726960D01*
X14370063Y-10726960D02*
X14360539Y-10717436D01*
X14360539Y-10717436D02*
X14351015Y-10698389D01*
X14351015Y-10698389D02*
X14351015Y-10641246D01*
X14351015Y-10641246D02*
X14360539Y-10622198D01*
X14360539Y-10622198D02*
X14370063Y-10612674D01*
X14370063Y-10612674D02*
X14389110Y-10603150D01*
X14389110Y-10603150D02*
X14417682Y-10603150D01*
X14417682Y-10603150D02*
X14436730Y-10612674D01*
X14436730Y-10612674D02*
X14446253Y-10622198D01*
X14446253Y-10622198D02*
X14455777Y-10641246D01*
X14455777Y-10641246D02*
X14455777Y-10698389D01*
X14455777Y-10698389D02*
X14446253Y-10717436D01*
X14446253Y-10717436D02*
X14436730Y-10726960D01*
X14436730Y-10726960D02*
X14417682Y-10736484D01*
X14417682Y-10736484D02*
X14389110Y-10736484D01*
X14570063Y-10736484D02*
X14551015Y-10726960D01*
X14551015Y-10726960D02*
X14541491Y-10707912D01*
X14541491Y-10707912D02*
X14541491Y-10536484D01*
X14722444Y-10726960D02*
X14703396Y-10736484D01*
X14703396Y-10736484D02*
X14665301Y-10736484D01*
X14665301Y-10736484D02*
X14646253Y-10726960D01*
X14646253Y-10726960D02*
X14636730Y-10707912D01*
X14636730Y-10707912D02*
X14636730Y-10631722D01*
X14636730Y-10631722D02*
X14646253Y-10612674D01*
X14646253Y-10612674D02*
X14665301Y-10603150D01*
X14665301Y-10603150D02*
X14703396Y-10603150D01*
X14703396Y-10603150D02*
X14722444Y-10612674D01*
X14722444Y-10612674D02*
X14731968Y-10631722D01*
X14731968Y-10631722D02*
X14731968Y-10650770D01*
X14731968Y-10650770D02*
X14636730Y-10669817D01*
X14808158Y-10726960D02*
X14827206Y-10736484D01*
X14827206Y-10736484D02*
X14865301Y-10736484D01*
X14865301Y-10736484D02*
X14884349Y-10726960D01*
X14884349Y-10726960D02*
X14893872Y-10707912D01*
X14893872Y-10707912D02*
X14893872Y-10698389D01*
X14893872Y-10698389D02*
X14884349Y-10679341D01*
X14884349Y-10679341D02*
X14865301Y-10669817D01*
X14865301Y-10669817D02*
X14836730Y-10669817D01*
X14836730Y-10669817D02*
X14817682Y-10660293D01*
X14817682Y-10660293D02*
X14808158Y-10641246D01*
X14808158Y-10641246D02*
X14808158Y-10631722D01*
X14808158Y-10631722D02*
X14817682Y-10612674D01*
X14817682Y-10612674D02*
X14836730Y-10603150D01*
X14836730Y-10603150D02*
X14865301Y-10603150D01*
X14865301Y-10603150D02*
X14884349Y-10612674D01*
X14960539Y-10812674D02*
X14970063Y-10803150D01*
X14970063Y-10803150D02*
X14989111Y-10774579D01*
X14989111Y-10774579D02*
X14998634Y-10755531D01*
X14998634Y-10755531D02*
X15008158Y-10726960D01*
X15008158Y-10726960D02*
X15017682Y-10679341D01*
X15017682Y-10679341D02*
X15017682Y-10641246D01*
X15017682Y-10641246D02*
X15008158Y-10593627D01*
X15008158Y-10593627D02*
X14998634Y-10565055D01*
X14998634Y-10565055D02*
X14989111Y-10546008D01*
X14989111Y-10546008D02*
X14970063Y-10517436D01*
X14970063Y-10517436D02*
X14960539Y-10507912D01*
D10*
X9995000Y-10909000D02*
G75*
G03*
X9995000Y-10909000I-50000J0D01*
G01*
D11*
X10360539Y-11000484D02*
X10246253Y-11000484D01*
X10303396Y-11000484D02*
X10303396Y-10800484D01*
X10303396Y-10800484D02*
X10284348Y-10829055D01*
X10284348Y-10829055D02*
X10265301Y-10848103D01*
X10265301Y-10848103D02*
X10246253Y-10857627D01*
X10446253Y-10981436D02*
X10455777Y-10990960D01*
X10455777Y-10990960D02*
X10446253Y-11000484D01*
X10446253Y-11000484D02*
X10436729Y-10990960D01*
X10436729Y-10990960D02*
X10446253Y-10981436D01*
X10446253Y-10981436D02*
X10446253Y-11000484D01*
X10579586Y-10800484D02*
X10598634Y-10800484D01*
X10598634Y-10800484D02*
X10617682Y-10810008D01*
X10617682Y-10810008D02*
X10627205Y-10819531D01*
X10627205Y-10819531D02*
X10636729Y-10838579D01*
X10636729Y-10838579D02*
X10646253Y-10876674D01*
X10646253Y-10876674D02*
X10646253Y-10924293D01*
X10646253Y-10924293D02*
X10636729Y-10962389D01*
X10636729Y-10962389D02*
X10627205Y-10981436D01*
X10627205Y-10981436D02*
X10617682Y-10990960D01*
X10617682Y-10990960D02*
X10598634Y-11000484D01*
X10598634Y-11000484D02*
X10579586Y-11000484D01*
X10579586Y-11000484D02*
X10560539Y-10990960D01*
X10560539Y-10990960D02*
X10551015Y-10981436D01*
X10551015Y-10981436D02*
X10541491Y-10962389D01*
X10541491Y-10962389D02*
X10531967Y-10924293D01*
X10531967Y-10924293D02*
X10531967Y-10876674D01*
X10531967Y-10876674D02*
X10541491Y-10838579D01*
X10541491Y-10838579D02*
X10551015Y-10819531D01*
X10551015Y-10819531D02*
X10560539Y-10810008D01*
X10560539Y-10810008D02*
X10579586Y-10800484D01*
X10770063Y-10800484D02*
X10789110Y-10800484D01*
X10789110Y-10800484D02*
X10808158Y-10810008D01*
X10808158Y-10810008D02*
X10817682Y-10819531D01*
X10817682Y-10819531D02*
X10827205Y-10838579D01*
X10827205Y-10838579D02*
X10836729Y-10876674D01*
X10836729Y-10876674D02*
X10836729Y-10924293D01*
X10836729Y-10924293D02*
X10827205Y-10962389D01*
X10827205Y-10962389D02*
X10817682Y-10981436D01*
X10817682Y-10981436D02*
X10808158Y-10990960D01*
X10808158Y-10990960D02*
X10789110Y-11000484D01*
X10789110Y-11000484D02*
X10770063Y-11000484D01*
X10770063Y-11000484D02*
X10751015Y-10990960D01*
X10751015Y-10990960D02*
X10741491Y-10981436D01*
X10741491Y-10981436D02*
X10731967Y-10962389D01*
X10731967Y-10962389D02*
X10722444Y-10924293D01*
X10722444Y-10924293D02*
X10722444Y-10876674D01*
X10722444Y-10876674D02*
X10731967Y-10838579D01*
X10731967Y-10838579D02*
X10741491Y-10819531D01*
X10741491Y-10819531D02*
X10751015Y-10810008D01*
X10751015Y-10810008D02*
X10770063Y-10800484D01*
X10960539Y-10800484D02*
X10979586Y-10800484D01*
X10979586Y-10800484D02*
X10998634Y-10810008D01*
X10998634Y-10810008D02*
X11008158Y-10819531D01*
X11008158Y-10819531D02*
X11017682Y-10838579D01*
X11017682Y-10838579D02*
X11027205Y-10876674D01*
X11027205Y-10876674D02*
X11027205Y-10924293D01*
X11027205Y-10924293D02*
X11017682Y-10962389D01*
X11017682Y-10962389D02*
X11008158Y-10981436D01*
X11008158Y-10981436D02*
X10998634Y-10990960D01*
X10998634Y-10990960D02*
X10979586Y-11000484D01*
X10979586Y-11000484D02*
X10960539Y-11000484D01*
X10960539Y-11000484D02*
X10941491Y-10990960D01*
X10941491Y-10990960D02*
X10931967Y-10981436D01*
X10931967Y-10981436D02*
X10922444Y-10962389D01*
X10922444Y-10962389D02*
X10912920Y-10924293D01*
X10912920Y-10924293D02*
X10912920Y-10876674D01*
X10912920Y-10876674D02*
X10922444Y-10838579D01*
X10922444Y-10838579D02*
X10931967Y-10819531D01*
X10931967Y-10819531D02*
X10941491Y-10810008D01*
X10941491Y-10810008D02*
X10960539Y-10800484D01*
X11112920Y-11000484D02*
X11112920Y-10867150D01*
X11112920Y-10886198D02*
X11122444Y-10876674D01*
X11122444Y-10876674D02*
X11141491Y-10867150D01*
X11141491Y-10867150D02*
X11170063Y-10867150D01*
X11170063Y-10867150D02*
X11189110Y-10876674D01*
X11189110Y-10876674D02*
X11198634Y-10895722D01*
X11198634Y-10895722D02*
X11198634Y-11000484D01*
X11198634Y-10895722D02*
X11208158Y-10876674D01*
X11208158Y-10876674D02*
X11227205Y-10867150D01*
X11227205Y-10867150D02*
X11255777Y-10867150D01*
X11255777Y-10867150D02*
X11274824Y-10876674D01*
X11274824Y-10876674D02*
X11284348Y-10895722D01*
X11284348Y-10895722D02*
X11284348Y-11000484D01*
X11379586Y-11000484D02*
X11379586Y-10867150D01*
X11379586Y-10886198D02*
X11389110Y-10876674D01*
X11389110Y-10876674D02*
X11408158Y-10867150D01*
X11408158Y-10867150D02*
X11436729Y-10867150D01*
X11436729Y-10867150D02*
X11455777Y-10876674D01*
X11455777Y-10876674D02*
X11465301Y-10895722D01*
X11465301Y-10895722D02*
X11465301Y-11000484D01*
X11465301Y-10895722D02*
X11474824Y-10876674D01*
X11474824Y-10876674D02*
X11493872Y-10867150D01*
X11493872Y-10867150D02*
X11522443Y-10867150D01*
X11522443Y-10867150D02*
X11541491Y-10876674D01*
X11541491Y-10876674D02*
X11551015Y-10895722D01*
X11551015Y-10895722D02*
X11551015Y-11000484D01*
X11941491Y-10790960D02*
X11770063Y-11048103D01*
X12198634Y-10800484D02*
X12217682Y-10800484D01*
X12217682Y-10800484D02*
X12236729Y-10810008D01*
X12236729Y-10810008D02*
X12246253Y-10819531D01*
X12246253Y-10819531D02*
X12255777Y-10838579D01*
X12255777Y-10838579D02*
X12265301Y-10876674D01*
X12265301Y-10876674D02*
X12265301Y-10924293D01*
X12265301Y-10924293D02*
X12255777Y-10962389D01*
X12255777Y-10962389D02*
X12246253Y-10981436D01*
X12246253Y-10981436D02*
X12236729Y-10990960D01*
X12236729Y-10990960D02*
X12217682Y-11000484D01*
X12217682Y-11000484D02*
X12198634Y-11000484D01*
X12198634Y-11000484D02*
X12179586Y-10990960D01*
X12179586Y-10990960D02*
X12170063Y-10981436D01*
X12170063Y-10981436D02*
X12160539Y-10962389D01*
X12160539Y-10962389D02*
X12151015Y-10924293D01*
X12151015Y-10924293D02*
X12151015Y-10876674D01*
X12151015Y-10876674D02*
X12160539Y-10838579D01*
X12160539Y-10838579D02*
X12170063Y-10819531D01*
X12170063Y-10819531D02*
X12179586Y-10810008D01*
X12179586Y-10810008D02*
X12198634Y-10800484D01*
X12351015Y-10981436D02*
X12360539Y-10990960D01*
X12360539Y-10990960D02*
X12351015Y-11000484D01*
X12351015Y-11000484D02*
X12341491Y-10990960D01*
X12341491Y-10990960D02*
X12351015Y-10981436D01*
X12351015Y-10981436D02*
X12351015Y-11000484D01*
X12484348Y-10800484D02*
X12503396Y-10800484D01*
X12503396Y-10800484D02*
X12522444Y-10810008D01*
X12522444Y-10810008D02*
X12531967Y-10819531D01*
X12531967Y-10819531D02*
X12541491Y-10838579D01*
X12541491Y-10838579D02*
X12551015Y-10876674D01*
X12551015Y-10876674D02*
X12551015Y-10924293D01*
X12551015Y-10924293D02*
X12541491Y-10962389D01*
X12541491Y-10962389D02*
X12531967Y-10981436D01*
X12531967Y-10981436D02*
X12522444Y-10990960D01*
X12522444Y-10990960D02*
X12503396Y-11000484D01*
X12503396Y-11000484D02*
X12484348Y-11000484D01*
X12484348Y-11000484D02*
X12465301Y-10990960D01*
X12465301Y-10990960D02*
X12455777Y-10981436D01*
X12455777Y-10981436D02*
X12446253Y-10962389D01*
X12446253Y-10962389D02*
X12436729Y-10924293D01*
X12436729Y-10924293D02*
X12436729Y-10876674D01*
X12436729Y-10876674D02*
X12446253Y-10838579D01*
X12446253Y-10838579D02*
X12455777Y-10819531D01*
X12455777Y-10819531D02*
X12465301Y-10810008D01*
X12465301Y-10810008D02*
X12484348Y-10800484D01*
X12617682Y-10800484D02*
X12741491Y-10800484D01*
X12741491Y-10800484D02*
X12674825Y-10876674D01*
X12674825Y-10876674D02*
X12703396Y-10876674D01*
X12703396Y-10876674D02*
X12722444Y-10886198D01*
X12722444Y-10886198D02*
X12731967Y-10895722D01*
X12731967Y-10895722D02*
X12741491Y-10914770D01*
X12741491Y-10914770D02*
X12741491Y-10962389D01*
X12741491Y-10962389D02*
X12731967Y-10981436D01*
X12731967Y-10981436D02*
X12722444Y-10990960D01*
X12722444Y-10990960D02*
X12703396Y-11000484D01*
X12703396Y-11000484D02*
X12646253Y-11000484D01*
X12646253Y-11000484D02*
X12627206Y-10990960D01*
X12627206Y-10990960D02*
X12617682Y-10981436D01*
X12836729Y-11000484D02*
X12874825Y-11000484D01*
X12874825Y-11000484D02*
X12893872Y-10990960D01*
X12893872Y-10990960D02*
X12903396Y-10981436D01*
X12903396Y-10981436D02*
X12922444Y-10952865D01*
X12922444Y-10952865D02*
X12931967Y-10914770D01*
X12931967Y-10914770D02*
X12931967Y-10838579D01*
X12931967Y-10838579D02*
X12922444Y-10819531D01*
X12922444Y-10819531D02*
X12912920Y-10810008D01*
X12912920Y-10810008D02*
X12893872Y-10800484D01*
X12893872Y-10800484D02*
X12855777Y-10800484D01*
X12855777Y-10800484D02*
X12836729Y-10810008D01*
X12836729Y-10810008D02*
X12827206Y-10819531D01*
X12827206Y-10819531D02*
X12817682Y-10838579D01*
X12817682Y-10838579D02*
X12817682Y-10886198D01*
X12817682Y-10886198D02*
X12827206Y-10905246D01*
X12827206Y-10905246D02*
X12836729Y-10914770D01*
X12836729Y-10914770D02*
X12855777Y-10924293D01*
X12855777Y-10924293D02*
X12893872Y-10924293D01*
X12893872Y-10924293D02*
X12912920Y-10914770D01*
X12912920Y-10914770D02*
X12922444Y-10905246D01*
X12922444Y-10905246D02*
X12931967Y-10886198D01*
X13103396Y-10867150D02*
X13103396Y-11000484D01*
X13055777Y-10790960D02*
X13008158Y-10933817D01*
X13008158Y-10933817D02*
X13131967Y-10933817D01*
X13198634Y-10800484D02*
X13198634Y-10838579D01*
X13274825Y-10800484D02*
X13274825Y-10838579D01*
X13570063Y-11076674D02*
X13560539Y-11067150D01*
X13560539Y-11067150D02*
X13541491Y-11038579D01*
X13541491Y-11038579D02*
X13531968Y-11019531D01*
X13531968Y-11019531D02*
X13522444Y-10990960D01*
X13522444Y-10990960D02*
X13512920Y-10943341D01*
X13512920Y-10943341D02*
X13512920Y-10905246D01*
X13512920Y-10905246D02*
X13522444Y-10857627D01*
X13522444Y-10857627D02*
X13531968Y-10829055D01*
X13531968Y-10829055D02*
X13541491Y-10810008D01*
X13541491Y-10810008D02*
X13560539Y-10781436D01*
X13560539Y-10781436D02*
X13570063Y-10771912D01*
X13741491Y-10800484D02*
X13646253Y-10800484D01*
X13646253Y-10800484D02*
X13636729Y-10895722D01*
X13636729Y-10895722D02*
X13646253Y-10886198D01*
X13646253Y-10886198D02*
X13665301Y-10876674D01*
X13665301Y-10876674D02*
X13712920Y-10876674D01*
X13712920Y-10876674D02*
X13731968Y-10886198D01*
X13731968Y-10886198D02*
X13741491Y-10895722D01*
X13741491Y-10895722D02*
X13751015Y-10914770D01*
X13751015Y-10914770D02*
X13751015Y-10962389D01*
X13751015Y-10962389D02*
X13741491Y-10981436D01*
X13741491Y-10981436D02*
X13731968Y-10990960D01*
X13731968Y-10990960D02*
X13712920Y-11000484D01*
X13712920Y-11000484D02*
X13665301Y-11000484D01*
X13665301Y-11000484D02*
X13646253Y-10990960D01*
X13646253Y-10990960D02*
X13636729Y-10981436D01*
X13922444Y-10800484D02*
X13884348Y-10800484D01*
X13884348Y-10800484D02*
X13865301Y-10810008D01*
X13865301Y-10810008D02*
X13855777Y-10819531D01*
X13855777Y-10819531D02*
X13836729Y-10848103D01*
X13836729Y-10848103D02*
X13827206Y-10886198D01*
X13827206Y-10886198D02*
X13827206Y-10962389D01*
X13827206Y-10962389D02*
X13836729Y-10981436D01*
X13836729Y-10981436D02*
X13846253Y-10990960D01*
X13846253Y-10990960D02*
X13865301Y-11000484D01*
X13865301Y-11000484D02*
X13903396Y-11000484D01*
X13903396Y-11000484D02*
X13922444Y-10990960D01*
X13922444Y-10990960D02*
X13931968Y-10981436D01*
X13931968Y-10981436D02*
X13941491Y-10962389D01*
X13941491Y-10962389D02*
X13941491Y-10914770D01*
X13941491Y-10914770D02*
X13931968Y-10895722D01*
X13931968Y-10895722D02*
X13922444Y-10886198D01*
X13922444Y-10886198D02*
X13903396Y-10876674D01*
X13903396Y-10876674D02*
X13865301Y-10876674D01*
X13865301Y-10876674D02*
X13846253Y-10886198D01*
X13846253Y-10886198D02*
X13836729Y-10895722D01*
X13836729Y-10895722D02*
X13827206Y-10914770D01*
X14179587Y-11000484D02*
X14179587Y-10800484D01*
X14265301Y-11000484D02*
X14265301Y-10895722D01*
X14265301Y-10895722D02*
X14255777Y-10876674D01*
X14255777Y-10876674D02*
X14236730Y-10867150D01*
X14236730Y-10867150D02*
X14208158Y-10867150D01*
X14208158Y-10867150D02*
X14189110Y-10876674D01*
X14189110Y-10876674D02*
X14179587Y-10886198D01*
X14389110Y-11000484D02*
X14370063Y-10990960D01*
X14370063Y-10990960D02*
X14360539Y-10981436D01*
X14360539Y-10981436D02*
X14351015Y-10962389D01*
X14351015Y-10962389D02*
X14351015Y-10905246D01*
X14351015Y-10905246D02*
X14360539Y-10886198D01*
X14360539Y-10886198D02*
X14370063Y-10876674D01*
X14370063Y-10876674D02*
X14389110Y-10867150D01*
X14389110Y-10867150D02*
X14417682Y-10867150D01*
X14417682Y-10867150D02*
X14436730Y-10876674D01*
X14436730Y-10876674D02*
X14446253Y-10886198D01*
X14446253Y-10886198D02*
X14455777Y-10905246D01*
X14455777Y-10905246D02*
X14455777Y-10962389D01*
X14455777Y-10962389D02*
X14446253Y-10981436D01*
X14446253Y-10981436D02*
X14436730Y-10990960D01*
X14436730Y-10990960D02*
X14417682Y-11000484D01*
X14417682Y-11000484D02*
X14389110Y-11000484D01*
X14570063Y-11000484D02*
X14551015Y-10990960D01*
X14551015Y-10990960D02*
X14541491Y-10971912D01*
X14541491Y-10971912D02*
X14541491Y-10800484D01*
X14722444Y-10990960D02*
X14703396Y-11000484D01*
X14703396Y-11000484D02*
X14665301Y-11000484D01*
X14665301Y-11000484D02*
X14646253Y-10990960D01*
X14646253Y-10990960D02*
X14636730Y-10971912D01*
X14636730Y-10971912D02*
X14636730Y-10895722D01*
X14636730Y-10895722D02*
X14646253Y-10876674D01*
X14646253Y-10876674D02*
X14665301Y-10867150D01*
X14665301Y-10867150D02*
X14703396Y-10867150D01*
X14703396Y-10867150D02*
X14722444Y-10876674D01*
X14722444Y-10876674D02*
X14731968Y-10895722D01*
X14731968Y-10895722D02*
X14731968Y-10914770D01*
X14731968Y-10914770D02*
X14636730Y-10933817D01*
X14808158Y-10990960D02*
X14827206Y-11000484D01*
X14827206Y-11000484D02*
X14865301Y-11000484D01*
X14865301Y-11000484D02*
X14884349Y-10990960D01*
X14884349Y-10990960D02*
X14893872Y-10971912D01*
X14893872Y-10971912D02*
X14893872Y-10962389D01*
X14893872Y-10962389D02*
X14884349Y-10943341D01*
X14884349Y-10943341D02*
X14865301Y-10933817D01*
X14865301Y-10933817D02*
X14836730Y-10933817D01*
X14836730Y-10933817D02*
X14817682Y-10924293D01*
X14817682Y-10924293D02*
X14808158Y-10905246D01*
X14808158Y-10905246D02*
X14808158Y-10895722D01*
X14808158Y-10895722D02*
X14817682Y-10876674D01*
X14817682Y-10876674D02*
X14836730Y-10867150D01*
X14836730Y-10867150D02*
X14865301Y-10867150D01*
X14865301Y-10867150D02*
X14884349Y-10876674D01*
X14960539Y-11076674D02*
X14970063Y-11067150D01*
X14970063Y-11067150D02*
X14989111Y-11038579D01*
X14989111Y-11038579D02*
X14998634Y-11019531D01*
X14998634Y-11019531D02*
X15008158Y-10990960D01*
X15008158Y-10990960D02*
X15017682Y-10943341D01*
X15017682Y-10943341D02*
X15017682Y-10905246D01*
X15017682Y-10905246D02*
X15008158Y-10857627D01*
X15008158Y-10857627D02*
X14998634Y-10829055D01*
X14998634Y-10829055D02*
X14989111Y-10810008D01*
X14989111Y-10810008D02*
X14970063Y-10781436D01*
X14970063Y-10781436D02*
X14960539Y-10771912D01*
M02*
